<?xml version="1.0" encoding="UTF-8" standalone="no"?>
<!-- Created with Inkscape (http://www.inkscape.org/) -->

<svg
   xmlns:dc="http://purl.org/dc/elements/1.1/"
   xmlns:cc="http://creativecommons.org/ns#"
   xmlns:rdf="http://www.w3.org/1999/02/22-rdf-syntax-ns#"
   xmlns:svg="http://www.w3.org/2000/svg"
   xmlns="http://www.w3.org/2000/svg"
   xmlns:sodipodi="http://sodipodi.sourceforge.net/DTD/sodipodi-0.dtd"
   xmlns:inkscape="http://www.inkscape.org/namespaces/inkscape"
   width="175.00117mm"
   height="175.00117mm"
   viewBox="0 0 175.00117 175.00117"
   version="1.1"
   id="svg8"
   inkscape:version="0.92.3 (2405546, 2018-03-11)"
   sodipodi:docname="avataricon.svg">
  <defs
     id="defs2" />
  <sodipodi:namedview
     id="base"
     pagecolor="#ffffff"
     bordercolor="#666666"
     borderopacity="1.0"
     inkscape:pageopacity="0.0"
     inkscape:pageshadow="2"
     inkscape:zoom="0.35"
     inkscape:cx="-601.41809"
     inkscape:cy="326.14902"
     inkscape:document-units="mm"
     inkscape:current-layer="layer1"
     showgrid="false"
     inkscape:window-width="2560"
     inkscape:window-height="1017"
     inkscape:window-x="-8"
     inkscape:window-y="-8"
     inkscape:window-maximized="1" />
  <metadata
     id="metadata5">
    <rdf:RDF>
      <cc:Work
         rdf:about="">
        <dc:format>image/svg+xml</dc:format>
        <dc:type
           rdf:resource="http://purl.org/dc/dcmitype/StillImage" />
        <dc:title></dc:title>
      </cc:Work>
    </rdf:RDF>
  </metadata>
  <g
     inkscape:label="Capa 1"
     inkscape:groupmode="layer"
     id="layer1"
     transform="translate(-20.600606,-44.701787)">
    <circle
       style="opacity:0.68900003;fill:#42a396;fill-opacity:1;fill-rule:evenodd;stroke:#f5f5f5;stroke-width:3.4000001;stroke-linecap:round;stroke-linejoin:round;stroke-miterlimit:4;stroke-dasharray:none;stroke-opacity:1;paint-order:normal"
       id="path870"
       cx="108.1012"
       cy="132.20238"
       r="85.800591" />
    <g
       id="g871"
       transform="matrix(0.20750623,0,0,0.20750623,56.536002,80.637079)">
      <g
         id="g847">
        <g
           id="g819">
          <path
             id="path815"
             d="m 364.194,446.759 c -19.719,-45.223 -64.605,-75.91 -115.694,-75.91 -0.001,0 -0.001,0 -0.001,0 -22.892,0 -44.457,6.162 -63.074,16.958 V 497 H 248.5 374.65 c 0,-17.849 -3.739,-34.838 -10.456,-50.241 z"
             inkscape:connector-curvature="0"
             style="fill:#676fb2" />
          <path
             id="path817"
             d="m 185.424,387.807 c -23.164,13.427 -41.756,34.038 -52.62,58.954 -6.716,15.403 -10.455,32.391 -10.455,50.239 h 63.074 c 3.239,-19.838 10.389,-38.393 20.669,-54.823 z"
             inkscape:connector-curvature="0"
             style="fill:#4c5699" />
        </g>
        <g
           id="g825">
          <path
             id="path821"
             d="m 161.407,341.009 c -22.812,22.812 -22.812,59.796 0,82.608 l 28.428,30.223 c 15.221,16.182 36.45,25.358 58.665,25.358 V 341.009 Z"
             inkscape:connector-curvature="0"
             style="fill:#4c5699" />
          <path
             id="path823"
             d="M 335.575,341.009 H 248.5 v 82.911 c -11.994,15.843 -12.76,38.278 0,55.277 22.224,0 43.461,-9.183 58.683,-25.376 l 28.392,-30.204 c 22.812,-22.812 22.812,-59.797 0,-82.608 z"
             inkscape:connector-curvature="0"
             style="fill:#676fb2" />
        </g>
        <path
           id="path827"
           d="m 248.5,355.379 -42.412,22.809 c 7.447,19.531 22.344,35.001 42.412,45.732 20.067,-10.73 34.943,-26.205 42.39,-45.735 z"
           inkscape:connector-curvature="0"
           style="fill:#ffbd86" />
        <g
           id="g833"
           style="fill:#ffbd86">
          <path
             id="path829"
             d="m 59.693,233.005 c 0,20.763 16.832,37.594 37.594,37.594 20.762,0 37.594,-16.832 37.594,-37.594 0,-19.386 -14.673,-35.316 -33.518,-37.348 -22.606,-2.437 -41.67,15.271 -41.67,37.348 z"
             inkscape:connector-curvature="0" />
          <path
             id="path831"
             d="m 395.075,195.657 c -18.575,2.285 -32.957,18.156 -32.957,37.348 0,20.763 16.832,37.594 37.594,37.594 20.762,0 37.594,-16.832 37.594,-37.594 0.001,-22.655 -19.898,-40.095 -42.231,-37.348 z"
             inkscape:connector-curvature="0" />
        </g>
        <g
           id="g839">
          <path
             id="path835"
             d="M 298.711,126.087 H 198.288 l -50.787,53.762 -0.057,103.933 c -0.03,54.033 43.826,98.361 98.307,98.361 h 27.81 c 71.652,-11.976 126.151,-74.219 126.151,-149.138 z"
             inkscape:connector-curvature="0"
             style="fill:#fed2a4" />
          <path
             id="path837"
             d="m 147.413,233.005 c 0,-6.386 1.166,-18.857 1.166,-18.857 H 115.1 l -17.813,18.857 c 0,83.511 67.701,151.212 151.212,151.212 8.54,0 16.91,-0.713 25.063,-2.073 C 201.981,370.201 147.413,307.977 147.413,233.005 Z"
             inkscape:connector-curvature="0"
             style="fill:#ffbd86" />
        </g>
        <g
           id="g845">
          <path
             id="path841"
             d="m 97.287,233.005 h 10.71 c 15.846,-0.016 30.619,-7.071 40.582,-18.856 2.68,-3.171 5.012,-6.684 6.924,-10.494 v -0.001 c 1.315,-2.621 2.491,-5.301 3.542,-8.025 l -57.682,0.028 c -2.665,12.727 -4.076,25.293 -4.076,37.348 z"
             inkscape:connector-curvature="0"
             style="fill:#ce857a" />
          <path
             id="path843"
             d="m 395.075,195.657 -57.12,-0.028 c 1.051,2.724 2.228,5.404 3.542,8.025 v 0.001 c 9.017,17.975 27.396,29.33 47.506,29.35 h 10.71 c 0,-12.876 -1.609,-25.413 -4.638,-37.348 z"
             inkscape:connector-curvature="0"
             style="fill:#d6948c" />
        </g>
      </g>
      <g
         id="g861">
        <g
           id="g853">
          <path
             id="path849"
             d="m 380.47,109.283 h -0.057 C 362.395,64.942 330.273,24.489 285.348,7.393 277.03,12.056 207.283,51.158 198.741,55.946 v 118.575 c 62.864,10.257 129.484,0.887 185.48,-28.124 0,-12.756 -1.556,-25.176 -3.751,-37.114 z"
             inkscape:connector-curvature="0"
             style="fill:#676fb2" />
          <path
             id="path851"
             d="M 285.348,7.392 C 272.729,2.591 262.44,0 248.514,0 200.587,0 145.502,38.052 116.558,109.283 c -4.569,11.245 -3.751,24.358 -3.751,37.114 26.743,13.855 55.91,23.225 85.933,28.124 0.218,-15.777 2.192,-31.151 4.916,-45.96 11.156,-60.666 39.32,-90.973 81.692,-121.169 z"
             inkscape:connector-curvature="0"
             style="fill:#4c5699" />
        </g>
        <g
           id="g859">
          <path
             id="path855"
             d="m 180.26,218.37 c 22.348,3.619 45.196,5.467 68.254,5.467 45.487,0 90.163,-7.178 131.786,-21.002 5.588,-1.856 10.381,-4.427 14.775,-7.178 29.236,-18.308 18.935,-75.475 -14.605,-86.375 -41.731,21.136 -85.964,31.147 -131.956,31.147 -15.643,0 -31.085,-1.161 -46.297,-3.523 l -88.284,24.468 z"
             inkscape:connector-curvature="0"
             style="fill:#8288cb" />
          <path
             id="path857"
             d="m 202.216,136.907 c -29.489,-4.578 -58.115,-13.674 -85.658,-27.625 -33.308,10.824 -44.106,67.986 -15.195,86.375 4.482,2.85 9.62,5.27 15.364,7.178 20.525,6.817 41.792,12.014 63.533,15.535 -28.156,-24.128 -21.33,-67.396 21.956,-81.463 z"
             inkscape:connector-curvature="0"
             style="fill:#676fb2" />
        </g>
      </g>
      <g
         id="g867">
        <path
           id="path863"
           d="m 214.394,218.484 c -24.093,-14.483 -79.397,-12.95 -97.351,8.512 -14.777,17.662 -5.536,61.865 12.457,73.767 16.975,11.229 54.915,9.92 71.934,0.71 h 0.001 c 12.242,-6.624 22.892,-25.539 26.904,-42.467 5.113,-21.572 35.196,-21.534 40.296,-0.005 l 13.948,-40.518 c -21.765,-9.188 -46.423,-9.188 -68.189,0.001 z"
           inkscape:connector-curvature="0"
           style="fill:#4c5699" />
        <path
           id="path865"
           d="m 282.584,218.484 c 24.135,-14.509 79.424,-12.917 97.352,8.513 14.822,17.716 5.454,61.918 -12.458,73.767 -16.973,11.228 -54.913,9.921 -71.934,0.71 -12.221,-6.613 -22.891,-25.522 -26.907,-42.472 -3.294,-13.899 1.704,-33.158 13.947,-40.518 z"
           inkscape:connector-curvature="0"
           style="fill:#676fb2" />
      </g>
      <path
         id="path869"
         d="m 259.371,279.874 c -6.667,-2.727 -15.667,-2.727 -19.509,-2.727 -4.142,0 -7.5,3.358 -7.5,7.5 0,4.142 3.358,7.5 7.5,7.5 2.706,0 9.894,0 13.832,1.61 0.929,0.38 1.891,0.56 2.836,0.56 2.956,0 5.757,-1.759 6.945,-4.663 1.567,-3.834 -0.27,-8.213 -4.104,-9.78 z"
         inkscape:connector-curvature="0"
         style="fill:#313d40" />
    </g>
  </g>
</svg>
