<?xml version="1.0" encoding="UTF-8" standalone="no"?>
<!-- Created with Inkscape (http://www.inkscape.org/) -->

<svg
   xmlns:dc="http://purl.org/dc/elements/1.1/"
   xmlns:cc="http://creativecommons.org/ns#"
   xmlns:rdf="http://www.w3.org/1999/02/22-rdf-syntax-ns#"
   xmlns:svg="http://www.w3.org/2000/svg"
   xmlns="http://www.w3.org/2000/svg"
   xmlns:sodipodi="http://sodipodi.sourceforge.net/DTD/sodipodi-0.dtd"
   xmlns:inkscape="http://www.inkscape.org/namespaces/inkscape"
   width="74.083336mm"
   height="74.083336mm"
   viewBox="0 0 74.083336 74.083336"
   version="1.1"
   id="svg8"
   inkscape:version="0.92.3 (2405546, 2018-03-11)"
   sodipodi:docname="classpipicon.svg">
  <defs
     id="defs2" />
  <sodipodi:namedview
     id="base"
     pagecolor="#ffffff"
     bordercolor="#666666"
     borderopacity="1.0"
     inkscape:pageopacity="0.0"
     inkscape:pageshadow="2"
     inkscape:zoom="5.6568542"
     inkscape:cx="88.452402"
     inkscape:cy="149.15142"
     inkscape:document-units="mm"
     inkscape:current-layer="layer1"
     showgrid="false"
     inkscape:window-width="2560"
     inkscape:window-height="1017"
     inkscape:window-x="-8"
     inkscape:window-y="-8"
     inkscape:window-maximized="1" />
  <metadata
     id="metadata5">
    <rdf:RDF>
      <cc:Work
         rdf:about="">
        <dc:format>image/svg+xml</dc:format>
        <dc:type
           rdf:resource="http://purl.org/dc/dcmitype/StillImage" />
        <dc:title></dc:title>
      </cc:Work>
    </rdf:RDF>
  </metadata>
  <g
     inkscape:label="Capa 1"
     inkscape:groupmode="layer"
     id="layer1"
     transform="translate(-68.035706,-84.577377)">
    <path
       style="fill:none;stroke:none;stroke-width:0;stroke-linecap:butt;stroke-linejoin:round;stroke-opacity:1;stroke-miterlimit:4;stroke-dasharray:none;paint-order:normal"
       d="m 78.459217,106.27588 0.133635,30.46873 26.459688,15.23436 26.19241,-14.96709 0.26727,-30.736 -26.3344,-15.100726 z"
       id="path830"
       inkscape:connector-curvature="0" />
    <path
       style="fill:none;stroke:none;stroke-width:0;stroke-linecap:butt;stroke-linejoin:round;stroke-opacity:1;stroke-miterlimit:4;stroke-dasharray:none;paint-order:normal"
       d="m 91.846538,113.94374 0.06685,15.28678 13.236382,7.64338 13.10267,-7.50929 0.1337,-15.42087 -13.1737,-7.57634 z"
       id="path830-2"
       inkscape:connector-curvature="0" />
    <path
       style="fill:none;stroke:none;stroke-width:0;stroke-linecap:butt;stroke-linejoin:round;stroke-miterlimit:4;stroke-dasharray:none;stroke-opacity:1;paint-order:normal"
       d="m 78.459217,106.27588 13.387321,7.66786 0.03305,-15.080218 13.332855,7.503878 -0.0346,-15.192246"
       id="path847"
       inkscape:connector-curvature="0"
       sodipodi:nodetypes="ccccc" />
    <path
       style="fill:none;stroke:none;stroke-width:0;stroke-linecap:butt;stroke-linejoin:round;stroke-miterlimit:4;stroke-dasharray:none;stroke-opacity:1;paint-order:normal"
       d="m 105.21244,106.3674 13.09726,-7.500141 0.0764,15.076481 13.12608,-7.66786"
       id="path849"
       inkscape:connector-curvature="0"
       sodipodi:nodetypes="cccc" />
    <path
       style="fill:none;stroke:none;stroke-width:0;stroke-linecap:butt;stroke-linejoin:round;stroke-miterlimit:4;stroke-dasharray:none;stroke-opacity:1;paint-order:normal"
       d="m 91.846538,113.94374 -13.086643,7.66673 13.153493,7.62005 0.02539,15.01113 13.21099,-7.36775 13.0263,7.35188 0.0764,-14.86117 12.98237,-7.65391 -12.8487,-7.76696"
       id="path851"
       inkscape:connector-curvature="0"
       sodipodi:nodetypes="ccccccccc" />
    <path
       style="fill:none;stroke:none;stroke-width:0;stroke-linecap:butt;stroke-linejoin:round;stroke-opacity:1;stroke-miterlimit:4;stroke-dasharray:none;paint-order:normal"
       d="m 131.24495,137.01188 -12.99251,-7.64727"
       id="path853"
       inkscape:connector-curvature="0" />
    <path
       style="fill:none;stroke:none;stroke-width:0;stroke-linecap:butt;stroke-linejoin:round;stroke-opacity:1;stroke-miterlimit:4;stroke-dasharray:none;paint-order:normal"
       d="m 105.14977,136.8739 -0.0972,15.10507"
       id="path855"
       inkscape:connector-curvature="0" />
    <path
       style="fill:none;stroke:none;stroke-width:0;stroke-linecap:butt;stroke-linejoin:round;stroke-opacity:1;stroke-miterlimit:4;stroke-dasharray:none;paint-order:normal"
       d="m 91.913388,129.23052 -13.320536,7.51409"
       id="path857"
       inkscape:connector-curvature="0" />
    <path
       style="opacity:1;fill:none;fill-opacity:1;stroke:none;stroke-width:0;stroke-miterlimit:4;stroke-dasharray:none;stroke-opacity:1;paint-order:normal;stroke-linecap:butt;stroke-linejoin:round"
       d="m 40.519586,168.3685 c -0.137219,-15.05814 -0.203482,-27.42266 -0.14725,-27.4767 0.09149,-0.0879 9.923753,5.56858 39.060372,22.47147 l 9.315275,5.40402 -23.732313,13.3901 c -13.052772,7.36455 -23.848026,13.43497 -23.989454,13.48982 -0.141427,0.0548 -0.36941,-12.22057 -0.50663,-27.27871 z"
       id="path859"
       inkscape:connector-curvature="0"
       transform="matrix(0.26458333,0,0,0.26458333,68.035706,84.577377)" />
    <path
       style="opacity:1;fill:none;fill-opacity:1;stroke:none;stroke-width:0;stroke-miterlimit:4;stroke-dasharray:none;stroke-opacity:1;paint-order:normal;stroke-linecap:butt;stroke-linejoin:round"
       d="m 40.488902,171.7082 c -0.137631,-13.20982 -0.197159,-25.587 -0.132283,-27.50485 l 0.117956,-3.48699 24.077091,13.93313 c 13.242399,7.66322 24.127899,13.98394 24.189995,14.04604 0.116043,0.11604 -47.502351,27.03053 -47.823701,27.03053 -0.09835,0 -0.291426,-10.80804 -0.429058,-24.01786 z"
       id="path861"
       inkscape:connector-curvature="0"
       transform="matrix(0.26458333,0,0,0.26458333,68.035706,84.577377)" />
    <path
       style="opacity:1;fill:none;fill-opacity:1;stroke:none;stroke-width:0;stroke-miterlimit:4;stroke-dasharray:none;stroke-opacity:1;paint-order:normal;stroke-linecap:butt;stroke-linejoin:round"
       d="M 68.51029,155.33314 C 57.019218,148.6566 46.359362,142.46644 44.82172,141.57721 l -2.795713,-1.61677 23.459943,-13.74462 c 12.902968,-7.55955 23.50209,-13.69532 23.5536,-13.63505 0.140379,0.16424 0.622708,54.93416 0.483572,54.91127 -0.06599,-0.0109 -9.521761,-5.48237 -21.012832,-12.1589 z"
       id="path863"
       inkscape:connector-curvature="0"
       transform="matrix(0.26458333,0,0,0.26458333,68.035706,84.577377)" />
    <path
       style="opacity:1;fill:#cc0a0a;fill-opacity:1;stroke:none;stroke-width:0;stroke-linecap:butt;stroke-linejoin:round;stroke-miterlimit:4;stroke-dasharray:none;stroke-opacity:1;paint-order:normal"
       d="m 116.13783,124.45274 c 0.003,-2.22659 0.14013,-13.98168 0.16371,-14.00526 0.0224,-0.0224 11.69101,6.99314 12.14725,7.3033 0.10128,0.0688 -0.73981,0.58483 -6.04697,3.70969 -3.39053,1.99634 -6.18716,3.64128 -6.21472,3.65541 -0.0276,0.0141 -0.0497,-0.28428 -0.0493,-0.66314 z"
       id="path895"
       inkscape:connector-curvature="0" />
    <path
       style="opacity:1;fill:#ec539f;fill-opacity:1;stroke:none;stroke-width:0;stroke-linecap:butt;stroke-linejoin:round;stroke-miterlimit:4;stroke-dasharray:none;stroke-opacity:1;paint-order:normal"
       d="m 122.08526,128.81562 c -3.40597,-2.00378 -6.17221,-3.66414 -6.1472,-3.68968 0.025,-0.0255 2.78165,-1.65898 6.12586,-3.62986 3.34421,-1.97087 6.1484,-3.62718 6.23152,-3.68069 l 0.15114,-0.0973 -0.0425,4.92985 c -0.0234,2.71141 -0.0613,6.02808 -0.0843,7.37037 l -0.0418,2.44053 z"
       id="path897"
       inkscape:connector-curvature="0" />
    <path
       style="opacity:1;fill:#e80c7a;fill-opacity:1;stroke:none;stroke-width:0;stroke-linecap:butt;stroke-linejoin:round;stroke-miterlimit:4;stroke-dasharray:none;stroke-opacity:1;paint-order:normal"
       d="m 115.86014,135.53333 c 0.005,-2.23254 0.0278,-5.47586 0.0501,-7.20739 l 0.0405,-3.14823 6.11379,3.60219 c 3.36259,1.98121 6.15325,3.62566 6.20148,3.65435 0.0571,0.034 -2.08039,1.29099 -6.13046,3.60519 -3.41998,1.95418 -6.23319,3.55304 -6.25159,3.55304 -0.0184,0 -0.0291,-1.82662 -0.0239,-4.05915 z"
       id="path899"
       inkscape:connector-curvature="0" />
    <path
       style="opacity:1;fill:#682547;fill-opacity:1;stroke:none;stroke-width:0;stroke-linecap:butt;stroke-linejoin:round;stroke-miterlimit:4;stroke-dasharray:none;stroke-opacity:1;paint-order:normal"
       d="m 109.69337,135.97975 c -3.42774,-1.92825 -6.24513,-3.51875 -6.26087,-3.53442 -0.0202,-0.0201 12.3604,-7.11578 12.66284,-7.2573 0.049,-0.023 -0.17719,12.16477 -0.22969,13.39137 -9.1e-4,0.59038 0.0368,1.00492 0.0127,1.00364 -0.0241,-0.001 -2.75733,-1.67504 -6.18508,-3.60329 z"
       id="path901"
       inkscape:connector-curvature="0"
       sodipodi:nodetypes="ccccccc" />
    <path
       style="opacity:1;fill:#b5095f;fill-opacity:1;stroke:none;stroke-width:0;stroke-linecap:butt;stroke-linejoin:round;stroke-miterlimit:4;stroke-dasharray:none;stroke-opacity:1;paint-order:normal"
       d="m 103.28242,145.46349 c 0.0156,-0.72659 0.0418,-3.96281 0.0581,-7.1916 0.0164,-3.22879 0.0445,-5.8852 0.0622,-5.90315 0.0353,-0.0226 12.39047,7.0779 12.47627,7.1948 0.009,0.007 -10.1507,5.80754 -12.24239,7.00243 l -0.38264,0.21859 z"
       id="path903"
       inkscape:connector-curvature="0"
       sodipodi:nodetypes="ccccccc" />
    <path
       style="opacity:1;fill:#ff4cff;fill-opacity:1;stroke:none;stroke-width:0;stroke-linecap:butt;stroke-linejoin:round;stroke-miterlimit:4;stroke-dasharray:none;stroke-opacity:1;paint-order:normal"
       d="m 98.739768,144.11796 c -5.099479,-2.9817 -7.419104,-4.35284 -7.70186,-4.55261 l -0.19031,-0.13447 0.324445,-0.18239 c 0.178444,-0.10034 1.999453,-1.13244 4.046688,-2.29363 5.373639,-3.04791 8.095259,-4.57839 8.141649,-4.57839 0.0492,0 0.0373,7.01036 -0.0191,11.30114 l -0.0409,3.10695 z"
       id="path911"
       inkscape:connector-curvature="0" />
    <path
       style="opacity:1;fill:#ff00ff;fill-opacity:1;stroke:none;stroke-width:0;stroke-linecap:butt;stroke-linejoin:round;stroke-miterlimit:4;stroke-dasharray:none;stroke-opacity:1;paint-order:normal"
       d="m 90.850874,132.27726 c 0.01044,-3.98468 0.04072,-7.26719 0.0673,-7.29447 0.0395,-0.0404 7.943142,4.61207 11.559696,6.80478 0.92414,0.5603 0.92941,0.56492 0.74336,0.65193 -0.10306,0.0481 -0.84119,0.47044 -1.64029,0.93836 -3.453247,2.02201 -10.6423,6.14429 -10.715348,6.14429 -0.01854,0 -0.02516,-3.2602 -0.01471,-7.24489 z"
       id="path913"
       inkscape:connector-curvature="0" />
    <path
       style="opacity:1;fill:#7f267f;fill-opacity:1;stroke:none;stroke-width:0;stroke-linecap:butt;stroke-linejoin:round;stroke-miterlimit:4;stroke-dasharray:none;stroke-opacity:1;paint-order:normal"
       d="m 88.859223,138.32967 c -6.275607,-3.62435 -10.293404,-5.97277 -10.429283,-6.09596 -0.05545,-0.0502 2.567431,-1.56677 9.246786,-5.34634 l 3.491467,-1.95107 -0.0826,4.48927 c -0.04509,2.45064 -0.05669,5.86377 -0.06543,7.40227 l -0.03246,2.73109 z"
       id="path915"
       inkscape:connector-curvature="0"
       sodipodi:nodetypes="scccsccs" />
    <path
       style="opacity:1;fill:#cc00cc;fill-opacity:1;stroke:none;stroke-width:0;stroke-linecap:butt;stroke-linejoin:round;stroke-miterlimit:4;stroke-dasharray:none;stroke-opacity:1;paint-order:normal"
       d="m 78.29259,131.44577 c -0.0797,-1.05333 -0.164935,-12.90796 -0.09634,-13.40029 l 0.061,-0.43784 1.051723,0.59644 c 4.432282,2.51359 11.845896,6.79522 11.845896,6.88838 0,0.12697 -0.867173,0.46387 -7.345141,4.11106 -4.951944,2.78802 -5.046871,2.8398 -5.293487,2.88729 -0.150242,0.0289 -0.178905,-0.0537 -0.223649,-0.64504 z"
       id="path3330"
       inkscape:connector-curvature="0"
       sodipodi:nodetypes="ccccssccc" />
    <path
       style="opacity:1;fill:#c253ec;fill-opacity:1;stroke:none;stroke-width:0;stroke-linecap:butt;stroke-linejoin:round;stroke-miterlimit:4;stroke-dasharray:none;stroke-opacity:1;paint-order:normal"
       d="m 90.637888,124.76777 c -0.216861,-0.12421 -2.404194,-1.35892 -4.860742,-2.74381 -6.134668,-3.45841 -7.510171,-4.26498 -7.510171,-4.4038 0,-0.13446 0.748292,-0.57571 7.097256,-4.18509 5.128802,-2.91571 5.68344,-3.21973 5.751968,-3.15288 0.07759,0.0757 0.12639,14.3649 0.05199,14.65411 -0.08044,0.31271 0.177092,0.27303 -0.319465,-0.0115 z"
       id="path3332"
       inkscape:connector-curvature="0"
       sodipodi:nodetypes="ccsccccc" />
    <path
       style="opacity:1;fill:#ac0ce8;fill-opacity:1;stroke:none;stroke-width:0;stroke-linecap:butt;stroke-linejoin:round;stroke-miterlimit:4;stroke-dasharray:none;stroke-opacity:1;paint-order:normal"
       d="m 78.195342,115.69746 c -0.03595,-1.0506 -0.0517,-4.36617 -0.03503,-7.36793 l 0.03033,-5.45776 2.685053,1.47661 c 6.521169,3.58622 10.349661,5.73397 10.349661,5.80607 0,0.0428 -0.387885,0.31007 -0.861965,0.59388 -1.243082,0.74417 -11.218165,6.42297 -11.698349,6.65985 l -0.404344,0.19946 z"
       id="path3334"
       inkscape:connector-curvature="0" />
    <path
       style="opacity:1;fill:#562568;fill-opacity:1;stroke:none;stroke-width:0;stroke-linecap:butt;stroke-linejoin:round;stroke-miterlimit:4;stroke-dasharray:none;stroke-opacity:1;paint-order:normal"
       d="m 88.379103,108.79143 c -6.469659,-3.57113 -9.794793,-5.44103 -10.001952,-5.62457 -0.206481,-0.18296 -0.209763,-0.20359 -0.0494,-0.31048 0.254219,-0.16942 3.04312,-1.70467 8.347123,-4.594943 l 4.717495,-2.570671 -6.91e-4,6.676844 c -6.92e-4,6.24942 -0.04096,7.96908 -0.186476,7.95611 -0.0329,-0.003 -1.304647,-0.69247 -2.826101,-1.53229 z"
       id="path3336"
       inkscape:connector-curvature="0" />
    <path
       style="opacity:1;fill:#8609b5;fill-opacity:1;stroke:none;stroke-width:0;stroke-linecap:butt;stroke-linejoin:round;stroke-miterlimit:4;stroke-dasharray:none;stroke-opacity:1;paint-order:normal"
       d="m 91.218444,110.23088 c -0.08313,-0.082 -0.08376,-14.205605 -6.17e-4,-14.205605 0.108378,0 1.695136,0.863135 6.675581,3.631255 5.790862,3.21855 6.103272,3.39543 6.104392,3.45629 5.3e-4,0.0263 -0.31183,0.23377 -0.69403,0.46115 -1.0271,0.61102 -11.93923,6.71991 -12.003579,6.71991 -0.0098,0 -0.04659,-0.0284 -0.08174,-0.063 z"
       id="path3338"
       inkscape:connector-curvature="0" />
    <path
       style="opacity:1;fill:#a559ff;fill-opacity:1;stroke:none;stroke-width:0;stroke-linecap:butt;stroke-linejoin:round;stroke-miterlimit:4;stroke-dasharray:none;stroke-opacity:1;paint-order:normal"
       d="m 97.5564,99.656456 c -3.481175,-1.960593 -6.341638,-3.601399 -6.356584,-3.646236 -0.01494,-0.04484 0.913436,-0.625528 2.06307,-1.290424 2.588971,-1.497344 9.965804,-5.642923 10.307134,-5.792327 l 0.25117,-0.109942 0.0611,0.962581 c 0.0336,0.529419 0.0481,3.770239 0.0323,7.201821 l -0.0288,6.239241 z"
       id="path3340"
       inkscape:connector-curvature="0" />
    <path
       style="opacity:1;fill:#7b0dff;fill-opacity:1;stroke:none;stroke-width:0;stroke-linecap:butt;stroke-linejoin:round;stroke-miterlimit:4;stroke-dasharray:none;stroke-opacity:1;paint-order:normal"
       d="m 103.82499,96.008053 c -0.03,-3.958347 -0.0327,-7.197171 -0.005,-7.197394 0.16907,-0.0014 12.43706,6.948595 12.43569,7.044973 -3.1e-4,0.02726 -2.58399,1.573138 -5.74133,3.43529 -3.15734,1.862138 -5.94158,3.504618 -6.18719,3.649938 l -0.44657,0.26419 z"
       id="path3342"
       inkscape:connector-curvature="0" />
    <path
       style="opacity:1;fill:#522d7f;fill-opacity:1;stroke:none;stroke-width:0;stroke-linecap:butt;stroke-linejoin:round;stroke-miterlimit:4;stroke-dasharray:none;stroke-opacity:1;paint-order:normal"
       d="m 114.05706,109.05263 c -1.22943,-0.72084 -2.59916,-1.50841 -3.04386,-1.75011 -0.87068,-0.47326 -3.58958,-2.05879 -5.77859,-3.36979 -0.7455,-0.4465 -1.35547,-0.85229 -1.35547,-0.90176 0,-0.1127 0.51738,-0.4222 6.08774,-3.641737 4.92754,-2.848021 6.17495,-3.548169 6.22505,-3.494013 0.14652,0.158388 0.32824,14.47863 0.18362,14.47194 -0.0457,-0.002 -1.08906,-0.59365 -2.31849,-1.31453 z"
       id="path3344"
       inkscape:connector-curvature="0" />
    <path
       style="opacity:1;fill:#522d7f;fill-opacity:1;stroke:none;stroke-width:0;stroke-linecap:butt;stroke-linejoin:round;stroke-miterlimit:4;stroke-dasharray:none;stroke-opacity:1;paint-order:normal"
       d="m 116.12608,108.68353 c -0.0342,-0.86484 -0.0624,-4.11861 -0.0624,-7.23061 0,-4.488562 0.0246,-5.648494 0.11891,-5.611379 0.37058,0.145822 12.38738,7.045779 12.41524,7.128749 0.0185,0.055 -0.86981,0.63403 -1.97396,1.28675 -2.34521,1.38636 -10.33868,5.99893 -10.39602,5.99893 -0.0216,0 -0.0674,-0.7076 -0.10161,-1.57244 z"
       id="path3348"
       inkscape:connector-curvature="0" />
    <path
       style="opacity:1;fill:#7f2d2d;fill-opacity:1;stroke:none;stroke-width:0;stroke-linecap:butt;stroke-linejoin:round;stroke-miterlimit:4;stroke-dasharray:none;stroke-opacity:1;paint-order:normal"
       d="m 126.23552,116.43671 c -1.83806,-1.10609 -9.54372,-5.74593 -9.91733,-5.98766 -0.0779,-0.0504 -0.0346,-0.18266 0.12941,-0.31581 0.42661,-0.34614 11.44566,-6.88494 11.89311,-7.05749 l 0.24767,-0.0954 -0.0112,6.13061 c -0.006,3.37183 -0.0378,6.69899 -0.0706,7.3937 l -0.0595,1.2631 z"
       id="path3350"
       inkscape:connector-curvature="0"
       sodipodi:nodetypes="ccccccccc" />
  </g>
</svg>
