<?xml version="1.0" encoding="UTF-8" standalone="no"?>
<!-- Created with Inkscape (http://www.inkscape.org/) -->

<svg
   xmlns:dc="http://purl.org/dc/elements/1.1/"
   xmlns:cc="http://creativecommons.org/ns#"
   xmlns:rdf="http://www.w3.org/1999/02/22-rdf-syntax-ns#"
   xmlns:svg="http://www.w3.org/2000/svg"
   xmlns="http://www.w3.org/2000/svg"
   xmlns:sodipodi="http://sodipodi.sourceforge.net/DTD/sodipodi-0.dtd"
   xmlns:inkscape="http://www.inkscape.org/namespaces/inkscape"
   width="175.00117mm"
   height="175.00117mm"
   viewBox="0 0 175.00117 175.00117"
   version="1.1"
   id="svg8"
   inkscape:version="0.92.3 (2405546, 2018-03-11)"
   sodipodi:docname="collectionicon.svg">
  <defs
     id="defs2" />
  <sodipodi:namedview
     id="base"
     pagecolor="#ffffff"
     bordercolor="#666666"
     borderopacity="1.0"
     inkscape:pageopacity="0.0"
     inkscape:pageshadow="2"
     inkscape:zoom="0.7"
     inkscape:cx="-8.0326639"
     inkscape:cy="282.75143"
     inkscape:document-units="mm"
     inkscape:current-layer="layer1"
     showgrid="false"
     inkscape:window-width="2560"
     inkscape:window-height="1017"
     inkscape:window-x="-8"
     inkscape:window-y="-8"
     inkscape:window-maximized="1" />
  <metadata
     id="metadata5">
    <rdf:RDF>
      <cc:Work
         rdf:about="">
        <dc:format>image/svg+xml</dc:format>
        <dc:type
           rdf:resource="http://purl.org/dc/dcmitype/StillImage" />
        <dc:title />
      </cc:Work>
    </rdf:RDF>
  </metadata>
  <g
     inkscape:label="Capa 1"
     inkscape:groupmode="layer"
     id="layer1"
     transform="translate(-24.758336,-54.151204)">
    <circle
       style="opacity:0.68900003;fill:#c03a2b;fill-opacity:1;fill-rule:evenodd;stroke:#f5f5f5;stroke-width:3.4000001;stroke-linecap:round;stroke-linejoin:round;stroke-miterlimit:4;stroke-dasharray:none;stroke-opacity:1;paint-order:normal"
       id="path870"
       cx="112.25893"
       cy="141.65179"
       r="85.800591" />
    <g
       id="Page-1"
       transform="matrix(1.6481396,0,0,1.6481396,69.407297,93.855746)"
       style="fill:none;fill-rule:evenodd">
      <g
         id="039---Tickets"
         style="fill-rule:nonzero">
        <path
           d="M 20,48 H 3.87 C 3.4001821,47.98517 2.9985869,47.657338 2.89,47.2 2.6061962,46.186109 1.8138908,45.393804 0.8,45.11 0.34266242,45.001413 0.01482957,44.599818 0,44.13 V 3.87 C 0.01482957,3.4001821 0.34266242,2.9985869 0.8,2.89 1.8138908,2.6061962 2.6061962,1.8138908 2.89,0.8 2.9985869,0.34266242 3.4001821,0.01482957 3.87,0 h 24.26 c 0.469818,0.01482957 0.871413,0.34266242 0.98,0.8 0.283804,1.0138908 1.076109,1.8061962 2.09,2.09 0.457338,0.1085869 0.78517,0.5101821 0.8,0.98 V 10 Z"
           id="Shape"
           inkscape:connector-curvature="0"
           style="fill:#285680" />
        <path
           d="M 28,24 C 27.9917,28.027729 25.967456,31.783826 22.607848,34.00547 19.24824,36.227114 14.99947,36.619235 11.29,35.05 10.672273,34.781328 10.077039,34.463647 9.51,34.1 6.0791468,31.893032 4.0037997,28.094844 3.9997567,24.015451 3.9957137,19.936058 6.0635281,16.133764 9.49,13.92 c 0.559082,-0.371174 1.151664,-0.689227 1.77,-0.95 3.709121,-1.588685 7.968111,-1.208783 11.33749,1.011303 C 25.966869,16.20139 27.996351,19.964968 28,24 Z"
           id="path816"
           inkscape:connector-curvature="0"
           style="fill:#f9eab0" />
        <ellipse
           ry="12"
           rx="10"
           cy="24"
           cx="16"
           id="Oval"
           style="fill:#f5efca" />
        <path
           d="m 52,13.87 v 40.26 c -0.01483,0.469818 -0.342662,0.871413 -0.8,0.98 -1.013891,0.283804 -1.806196,1.076109 -2.09,2.09 -0.108587,0.457338 -0.510182,0.78517 -0.98,0.8 H 23.87 C 23.400182,57.98517 22.998587,57.657338 22.89,57.2 22.606196,56.186109 21.813891,55.393804 20.8,55.11 20.342662,55.001413 20.01483,54.599818 20,54.13 V 13.87 c 0.01483,-0.469818 0.342662,-0.871413 0.8,-0.98 1.013891,-0.283804 1.806196,-1.076109 2.09,-2.09 0.108587,-0.457338 0.510182,-0.78517 0.98,-0.8 h 24.26 c 0.469818,0.01483 0.871413,0.342662 0.98,0.8 0.283804,1.013891 1.076109,1.806196 2.09,2.09 0.457338,0.108587 0.78517,0.510182 0.8,0.98 z"
           id="path819"
           inkscape:connector-curvature="0"
           style="fill:#f29c1f" />
        <path
           d="m 15.46,26.7 c -0.04148,0.517 -0.471351,0.916475 -0.99,0.92 -0.03,0 -0.06,-0.01 -0.09,-0.01 l -1.07,-0.09 c -0.13,1 -0.31,2 -0.54,2.99 l 1.04,0.28 c 0.474433,0.138032 0.776934,0.601874 0.711959,1.091688 -0.06498,0.489815 -0.477947,0.858748 -0.971959,0.868312 -0.08756,4.79e-4 -0.174853,-0.0096 -0.26,-0.03 l -1.05,-0.29 c -0.28,0.88 -0.59,1.76 -0.95,2.62 -0.617728,-0.268672 -1.212961,-0.586353 -1.78,-0.95 0.3,-0.72 0.57,-1.45 0.8,-2.19 L 9.32,31.64 C 9.0621125,31.572049 8.8420511,31.403902 8.7087262,31.17293 8.5754013,30.941959 8.5398594,30.667301 8.61,30.41 8.7611077,29.880758 9.3078104,29.569626 9.84,29.71 l 1,0.27 c 0.201906,-0.871343 0.358781,-1.752512 0.47,-2.64 L 10.28,27.25 C 9.7308543,27.20233 9.3238377,26.719275 9.37,26.17 9.427904,25.62205 9.9105162,25.219135 10.46,25.26 l 1.03,0.09 c 0.04167,-0.8896 0.03833,-1.780737 -0.01,-2.67 l -1.02,0.09 c -0.02925,0.0082 -0.05966,0.01163 -0.09,0.01 C 9.8177153,22.80485 9.3498529,22.377285 9.325,21.825 9.300147,21.272715 9.7277153,20.804853 10.28,20.78 l 1.03,-0.09 C 11.19,19.81 11.03,18.93 10.82,18.05 L 9.84,18.32 C 9.756035,18.34717 9.6682495,18.36068 9.58,18.36 9.0716957,18.3689 8.637609,17.99501 8.5710897,17.490998 8.5045704,16.986987 8.8267913,16.513279 9.32,16.39 l 0.97,-0.26 c -0.23,-0.74 -0.5,-1.48 -0.8,-2.21 0.559082,-0.371174 1.151664,-0.689227 1.77,-0.95 0.367607,0.859697 0.691356,1.737492 0.97,2.63 l 1.06,-0.29 c 0.524886,-0.122287 1.052262,0.193379 1.19247,0.713765 C 14.622677,16.54415 14.325274,17.082037 13.81,17.24 l -1.06,0.29 c 0.237279,0.982616 0.420884,1.977421 0.55,2.98 l 1.08,-0.09 c 0.366292,-0.05075 0.730692,0.104776 0.947448,0.40438 0.216755,0.299603 0.250479,0.694369 0.08768,1.026397 C 15.252333,22.182805 14.919593,22.397889 14.55,22.41 l -1.07,0.1 c 0.05,1 0.05,2.01 0,3.02 l 1.07,0.09 c 0.549146,0.04767 0.956162,0.530725 0.91,1.08 z"
           id="path821"
           inkscape:connector-curvature="0"
           style="fill:#c03a2b" />
        <path
           d="m 41.05,35.48 c -0.062,0.047 -3.485,3.485 -3.54,3.54 -1.5,-1.019 -1.822,-1.109 -1.89,-1.21 -4.58,-2.545 -4.141,-2.51 -12.25,-10.61 -0.488986,-0.504256 -0.488986,-1.305744 0,-1.81 l 4.02,-4.02 c 0.504256,-0.488986 1.305744,-0.488986 1.81,0 l 6.79,6.79 c 3.01,3.201 3.444,5.333 5.06,7.32 z"
           id="path823"
           inkscape:connector-curvature="0"
           style="fill:#f3d55b" />
        <path
           d="m 45.77,40.86 -2.92,2.92 c -1.618896,-1.758656 -3.407583,-3.353067 -5.34,-4.76 0.055,-0.055 3.478,-3.493 3.54,-3.54 1.420586,1.921792 2.999422,3.721398 4.72,5.38 z"
           id="path825"
           inkscape:connector-curvature="0"
           style="fill:#d25627" />
        <path
           d="m 48.69,43.77 -2.97,2.96 c -0.179332,0.182249 -0.424315,0.284884 -0.68,0.284884 -0.255685,0 -0.500668,-0.102635 -0.68,-0.284884 l -1.55,-1.55 c -0.182249,-0.179332 -0.284884,-0.424315 -0.284884,-0.68 0,-0.255685 0.102635,-0.500668 0.284884,-0.68 l 0.04,-0.04 2.92,-2.92 v -0.01 c 0.381679,-0.370105 0.988321,-0.370105 1.37,0 l 1.55,1.55 c 0.370105,0.381679 0.370105,0.988321 0,1.37 z"
           id="path827"
           inkscape:connector-curvature="0"
           style="fill:#f3d55b" />
        <path
           d="m 35.99,38.05 c -2.545881,1.580453 -4.858269,3.509126 -6.87,5.73 L 26.2,40.86 c 1.86771,-1.79584 3.564968,-3.76091 5.07,-5.87 1.382929,1.058536 2.84374,2.011239 4.37,2.85 0.12,0.07 0.24,0.14 0.35,0.21 z"
           id="path829"
           inkscape:connector-curvature="0"
           style="fill:#d25627" />
        <g
           id="g841"
           style="fill:#f0c419">
          <path
             d="m 48.6,27.2 c -6.061,6.052 -7.466,7.5 -7.9,7.79 -1.9,-2.731 -2,-3.948 -4.71,-6.83 l 6.78,-6.79 c 0.504256,-0.488986 1.305744,-0.488986 1.81,0 l 4.02,4.02 c 0.488986,0.504256 0.488986,1.305744 0,1.81 z"
             id="path831"
             inkscape:connector-curvature="0" />
          <path
             d="m 29.16,45.18 -1.55,1.55 c -0.179332,0.182249 -0.424315,0.284884 -0.68,0.284884 -0.255685,0 -0.500668,-0.102635 -0.68,-0.284884 l -2.97,-2.96 c -0.370105,-0.381679 -0.370105,-0.988321 0,-1.37 l 1.55,-1.55 c 0.381679,-0.370105 0.988321,-0.370105 1.37,0 v 0.01 l 2.92,2.92 0.04,0.04 c 0.182249,0.179332 0.284884,0.424315 0.284884,0.68 0,0.255685 -0.102635,0.500668 -0.284884,0.68 z"
             id="path833"
             inkscape:connector-curvature="0" />
          <path
             d="m 33,17 h -8 c -0.552285,0 -1,-0.447715 -1,-1 0,-0.552285 0.447715,-1 1,-1 h 8 c 0.552285,0 1,0.447715 1,1 0,0.552285 -0.447715,1 -1,1 z"
             id="path835"
             inkscape:connector-curvature="0" />
          <path
             d="M 47,53 H 35 c -0.552285,0 -1,-0.447715 -1,-1 0,-0.552285 0.447715,-1 1,-1 h 12 c 0.552285,0 1,0.447715 1,1 0,0.552285 -0.447715,1 -1,1 z"
             id="path837"
             inkscape:connector-curvature="0" />
          <path
             d="m 39,17 h -2 c -0.552285,0 -1,-0.447715 -1,-1 0,-0.552285 0.447715,-1 1,-1 h 2 c 0.552285,0 1,0.447715 1,1 0,0.552285 -0.447715,1 -1,1 z"
             id="path839"
             inkscape:connector-curvature="0" />
        </g>
      </g>
    </g>
  </g>
</svg>
