<?xml version="1.0" encoding="UTF-8" standalone="no"?>
<!-- Created with Inkscape (http://www.inkscape.org/) -->

<svg
   xmlns:dc="http://purl.org/dc/elements/1.1/"
   xmlns:cc="http://creativecommons.org/ns#"
   xmlns:rdf="http://www.w3.org/1999/02/22-rdf-syntax-ns#"
   xmlns:svg="http://www.w3.org/2000/svg"
   xmlns="http://www.w3.org/2000/svg"
   xmlns:sodipodi="http://sodipodi.sourceforge.net/DTD/sodipodi-0.dtd"
   xmlns:inkscape="http://www.inkscape.org/namespaces/inkscape"
   width="135.46666mm"
   height="126.60418mm"
   viewBox="0 0 135.46666 126.60418"
   version="1.1"
   id="svg878"
   inkscape:version="0.92.3 (2405546, 2018-03-11)"
   sodipodi:docname="cromodesbloqueado.svg">
  <defs
     id="defs872" />
  <sodipodi:namedview
     id="base"
     pagecolor="#ffffff"
     bordercolor="#666666"
     borderopacity="1.0"
     inkscape:pageopacity="0.0"
     inkscape:pageshadow="2"
     inkscape:zoom="0.35"
     inkscape:cx="463.42857"
     inkscape:cy="71.640836"
     inkscape:document-units="mm"
     inkscape:current-layer="layer1"
     showgrid="false"
     inkscape:window-width="1280"
     inkscape:window-height="1017"
     inkscape:window-x="1272"
     inkscape:window-y="-8"
     inkscape:window-maximized="0" />
  <metadata
     id="metadata875">
    <rdf:RDF>
      <cc:Work
         rdf:about="">
        <dc:format>image/svg+xml</dc:format>
        <dc:type
           rdf:resource="http://purl.org/dc/dcmitype/StillImage" />
        <dc:title></dc:title>
      </cc:Work>
    </rdf:RDF>
  </metadata>
  <g
     inkscape:label="Capa 1"
     inkscape:groupmode="layer"
     id="layer1"
     transform="translate(-57.301192,-144.7496)">
    <g
       id="g1970"
       transform="matrix(0.26458333,0,0,0.26458333,57.301192,140.31836)">
      <path
         id="path1786"
         d="M 502.728,258.218 V 432.35 c 0,25.991 -21.067,47.059 -47.059,47.059 H 56.33 C 30.339,479.409 9.271,458.342 9.271,432.35 V 258.218 Z"
         style="fill:#0086f4"
         inkscape:connector-curvature="0" />
      <path
         id="path1788"
         d="M 502.728,63.807 V 254.885 H 9.272 V 63.807 c 0,-25.992 21.067,-47.059 47.059,-47.059 h 399.34 c 25.99,0 47.057,21.067 47.057,47.059 z"
         style="fill:#ffdc13"
         inkscape:connector-curvature="0" />
      <path
         id="path1790"
         d="m 497.753,221.744 v 33.141 H 14.247 v -55.001 c 0,-10.796 8.777,-19.573 19.573,-19.573 h 34.645 v -34.305 c 0,-10.796 8.777,-19.573 19.573,-19.573 h 162.8 l 29.7,-26.857 c 3.637,-3.276 8.282,-5.058 13.124,-5.058 h 79.612 c 10.796,0 19.573,8.777 19.573,19.573 v 41.877 h 45.596 c 10.796,0 19.573,8.777 19.573,19.573 v 26.63 h 20.16 c 10.799,-0.001 19.577,8.776 19.577,19.573 z"
         style="fill:#ffa511"
         inkscape:connector-curvature="0" />
      <path
         id="path1792"
         d="M 472.596,71.139 V 254.884 H 39.404 V 71.139 c 0,-13.969 11.363,-25.332 25.342,-25.332 h 382.506 c 13.981,0 25.344,11.363 25.344,25.332 z"
         style="fill:#0064db"
         inkscape:connector-curvature="0" />
      <g
         id="g1798">
	<path
   id="path1794"
   d="m 472.596,71.135 v 13.3 c 0,-13.969 -11.363,-25.332 -25.343,-25.332 H 64.747 c -13.98,0 -25.342,11.363 -25.342,25.332 v -13.3 c 0,-13.969 11.363,-25.332 25.342,-25.332 h 382.506 c 13.98,0 25.343,11.363 25.343,25.332 z"
   style="fill:#0043c9"
   inkscape:connector-curvature="0" />

	<path
   id="path1796"
   d="m 472.596,202.17 v 52.714 H 39.404 V 180.31 h 29.061 v -34.305 c 0,-10.796 8.777,-19.573 19.573,-19.573 h 64.768 c 4.059,-16.153 18.698,-28.155 36.097,-28.155 17.399,0 32.039,12.002 36.097,28.155 h 25.837 l 29.7,-26.857 c 3.637,-3.276 8.282,-5.058 13.124,-5.058 h 79.612 c 10.796,0 19.573,8.777 19.573,19.573 v 25.239 l 16.637,16.637 h 28.958 c 10.796,0 19.573,8.777 19.573,19.573 v 26.63 h 14.582 z"
   style="fill:#0043c9"
   inkscape:connector-curvature="0" />

</g>
      <path
         id="path1800"
         d="m 484.36,221.744 v 33.141 H 27.64 v -55.001 c 0,-3.41 2.771,-6.181 6.181,-6.181 h 41.856 c 3.42,0 6.181,-2.761 6.181,-6.181 v -41.516 c 0,-3.41 2.771,-6.181 6.181,-6.181 H 256 l 33.522,-30.318 c 1.133,-1.02 2.606,-1.597 4.141,-1.597 h 79.612 c 3.41,0 6.181,2.771 6.181,6.181 v 49.088 c 0,3.41 2.771,6.181 6.181,6.181 h 52.807 c 3.41,0 6.181,2.761 6.181,6.181 v 33.841 c 0,3.42 2.761,6.181 6.181,6.181 h 27.372 c 3.411,0 6.182,2.771 6.182,6.181 z"
         style="fill:#ffdc13"
         inkscape:connector-curvature="0" />
      <path
         id="path1802"
         d="m 484.36,228.976 v 25.909 H 27.64 v -25.909 h 184.413 c 2.153,-1.72 4.862,-2.751 7.829,-2.751 h 72.236 c 2.967,0 5.676,1.03 7.829,2.751 z"
         style="fill:#ffa511"
         inkscape:connector-curvature="0" />
      <path
         id="path1804"
         d="m 379.457,114.09 v 12.908 c 0,-3.41 -2.771,-6.181 -6.181,-6.181 h -73.431 c -1.535,0 -3.008,0.567 -4.141,1.597 l -33.522,30.318 H 88.039 c -3.41,0 -6.181,2.761 -6.181,6.181 v -12.908 c 0,-3.41 2.771,-6.181 6.181,-6.181 H 256 l 33.522,-30.318 c 1.133,-1.02 2.606,-1.597 4.141,-1.597 h 79.612 c 3.411,0 6.182,2.771 6.182,6.181 z"
         style="fill:#ffed97"
         inkscape:connector-curvature="0" />
      <path
         id="path1806"
         d="m 169.465,250.824 h -38.117 v -51.178 c 0,-3.28 2.659,-5.938 5.938,-5.938 h 26.24 c 3.28,0 5.938,2.659 5.938,5.938 z"
         style="fill:#e94141"
         inkscape:connector-curvature="0" />
      <rect
         id="rect1808"
         height="21.85"
         width="38.119999"
         style="fill:#c62525"
         y="228.98"
         x="131.35001" />
      <g
         id="g1816">
	<path
   id="path1810"
   d="M 304.676,258.218 V 368.73 c 0,7.445 -6.035,13.48 -13.48,13.48 h -70.392 c -7.445,0 -13.48,-6.035 -13.48,-13.48 V 258.218 Z"
   style="fill:#0064db"
   inkscape:connector-curvature="0" />

	<polygon
   id="polygon1812"
   points="364.509,479.408 364.509,295.356 147.491,295.356 147.491,479.408 77.439,479.408 77.439,295.356 9.272,295.356 9.272,258.218 502.728,258.218 502.728,295.356 434.561,295.356 434.561,479.408 "
   style="fill:#0064db" />

	<path
   id="path1814"
   d="m 502.728,398.642 v 33.708 c 0,25.991 -21.067,47.059 -47.059,47.059 H 56.33 c -25.991,0 -47.059,-21.067 -47.059,-47.059 v -33.708 c 0,25.991 21.067,47.059 47.059,47.059 h 399.34 c 25.991,-0.001 47.058,-21.068 47.058,-47.059 z"
   style="fill:#0064db"
   inkscape:connector-curvature="0" />

</g>
      <path
         id="path1818"
         d="m 421.169,271.507 v 217.564 c 0,3.414 -2.767,6.181 -6.181,6.181 h -30.905 c -3.414,0 -6.181,-2.767 -6.181,-6.181 V 271.507 Z"
         style="fill:#ffa511"
         inkscape:connector-curvature="0" />
      <rect
         id="rect1820"
         height="23.849001"
         width="43.27"
         style="fill:#eb6b24"
         y="271.51001"
         x="377.89999" />
      <path
         id="path1822"
         d="m 134.099,271.507 v 217.564 c 0,3.414 -2.767,6.181 -6.181,6.181 H 97.012 c -3.414,0 -6.181,-2.767 -6.181,-6.181 V 271.507 Z"
         style="fill:#ffa511"
         inkscape:connector-curvature="0" />
      <rect
         id="rect1824"
         height="23.849001"
         width="43.27"
         style="fill:#eb6b24"
         y="271.51001"
         x="90.830002" />
      <path
         id="path1826"
         d="m 512,248.544 v 27.238 c 0,3.414 -2.767,6.181 -6.181,6.181 H 6.181 C 2.767,281.963 0,279.196 0,275.782 v -27.238 c 0,-3.414 2.767,-6.181 6.181,-6.181 h 499.638 c 3.414,0 6.181,2.767 6.181,6.181 z"
         style="fill:#ffdc13"
         inkscape:connector-curvature="0" />
      <rect
         id="rect1828"
         height="39.599998"
         width="97.349998"
         style="fill:#ffa511"
         y="242.36"
         x="207.32001" />
      <g
         id="g1842">
	<path
   id="path1830"
   d="m 169.465,433.223 c -4.267,0 -7.726,-3.459 -7.726,-7.726 v -0.966 c 0,-4.268 3.459,-7.726 7.726,-7.726 4.267,0 7.726,3.459 7.726,7.726 v 0.966 c 0,4.267 -3.459,7.726 -7.726,7.726 z"
   style="fill:#ffdc13"
   inkscape:connector-curvature="0" />

	<path
   id="path1832"
   d="m 212.732,433.223 c -4.267,0 -7.726,-3.459 -7.726,-7.726 v -0.966 c 0,-4.268 3.459,-7.726 7.726,-7.726 4.267,0 7.726,3.459 7.726,7.726 v 0.966 c 0.001,4.267 -3.459,7.726 -7.726,7.726 z"
   style="fill:#ffdc13"
   inkscape:connector-curvature="0" />

	<path
   id="path1834"
   d="m 256,433.223 c -4.267,0 -7.726,-3.459 -7.726,-7.726 v -0.966 c 0,-4.268 3.459,-7.726 7.726,-7.726 4.267,0 7.726,3.459 7.726,7.726 v 0.966 c 0,4.267 -3.459,7.726 -7.726,7.726 z"
   style="fill:#ffdc13"
   inkscape:connector-curvature="0" />

	<path
   id="path1836"
   d="m 299.268,433.223 c -4.267,0 -7.726,-3.459 -7.726,-7.726 v -0.966 c 0,-4.268 3.459,-7.726 7.726,-7.726 4.267,0 7.726,3.459 7.726,7.726 v 0.966 c 0,4.267 -3.459,7.726 -7.726,7.726 z"
   style="fill:#ffdc13"
   inkscape:connector-curvature="0" />

	<path
   id="path1838"
   d="m 342.535,433.223 c -4.267,0 -7.726,-3.459 -7.726,-7.726 v -0.966 c 0,-4.268 3.459,-7.726 7.726,-7.726 4.267,0 7.726,3.459 7.726,7.726 v 0.966 c 10e-4,4.267 -3.459,7.726 -7.726,7.726 z"
   style="fill:#ffdc13"
   inkscape:connector-curvature="0" />

	<path
   id="path1840"
   d="m 285.103,368.817 h -58.205 c -3.414,0 -6.181,-2.767 -6.181,-6.181 V 245.794 c 0,-3.414 2.767,-6.181 6.181,-6.181 h 58.205 c 3.414,0 6.181,2.767 6.181,6.181 v 116.842 c 0,3.414 -2.768,6.181 -6.181,6.181 z"
   style="fill:#ffdc13"
   inkscape:connector-curvature="0" />

</g>
      <path
         id="path1844"
         d="m 269.864,324.465 c 0,-7.657 -6.207,-13.864 -13.864,-13.864 -7.657,0 -13.864,6.207 -13.864,13.864 0,4.796 2.436,9.022 6.138,11.512 v 10.436 c 0,4.268 3.459,7.726 7.726,7.726 4.267,0 7.726,-3.459 7.726,-7.726 v -10.436 c 3.702,-2.49 6.138,-6.716 6.138,-11.512 z"
         style="fill:#0064db"
         inkscape:connector-curvature="0" />
      <circle
         id="circle1846"
         r="23.827999"
         cy="135.49001"
         cx="188.89999"
         style="fill:#f288e8" />
      <circle
         id="circle1848"
         r="19.528999"
         cy="187.3"
         cx="266.64001"
         style="fill:#00f0f5" />
      <path
         id="path1850"
         d="m 373.702,196.667 -20.375,-20.375 c -2.319,-2.319 -2.319,-6.079 0,-8.398 l 20.375,-20.375 c 2.319,-2.319 6.079,-2.319 8.398,0 l 20.375,20.375 c 2.319,2.319 2.319,6.079 0,8.398 L 382.1,196.667 c -2.319,2.319 -6.079,2.319 -8.398,0 z"
         style="fill:#52ea28"
         inkscape:connector-curvature="0" />
      <g
         id="g1856">
	<path
   id="path1852"
   d="m 315.235,146.004 h -7.984 c -4.267,0 -7.726,-3.459 -7.726,-7.726 0,-4.268 3.459,-7.726 7.726,-7.726 h 7.984 c 4.267,0 7.726,3.459 7.726,7.726 10e-4,4.268 -3.459,7.726 -7.726,7.726 z"
   style="fill:#ffed97"
   inkscape:connector-curvature="0" />

	<path
   id="path1854"
   d="m 323.219,171.355 h -7.984 c -4.267,0 -7.726,-3.459 -7.726,-7.726 0,-4.268 3.459,-7.726 7.726,-7.726 h 7.984 c 4.267,0 7.726,3.459 7.726,7.726 0.001,4.268 -3.459,7.726 -7.726,7.726 z"
   style="fill:#ffed97"
   inkscape:connector-curvature="0" />

</g>
      <g
         id="g1862">
	<path
   id="path1858"
   d="m 224.708,202.029 h -7.984 c -4.267,0 -7.726,-3.459 -7.726,-7.726 0,-4.268 3.459,-7.726 7.726,-7.726 h 7.984 c 4.267,0 7.726,3.459 7.726,7.726 0.001,4.268 -3.459,7.726 -7.726,7.726 z"
   style="fill:#ffa511"
   inkscape:connector-curvature="0" />

	<path
   id="path1860"
   d="m 144.354,171.372 h -7.984 c -4.267,0 -7.726,-3.459 -7.726,-7.726 0,-4.268 3.459,-7.726 7.726,-7.726 h 7.984 c 4.267,0 7.726,3.459 7.726,7.726 0,4.268 -3.459,7.726 -7.726,7.726 z"
   style="fill:#ffa511"
   inkscape:connector-curvature="0" />

</g>
      <path
         id="path1864"
         d="m 116.453,185.666 h -7.984 c -4.267,0 -7.726,-3.459 -7.726,-7.726 0,-4.268 3.459,-7.726 7.726,-7.726 h 7.984 c 4.267,0 7.726,3.459 7.726,7.726 0.001,4.268 -3.459,7.726 -7.726,7.726 z"
         style="fill:#ffed97"
         inkscape:connector-curvature="0" />
      <g
         id="g1872">
	<path
   id="path1866"
   d="m 342.535,219.662 h -7.984 c -4.267,0 -7.726,-3.459 -7.726,-7.726 0,-4.268 3.459,-7.726 7.726,-7.726 h 7.984 c 4.267,0 7.726,3.459 7.726,7.726 10e-4,4.267 -3.459,7.726 -7.726,7.726 z"
   style="fill:#ffa511"
   inkscape:connector-curvature="0" />

	<path
   id="path1868"
   d="m 414.659,214.551 h -7.984 c -4.267,0 -7.726,-3.459 -7.726,-7.726 0,-4.267 3.459,-7.726 7.726,-7.726 h 7.984 c 4.267,0 7.726,3.459 7.726,7.726 0,4.267 -3.459,7.726 -7.726,7.726 z"
   style="fill:#ffa511"
   inkscape:connector-curvature="0" />

	<path
   id="path1870"
   d="m 98.811,223.294 h -7.984 c -4.267,0 -7.726,-3.459 -7.726,-7.726 0,-4.268 3.459,-7.726 7.726,-7.726 h 7.984 c 4.267,0 7.726,3.459 7.726,7.726 10e-4,4.267 -3.459,7.726 -7.726,7.726 z"
   style="fill:#ffa511"
   inkscape:connector-curvature="0" />

</g>
      <g
         id="g1874">
</g>
      <g
         id="g1876">
</g>
      <g
         id="g1878">
</g>
      <g
         id="g1880">
</g>
      <g
         id="g1882">
</g>
      <g
         id="g1884">
</g>
      <g
         id="g1886">
</g>
      <g
         id="g1888">
</g>
      <g
         id="g1890">
</g>
      <g
         id="g1892">
</g>
      <g
         id="g1894">
</g>
      <g
         id="g1896">
</g>
      <g
         id="g1898">
</g>
      <g
         id="g1900">
</g>
      <g
         id="g1902">
</g>
    </g>
  </g>
</svg>
