<svg height="496pt" viewBox="0 0 496 496" width="496pt" xmlns="http://www.w3.org/2000/svg"><path d="m176 168c17.679688 0 32 14.320312 32 32 0 8.800781-3.601562 16.800781-9.359375 22.640625-5.839844 5.757813-13.839844 9.359375-22.640625 9.359375h-168c8.800781 0 16.800781-3.601562 22.640625-9.359375 5.757813-5.839844 9.359375-13.839844 9.359375-22.640625 0-17.679688-14.320312-32-32-32zm0 0" fill="#b4dd7f"/><path d="m24 392h448v96h-448zm0 0" fill="#dfb28b"/><path d="m185.359375 286.640625c5.839844 5.757813 13.839844 9.359375 22.640625 9.359375h-168c-8.800781 0-16.800781-3.601562-22.640625-9.359375-5.757813-5.839844-9.359375-13.839844-9.359375-22.640625 0-17.679688 14.320312-32 32-32h168c-17.679688 0-32 14.320312-32 32 0 8.800781 3.601562 16.800781 9.359375 22.640625zm0 0" fill="#b4dd7f"/><path d="m176 296c17.679688 0 32 14.320312 32 32 0 8.800781-3.601562 16.800781-9.359375 22.640625-5.839844 5.757813-13.839844 9.359375-22.640625 9.359375h-168c8.800781 0 16.800781-3.601562 22.640625-9.359375 5.757813-5.839844 9.359375-13.839844 9.359375-22.640625 0-17.679688-14.320312-32-32-32zm0 0" fill="#b4dd7f"/><path d="m296 392h128v48h-128zm0 0" fill="#f0d0b4"/><path d="m72 392h128v48h-128zm0 0" fill="#f0d0b4"/><path d="m488 368v16c0 4.398438-3.601562 8-8 8h-464c-4.398438 0-8-3.601562-8-8v-16c0-4.398438 3.601562-8 8-8h464c4.398438 0 8 3.601562 8 8zm0 0" fill="#b27946"/><path d="m440.878906 263.359375-80.878906-23.359375v-8c0 6.640625-2.71875 12.640625-7.039062 16.960938-4.320313 4.320312-10.320313 7.039062-16.960938 7.039062-13.28125 0-24-10.71875-24-24v8l-80.878906 23.359375c-13.679688 3.921875-23.121094 16.480469-23.121094 30.71875v33.921875c0 8.800781-3.601562 16.800781-9.359375 22.640625-5.839844 5.757813-13.839844 9.359375-22.640625 9.359375h288v-65.921875c0-14.238281-9.441406-26.796875-23.121094-30.71875zm0 0" fill="#e6e9ed"/><path d="m384 332 .152344.238281c-9.671875 5.441407-16.152344 15.839844-16.152344 27.761719h-32v-48c0-17.679688 14.320312-32 32-32h16zm0 0" fill="#b4dd7f"/><path d="m336 312v48h-32c0-11.839844-6.398438-22.160156-16-27.679688v-52.320312h16c17.679688 0 32 14.320312 32 32zm0 0" fill="#b4dd7f"/><g fill="#ecc19c"><path d="m360 213.359375v18.640625c0 6.640625-2.71875 12.640625-7.039062 16.960938-4.320313 4.320312-10.320313 7.039062-16.960938 7.039062-13.28125 0-24-10.71875-24-24v-18.640625l9.359375 6.242187c4.320313 2.878907 9.441406 4.398438 14.640625 4.398438s10.320312-1.519531 14.640625-4.398438zm0 0"/><path d="m392 166.320312v-38.320312c6.640625 0 12.640625 2.71875 16.960938 7.039062 4.320312 4.320313 7.039062 10.320313 7.039062 16.960938 0 13.28125-10.71875 24-24 24h-.960938c.640626-3.199219.960938-6.398438.960938-9.679688zm0 0"/><path d="m280 166.320312c0 3.28125.320312 6.480469.960938 9.679688h-.960938c-6.640625 0-12.640625-2.71875-16.960938-7.039062-4.320312-4.320313-7.039062-10.320313-7.039062-16.960938 0-13.28125 10.71875-24 24-24zm0 0"/></g><path d="m392 128v38.320312c0 3.28125-.320312 6.480469-.960938 9.679688-2.558593 12.238281-9.757812 23.199219-20.398437 30.238281l-10.640625 7.121094-9.359375 6.242187c-4.320313 2.878907-9.441406 4.398438-14.640625 4.398438s-10.320312-1.519531-14.640625-4.398438l-9.359375-6.242187-10.640625-7.121094c-10.640625-7.039062-17.832031-18-20.398437-30.238281-.640626-3.199219-.960938-6.398438-.960938-9.679688v-54.320312h3.121094c18.878906 0 37.199218-5.601562 52.878906-16 15.679688 10.398438 34 16 52.878906 16h3.121094zm0 0" fill="#f0d0b4"/><path d="m416 88v64c0-6.640625-2.71875-12.640625-7.039062-16.960938-4.320313-4.320312-10.320313-7.039062-16.960938-7.039062v-16h-3.121094c-18.878906 0-37.199218-5.601562-52.878906-16-15.679688 10.398438-34 16-52.878906 16h-3.121094v16c-13.28125 0-24 10.71875-24 24v-64c0-44.160156 35.839844-80 80-80 22.078125 0 42.078125 8.960938 56.558594 23.441406 14.480468 14.480469 23.441406 34.480469 23.441406 56.558594zm0 0" fill="#cf9e76"/><path d="m64 320h120v16h-120zm0 0"/><path d="m64 192h120v16h-120zm0 0"/><path d="m32 256h120v16h-120zm0 0"/><path d="m480 352h-8v-57.929688c0-17.71875-11.886719-33.527343-28.910156-38.429687l-75.089844-21.65625v-16.367187l7.0625-4.714844c10.691406-7.117188 18.328125-17.558594 22.144531-29.429688 15.167969-2.503906 26.792969-15.609375 26.792969-31.472656v-64c0-48.519531-39.480469-88-88-88s-88 39.480469-88 88v64c0 15.863281 11.625 28.96875 26.792969 31.472656 3.824219 11.871094 11.464843 22.3125 22.144531 29.429688l7.0625 4.714844v16.367187l-75.089844 21.664063c-14.628906 4.214843-25.414062 16.503906-28.175781 31.113281-9.664063-3.105469-16.734375-12.074219-16.734375-22.761719 0-13.230469 10.769531-24 24-24h8v-16h-8.207031c5.078125-6.703125 8.207031-14.960938 8.207031-24 0-22.054688-17.945312-40-40-40h-176v16h8c13.230469 0 24 10.769531 24 24s-10.769531 24-24 24h-8v16h8.207031c-5.078125 6.703125-8.207031 14.960938-8.207031 24s3.128906 17.296875 8.207031 24h-8.207031v16h8c13.230469 0 24 10.769531 24 24s-10.769531 24-24 24h-8v32c0 8.824219 7.175781 16 16 16v96h464v-96c8.824219 0 16-7.175781 16-16v-16c0-8.824219-7.175781-16-16-16zm-80-186.222656v-27.546875c4.761719 2.777343 8 7.882812 8 13.777343 0 5.894532-3.238281 10.992188-8 13.769532zm-136-13.777344c0-5.894531 3.238281-11 8-13.777344v27.546875c-4.761719-2.769531-8-7.875-8-13.769531zm19.160156-48h-11.160156v17.136719c-2.847656.742187-5.519531 1.863281-8 3.3125v-36.449219c0-39.695312 32.296875-72 72-72s72 32.304688 72 72v36.449219c-2.480469-1.449219-5.152344-2.578125-8-3.3125v-17.136719h-11.160156c-17.289063 0-34.023438-5.0625-48.40625-14.65625l-4.433594-2.960938-4.441406 2.960938c-14.382813 9.59375-31.109375 14.65625-48.398438 14.65625zm4.839844 62.3125v-46.425781c16.984375-.789063 33.40625-5.726563 48-14.429688 14.59375 8.703125 31.015625 13.640625 48 14.429688v46.425781c0 13.398438-6.65625 25.839844-17.816406 33.28125l-19.96875 13.308594c-6.078125 4.050781-14.359375 4.050781-20.4375 0l-19.96875-13.308594c-11.152344-7.433594-17.808594-19.882812-17.808594-33.28125zm32 61.65625c4.9375 2.597656 10.375 4.03125 16 4.03125s11.0625-1.433594 16-4.03125v4.03125c0 8.824219-7.175781 16-16 16s-16-7.175781-16-16zm-86.648438 43.046875 75.738282-21.847656c5.6875 8.886719 15.589844 14.832031 26.910156 14.832031s21.222656-5.945312 26.910156-14.832031l75.738282 21.847656c10.214843 2.945313 17.351562 12.425781 17.351562 23.054687v57.929688h-78.527344c3.3125-9.289062 12.113282-16 22.527344-16h40v-16h-16v-32h-16v32h-8c-2.734375 0-5.414062.28125-8 .808594v-48.808594h-24c-13.070312 0-24.695312 6.304688-32 16.023438-7.304688-9.71875-18.929688-16.023438-32-16.023438h-24v48.808594c-2.585938-.527344-5.265625-.808594-8-.808594h-8v-32h-16v32h-16v16h40c10.414062 0 19.214844 6.710938 22.527344 16h-86.734375c5.078125-6.703125 8.207031-14.960938 8.207031-24v-33.929688c0-10.628906 7.136719-20.109374 17.351562-23.054687zm77.839844 80.984375c-1.976562-9.703125-7.566406-18.023438-15.191406-23.792969v-40.207031h8c13.230469 0 24 10.769531 24 24v40zm32.808594-40c0-13.230469 10.769531-24 24-24h8v40.207031c-7.625 5.769531-13.214844 14.097657-15.191406 23.792969h-16.808594zm-304.207031-136h136.207031c13.230469 0 24 10.769531 24 24s-10.769531 24-24 24h-136.207031c5.078125-6.703125 8.207031-14.960938 8.207031-24s-3.128906-17.296875-8.207031-24zm-23.792969 88c0-13.230469 10.769531-24 24-24h136.207031c-5.078125 6.703125-8.207031 14.960938-8.207031 24s3.128906 17.296875 8.207031 24h-136.207031c-13.230469 0-24-10.769531-24-24zm24 40h136c13.230469 0 24 10.769531 24 24s-10.769531 24-24 24h-136.207031c5.078125-6.703125 8.207031-14.960938 8.207031-24s-3.128906-17.296875-8.207031-24zm424 176h-432v-80h32v48h144v-48h80v48h144v-48h32zm-384-80h112v32h-112zm224 0h112v32h-112zm-288-16v-16h464l.007812 16zm0 0"/></svg>