<?xml version="1.0" encoding="UTF-8" standalone="no"?>
<svg
   xmlns:dc="http://purl.org/dc/elements/1.1/"
   xmlns:cc="http://creativecommons.org/ns#"
   xmlns:rdf="http://www.w3.org/1999/02/22-rdf-syntax-ns#"
   xmlns:svg="http://www.w3.org/2000/svg"
   xmlns="http://www.w3.org/2000/svg"
   xmlns:sodipodi="http://sodipodi.sourceforge.net/DTD/sodipodi-0.dtd"
   xmlns:inkscape="http://www.inkscape.org/namespaces/inkscape"
   id="Capa_1"
   enable-background="new 0 0 512 512"
   height="456.82816"
   viewBox="0 0 504.0788 456.82816"
   width="504.0788"
   version="1.1"
   sodipodi:docname="gameson.svg"
   inkscape:version="0.92.3 (2405546, 2018-03-11)">
  <metadata
     id="metadata49">
    <rdf:RDF>
      <cc:Work
         rdf:about="">
        <dc:format>image/svg+xml</dc:format>
        <dc:type
           rdf:resource="http://purl.org/dc/dcmitype/StillImage" />
        <dc:title></dc:title>
      </cc:Work>
    </rdf:RDF>
  </metadata>
  <defs
     id="defs47" />
  <sodipodi:namedview
     pagecolor="#ffffff"
     bordercolor="#666666"
     borderopacity="1"
     objecttolerance="10"
     gridtolerance="10"
     guidetolerance="10"
     inkscape:pageopacity="0"
     inkscape:pageshadow="2"
     inkscape:window-width="2560"
     inkscape:window-height="1017"
     id="namedview45"
     showgrid="false"
     inkscape:zoom="1.3037281"
     inkscape:cx="406.14512"
     inkscape:cy="236.26123"
     inkscape:window-x="-8"
     inkscape:window-y="-8"
     inkscape:window-maximized="1"
     inkscape:current-layer="Capa_1" />
  <g
     id="g938"
     transform="translate(4.9262675e-4,35.238168)">
    <path
       id="path856"
       d="m 502.519,328.249 c -11.815,-91.372 -61.046,-191.015 -63.015,-195.348 -0.788,-1.575 -2.363,-3.151 -3.938,-3.938 l -7.483,-3.151 -2.363,-8.665 c 0,-0.788 -0.394,-1.182 -0.788,-1.969 -0.394,-0.788 -5.514,-10.634 -19.692,-16.148 -12.997,-5.12 -45.686,-16.542 -65.378,-16.542 -6.695,0 -12.209,1.182 -15.754,3.938 -2.757,1.182 -14.572,11.815 -25.994,11.815 h -94.523 c -11.028,0 -23.237,-10.24 -25.994,-11.815 -3.938,-2.757 -9.058,-3.938 -15.754,-3.938 -19.692,0 -52.382,11.422 -65.378,16.542 -14.178,5.514 -19.298,15.36 -19.692,16.148 -0.394,0.394 -0.394,1.182 -0.788,1.969 l -2.363,9.058 -5.514,3.151 c -1.575,0.788 -2.757,1.969 -3.545,3.545 -1.969,4.332 -51.2,103.975 -63.015,195.348 -4.332,34.265 0.394,59.471 14.572,75.618 13.785,15.36 31.902,17.723 39.385,17.723 h 5.908 c 10.24,0 24.812,-7.877 72.862,-59.471 4.726,-5.12 8.271,-7.877 10.634,-10.24 7.089,-7.089 21.662,-9.452 32.295,-9.452 h 150.449 c 10.634,0 25.6,2.363 32.295,9.452 2.363,2.363 5.908,5.12 10.634,10.24 48.049,51.594 62.622,59.471 72.862,59.471 h 5.908 c 7.089,0 25.6,-1.969 39.385,-17.723 13.388,-16.147 18.114,-41.747 13.782,-75.618 z"
       style="fill:#324d5b"
       inkscape:connector-curvature="0" />
    <path
       id="path858"
       d="m 439.504,132.902 c -0.788,-1.575 -2.363,-3.151 -3.938,-3.938 l -7.483,-3.151 -2.363,-8.665 c 0,-0.788 -0.394,-1.182 -0.788,-1.969 -0.394,-0.788 -5.514,-10.634 -19.692,-16.148 -12.997,-5.12 -45.686,-16.542 -65.378,-16.542 -6.695,0 -12.209,1.182 -15.754,3.938 -2.757,1.182 -14.572,11.815 -25.994,11.815 h -94.523 c -11.028,0 -23.237,-10.24 -25.994,-11.815 -3.938,-2.757 -9.058,-3.938 -15.754,-3.938 -19.692,0 -52.382,11.422 -65.378,16.542 -14.178,5.514 -19.298,15.36 -19.692,16.148 -0.394,0.394 -0.394,1.182 -0.788,1.969 l -2.363,9.058 -5.514,3.151 c -1.575,0.788 -2.757,1.969 -3.545,3.545 -0.394,1.182 -4.726,9.058 -10.24,22.055 l 36.628,-18.511 c 51.988,-24.812 70.498,-10.634 72.074,-9.452 1.182,1.575 8.271,11.028 25.206,27.569 16.148,16.148 23.631,18.511 26.782,18.511 h 69.317 c 3.545,0 11.028,-2.757 26.388,-18.511 16.542,-16.542 23.631,-25.6 24.812,-27.569 1.969,-1.575 21.268,-16.148 76.012,11.422 -0.788,-0.788 23.237,11.422 39.385,19.692 -6.303,-14.572 -10.636,-24.025 -11.423,-25.206 z"
       style="fill:#1d323d"
       inkscape:connector-curvature="0" />
    <path
       id="path860"
       d="m 372.156,216.397 c -7.483,0 -13.785,6.302 -13.785,13.785 0,7.483 6.302,13.785 13.785,13.785 7.483,0 13.785,-6.302 13.785,-13.785 0,-7.483 -6.302,-13.785 -13.785,-13.785 z m 31.508,-31.508 c -7.483,0 -13.785,6.302 -13.785,13.785 0,7.483 6.302,13.785 13.785,13.785 7.483,0 13.785,-6.302 13.785,-13.785 0,-7.483 -6.302,-13.785 -13.785,-13.785 z m -63.016,0 c -7.483,0 -13.785,6.302 -13.785,13.785 0,7.483 6.302,13.785 13.785,13.785 7.483,0 13.785,-6.302 13.785,-13.785 0,-7.483 -6.302,-13.785 -13.785,-13.785 z m 31.508,-31.507 c -7.483,0 -13.785,6.302 -13.785,13.785 0,7.483 6.302,13.785 13.785,13.785 7.483,0 13.785,-6.302 13.785,-13.785 -10e-4,-7.484 -6.302,-13.785 -13.785,-13.785 z"
       style="fill:#597583"
       inkscape:connector-curvature="0" />
    <path
       id="path862"
       d="m 252.033,121.874 c 8.665,0 15.754,7.089 15.754,15.754 0,8.665 -7.089,15.754 -15.754,15.754 -8.665,0 -15.754,-7.089 -15.754,-15.754 0,-8.665 7.089,-15.754 15.754,-15.754 z"
       style="fill:#4caf50;fill-opacity:1"
       inkscape:connector-curvature="0" />
    <path
       id="path864"
       d="M 222.888,279.412 H 208.71 v 14.572 c 0,3.151 -2.363,5.514 -5.514,5.514 h -12.603 c -3.151,0 -5.514,-2.363 -5.514,-5.514 v -14.572 h -14.178 c -3.151,0 -5.514,-2.363 -5.514,-5.514 v -12.603 c 0,-3.151 2.363,-5.514 5.514,-5.514 h 14.178 v -14.178 c 0,-3.151 2.363,-5.514 5.514,-5.514 h 12.603 c 3.151,0 5.514,2.363 5.514,5.514 v 14.178 h 14.178 c 3.151,0 5.514,2.363 5.514,5.514 v 12.603 c 0,3.151 -2.363,5.514 -5.514,5.514 z"
       style="fill:#4f6b79"
       inkscape:connector-curvature="0" />
    <path
       id="path866"
       d="m 299.294,228.212 c 21.662,0 39.385,17.723 39.385,39.385 0,21.662 -17.723,39.385 -39.385,39.385 -21.662,0 -39.385,-17.723 -39.385,-39.385 0.001,-21.661 17.724,-39.385 39.385,-39.385 z"
       style="fill:#2d4552"
       inkscape:connector-curvature="0" />
    <path
       id="path868"
       d="m 299.294,240.028 c 15.36,0 27.569,12.209 27.569,27.569 0,15.36 -12.209,27.569 -27.569,27.569 -15.36,0 -27.569,-12.209 -27.569,-27.569 0,-14.966 12.209,-27.569 27.569,-27.569 z"
       style="fill:#4f6b79"
       inkscape:connector-curvature="0" />
    <path
       id="path870"
       d="m 126.002,157.32 c 21.662,0 39.385,17.723 39.385,39.385 0,21.662 -17.723,39.385 -39.385,39.385 -21.662,0 -39.385,-17.723 -39.385,-39.385 0,-21.662 17.723,-39.385 39.385,-39.385 z"
       style="fill:#2d4552"
       inkscape:connector-curvature="0" />
    <path
       id="path872"
       d="m 126.002,169.136 c 15.36,0 27.569,12.209 27.569,27.569 0,15.36 -12.209,27.569 -27.569,27.569 -15.36,0 -27.569,-12.209 -27.569,-27.569 0,-14.966 12.209,-27.569 27.569,-27.569 z"
       style="fill:#4f6b79"
       inkscape:connector-curvature="0" />
    <path
       id="path874"
       d="m 299.294,251.843 c 8.665,0 15.754,7.089 15.754,15.754 0,8.665 -7.089,15.754 -15.754,15.754 -8.665,0 -15.754,-7.089 -15.754,-15.754 0,-8.665 7.09,-15.754 15.754,-15.754 z M 126.002,180.951 c 8.665,0 15.754,7.089 15.754,15.754 0,8.665 -7.089,15.754 -15.754,15.754 -8.665,0 -15.754,-7.089 -15.754,-15.754 0,-8.665 7.089,-15.754 15.754,-15.754 z"
       style="fill:#3f5966"
       inkscape:connector-curvature="0" />
    <g
       id="g876">
</g>
    <g
       id="g878">
</g>
    <g
       id="g880">
</g>
    <g
       id="g882">
</g>
    <g
       id="g884">
</g>
    <g
       id="g886">
</g>
    <g
       id="g888">
</g>
    <g
       id="g890">
</g>
    <g
       id="g892">
</g>
    <g
       id="g894">
</g>
    <g
       id="g896">
</g>
    <g
       id="g898">
</g>
    <g
       id="g900">
</g>
    <g
       id="g902">
</g>
    <g
       id="g904">
</g>
  </g>
  <g
     id="g1007"
     transform="matrix(0.31616867,0,0,0.31616867,171.10021,-37.097019)">
    <path
       id="path940"
       d="M 373.333,117.333 H 138.667 C 62.083,117.333 0,179.417 0,256 0,332.583 62.083,394.667 138.667,394.667 H 373.334 C 449.917,394.667 512,332.583 512,256 512,179.417 449.917,117.333 373.333,117.333 Z"
       style="fill:#cfd8dc"
       inkscape:connector-curvature="0" />
    <circle
       id="circle942"
       r="96"
       cy="256"
       cx="373.33301"
       style="fill:#4caf50" />
    <g
       id="g948">
	<path
   id="path944"
   d="m 117.333,309.333 c -17.673,0 -32,-14.327 -32,-32 v -42.667 c 0,-17.673 14.327,-32 32,-32 17.673,0 32,14.327 32,32 v 42.667 c 0,17.673 -14.327,32 -32,32 z m 0,-85.333 c -5.891,0 -10.667,4.776 -10.667,10.667 v 42.667 c 0,5.891 4.776,10.667 10.667,10.667 5.891,0 10.667,-4.777 10.667,-10.668 V 234.666 C 128,228.776 123.224,224 117.333,224 Z"
   style="fill:#455a64"
   inkscape:connector-curvature="0" />

	<path
   id="path946"
   d="m 224,309.333 c -4.037,0 -7.728,-2.279 -9.536,-5.888 L 192,258.517 v 40.149 c 0,5.891 -4.776,10.667 -10.667,10.667 -5.891,0 -10.667,-4.776 -10.667,-10.667 v -85.333 c 0.006,-4.941 3.405,-9.232 8.213,-10.368 4.819,-1.186 9.812,1.151 11.989,5.611 l 22.464,44.907 v -40.149 c 0,-5.891 4.776,-10.667 10.667,-10.667 5.891,0 10.667,4.776 10.667,10.667 v 85.333 c -0.006,4.941 -3.405,9.232 -8.213,10.368 -0.802,0.202 -1.626,0.302 -2.453,0.298 z"
   style="fill:#455a64"
   inkscape:connector-curvature="0" />

</g>
    <g
       id="g950">
</g>
    <g
       id="g952">
</g>
    <g
       id="g954">
</g>
    <g
       id="g956">
</g>
    <g
       id="g958">
</g>
    <g
       id="g960">
</g>
    <g
       id="g962">
</g>
    <g
       id="g964">
</g>
    <g
       id="g966">
</g>
    <g
       id="g968">
</g>
    <g
       id="g970">
</g>
    <g
       id="g972">
</g>
    <g
       id="g974">
</g>
    <g
       id="g976">
</g>
    <g
       id="g978">
</g>
  </g>
</svg>
