<?xml version="1.0" encoding="UTF-8" standalone="no"?>
<!-- Generator: Adobe Illustrator 21.0.0, SVG Export Plug-In . SVG Version: 6.00 Build 0)  -->

<svg
   xmlns:dc="http://purl.org/dc/elements/1.1/"
   xmlns:cc="http://creativecommons.org/ns#"
   xmlns:rdf="http://www.w3.org/1999/02/22-rdf-syntax-ns#"
   xmlns:svg="http://www.w3.org/2000/svg"
   xmlns="http://www.w3.org/2000/svg"
   xmlns:sodipodi="http://sodipodi.sourceforge.net/DTD/sodipodi-0.dtd"
   xmlns:inkscape="http://www.inkscape.org/namespaces/inkscape"
   version="1.1"
   id="Capa_1"
   x="0px"
   y="0px"
   viewBox="0 0 399.10327 399.10327"
   xml:space="preserve"
   width="399.10327"
   height="399.10327"
   sodipodi:docname="intercambio.svg"
   inkscape:version="0.92.3 (2405546, 2018-03-11)"><metadata
   id="metadata97"><rdf:RDF><cc:Work
       rdf:about=""><dc:format>image/svg+xml</dc:format><dc:type
         rdf:resource="http://purl.org/dc/dcmitype/StillImage" /><dc:title></dc:title></cc:Work></rdf:RDF></metadata><defs
   id="defs95" /><sodipodi:namedview
   pagecolor="#ffffff"
   bordercolor="#666666"
   borderopacity="1"
   objecttolerance="10"
   gridtolerance="10"
   guidetolerance="10"
   inkscape:pageopacity="0"
   inkscape:pageshadow="2"
   inkscape:window-width="2560"
   inkscape:window-height="1017"
   id="namedview93"
   showgrid="false"
   inkscape:zoom="1.3037281"
   inkscape:cx="118.94257"
   inkscape:cy="135.50469"
   inkscape:window-x="-8"
   inkscape:window-y="-8"
   inkscape:window-maximized="1"
   inkscape:current-layer="Capa_1" />
















<circle
   style="opacity:0.68900003;fill:#10115f;fill-opacity:1;fill-rule:evenodd;stroke:#ffffff;stroke-width:1.22457349;stroke-linecap:round;stroke-linejoin:round;stroke-miterlimit:4;stroke-dasharray:none;stroke-opacity:1;paint-order:normal"
   id="path904"
   cx="201.17876"
   cy="199.68723"
   r="198.93935" /><g
   id="g90"
   transform="matrix(0.54571455,0,0,0.54571455,59.848435,59.848505)">
	<path
   style="fill:#feca57"
   d="m 307.077,143.211 h -71.691 c -1.175,0 -2.128,-0.953 -2.128,-2.128 v -9.506 c 0,-2.076 -1.785,-3.426 -3.302,-2.498 l -36.398,22.273 c -1.867,1.142 -1.867,3.854 0,4.996 l 36.398,22.273 c 1.517,0.928 3.302,-0.422 3.302,-2.498 v -9.506 c 0,-1.175 0.953,-2.128 2.128,-2.128 h 72.044 c 5.942,0 10.747,-4.872 10.637,-10.839 -0.107,-5.856 -5.132,-10.439 -10.99,-10.439 z"
   id="path2"
   inkscape:connector-curvature="0" />
	<path
   style="fill:#ff6b6b"
   d="M 316.808,90.371 280.41,68.098 c -1.517,-0.928 -3.302,0.422 -3.302,2.498 v 9.506 c 0,1.176 -0.953,2.129 -2.129,2.129 h -71.69 c -5.858,0 -10.883,4.582 -10.991,10.439 -0.11,5.967 4.695,10.839 10.637,10.839 h 72.044 c 1.176,0 2.128,0.953 2.128,2.129 v 9.505 c 0,2.076 1.785,3.426 3.302,2.498 l 36.398,-22.273 c 1.868,-1.144 1.868,-3.855 10e-4,-4.997 z"
   id="path4"
   inkscape:connector-curvature="0" />
	<g
   id="g16">
		<path
   style="fill:#f4b537"
   d="m 208.609,156.348 c -1.867,-1.142 -1.867,-3.854 0,-4.996 l 24.649,-15.084 v -4.691 c 0,-2.076 -1.785,-3.426 -3.302,-2.498 l -36.398,22.273 c -1.867,1.142 -1.867,3.854 0,4.996 l 36.398,22.273 c 1.517,0.928 3.302,-0.422 3.302,-2.498 v -4.691 z"
   id="path6"
   inkscape:connector-curvature="0" />
		<g
   id="g14">
			<path
   style="fill:#ee5253"
   d="m 292.159,80.101 v -4.814 l -11.748,-7.189 c -1.517,-0.928 -3.302,0.422 -3.302,2.498 v 9.506 c 0,1.176 -0.953,2.129 -2.129,2.129 h 15.051 c 1.175,-10e-4 2.128,-0.954 2.128,-2.13 z"
   id="path8"
   inkscape:connector-curvature="0" />
			<path
   style="fill:#ee5253"
   d="m 292.159,105.637 c 0,-1.176 -0.953,-2.129 -2.128,-2.129 H 274.98 c 1.176,0 2.128,0.953 2.128,2.129 v 9.505 c 0,2.076 1.785,3.426 3.302,2.498 l 11.748,-7.189 v -4.814 z"
   id="path10"
   inkscape:connector-curvature="0" />
			<path
   style="fill:#ee5253"
   d="m 207.349,92.669 c 0.108,-5.857 5.133,-10.439 10.991,-10.439 h -15.051 c -5.858,0 -10.883,4.582 -10.991,10.439 -0.11,5.967 4.695,10.839 10.637,10.839 h 15.051 c -5.942,0 -10.746,-4.872 -10.637,-10.839 z"
   id="path12"
   inkscape:connector-curvature="0" />
		</g>
	</g>
	<path
   style="fill:#3e4b5a"
   d="m 394.565,142.839 c -33.416,0 -60.503,27.087 -60.503,60.503 v 25.041 c 4.044,-3.748 9.796,-5.785 15.412,-5.035 v -3.015 c 0,-2.397 2.046,-4.29 4.419,-4.11 23.392,1.68 47.199,-5.753 65.199,-17.511 1.68,-1.098 3.905,-0.825 5.271,0.643 15.389,16.541 15.296,15.901 15.296,18.061 v 5.92 c 6.155,-0.923 11.615,0.98 15.409,4.507 v -24.499 c 0,-33.417 -27.087,-60.505 -60.503,-60.505 z"
   id="path18"
   inkscape:connector-curvature="0" />
	<g
   id="g22">
		<path
   style="fill:#303f49"
   d="m 364.935,203.342 c 0,-28.08 19.13,-51.684 45.066,-58.509 -4.929,-1.297 -10.1,-1.994 -15.436,-1.994 -33.416,0 -60.503,27.087 -60.503,60.503 v 25.041 c 4.044,-3.748 9.796,-5.785 15.412,-5.035 v -3.015 c 0,-2.397 2.047,-4.29 4.419,-4.11 3.679,0.264 7.366,0.279 11.042,0.111 z"
   id="path20"
   inkscape:connector-curvature="0" />
	</g>
	<path
   style="fill:#ffbeab"
   d="m 387.655,309.879 c 2.44,-0.946 4.049,-3.294 4.049,-5.912 v -8.561 c -8.33,-0.561 -15.712,-3.11 -21.885,-7.054 v 18.897 c 0,1.69 -0.678,3.262 -1.811,4.423 z"
   id="path24"
   inkscape:connector-curvature="0" />
	<path
   style="fill:#ffbeab"
   d="m 361.622,324.258 c 19.285,20.491 46.547,20.49 65.831,0 l 6.847,-7.276 -10.071,-3.9 c -2.319,-0.898 -3.847,-3.129 -3.847,-5.616 v -19.783 c -7.162,4.94 -15.833,7.842 -25.173,7.842 -9.775,0 -18.365,-2.684 -25.39,-7.173 v 18.897 c 0,2.617 -1.608,4.966 -4.049,5.912 l -10.691,4.145 z"
   id="path26"
   inkscape:connector-curvature="0" />
	<path
   style="fill:#f7af9f"
   d="m 391.704,295.406 c -8.33,-0.561 -15.712,-3.11 -21.885,-7.054 v 18.897 c 0,2.617 -1.608,4.966 -4.049,5.912 l -10.691,4.145 6.543,6.952 c 8.859,9.413 19.402,14.489 30.082,15.254 z"
   id="path28"
   inkscape:connector-curvature="0" />
	<path
   style="fill:#ffbeab"
   d="m 438.758,220.634 v 33.143 c 0,0.359 -0.019,0.714 -0.027,1.072 11.729,1.776 21.815,-6.699 21.815,-17.106 0,-10.429 -10.094,-18.862 -21.788,-17.109 z"
   id="path30"
   inkscape:connector-curvature="0" />
	<path
   style="fill:#ffbeab"
   d="m 350.374,253.777 v -33.131 c -10.211,-1.364 -21.788,6.473 -21.788,17.096 0,10.394 10.066,18.884 21.814,17.106 -0.008,-0.357 -0.026,-0.713 -0.026,-1.071 z"
   id="path32"
   inkscape:connector-curvature="0" />
	<path
   style="fill:#f7af9f"
   d="m 452.801,223.73 c -3.842,-2.596 -8.775,-3.886 -14.043,-3.096 v 33.143 c 0,0.359 -0.019,0.714 -0.027,1.072 5.284,0.8 10.225,-0.493 14.07,-3.094 z"
   id="path34"
   inkscape:connector-curvature="0" />
	<path
   style="fill:#f7af9f"
   d="m 350.374,251.758 c -4.692,-3.173 -7.746,-8.3 -7.746,-14.015 0,-5.595 3.214,-10.415 7.746,-13.527 v -3.569 c -10.211,-1.364 -21.788,6.473 -21.788,17.096 0,10.394 10.066,18.884 21.814,17.106 -0.009,-0.357 -0.026,-0.714 -0.026,-1.072 z"
   id="path36"
   inkscape:connector-curvature="0" />
	<path
   style="fill:#ffcdbf"
   d="m 424.363,196.653 c -1.366,-1.468 -3.591,-1.741 -5.271,-0.643 -18,11.759 -41.806,19.192 -65.199,17.511 -2.373,-0.18 -4.419,1.713 -4.419,4.11 v 36.145 c 0,23.231 18.202,44.448 45.736,44.448 24.509,0 44.449,-19.94 44.449,-44.448 v -39.063 c 0,-2.159 0.092,-1.519 -15.296,-18.06 z"
   id="path38"
   inkscape:connector-curvature="0" />
	<path
   style="fill:#ffbeab"
   d="m 380.347,253.777 v -42.02 c -8.652,1.723 -17.582,2.402 -26.454,1.765 -2.373,-0.18 -4.419,1.713 -4.419,4.11 v 36.145 c 0,23.231 18.202,44.449 45.736,44.449 5.186,0 10.162,-0.901 14.793,-2.541 -17.257,-6.11 -29.656,-22.585 -29.656,-41.908 z"
   id="path40"
   inkscape:connector-curvature="0" />
	<path
   style="fill:#ff6b6b"
   d="m 487.263,337.493 -54.292,-21.026 -6.996,7.434 c -18.403,19.553 -44.417,19.554 -62.82,0 l -6.707,-7.126 -53.44,20.718 c 0,0 -24.736,10.17 -24.736,38.369 v 62.584 c 0,3.178 2.577,5.754 5.754,5.754 h 222.27 c 3.15,0 5.704,-2.554 5.704,-5.704 v -62.634 c 0,-28.199 -24.737,-38.369 -24.737,-38.369 z"
   id="path42"
   inkscape:connector-curvature="0" />
	<g
   id="g46">
		<path
   style="fill:#ee5253"
   d="m 309.145,362.484 c 0,-18.252 10.359,-28.943 17.67,-34.22 l -23.806,9.229 c 0,0 -24.736,10.17 -24.736,38.369 v 62.584 c 0,3.178 2.577,5.755 5.754,5.755 h 25.119 v -81.717 z"
   id="path44"
   inkscape:connector-curvature="0" />
	</g>
	<g
   id="g52">
		<path
   style="fill:#ee5253"
   d="m 328.091,444.201 v -58.646 c 0,-4.263 -3.456,-7.718 -7.718,-7.718 -4.263,0 -7.718,3.456 -7.718,7.718 v 58.646 z"
   id="path48"
   inkscape:connector-curvature="0" />
		<path
   style="fill:#ee5253"
   d="m 477.618,444.201 v -58.646 c 0,-4.263 -3.456,-7.718 -7.718,-7.718 -4.263,0 -7.718,3.456 -7.718,7.718 v 58.646 z"
   id="path50"
   inkscape:connector-curvature="0" />
	</g>
	<path
   style="fill:#3e4b5a"
   d="m 116.293,142.839 c -33.416,0 -60.503,27.087 -60.503,60.503 v 25.041 c 4.044,-3.748 9.796,-5.785 15.412,-5.035 v -3.015 c 0,-2.397 2.046,-4.29 4.419,-4.11 23.392,1.68 47.199,-5.753 65.199,-17.511 1.68,-1.098 3.905,-0.825 5.271,0.643 15.389,16.541 15.296,15.901 15.296,18.061 v 5.92 c 6.155,-0.923 11.615,0.98 15.409,4.507 v -24.499 c 0,-33.417 -27.087,-60.505 -60.503,-60.505 z"
   id="path54"
   inkscape:connector-curvature="0" />
	<g
   id="g58">
		<path
   style="fill:#303f49"
   d="m 86.663,203.342 c 0,-28.08 19.13,-51.684 45.066,-58.509 -4.929,-1.297 -10.1,-1.994 -15.436,-1.994 -33.416,0 -60.503,27.087 -60.503,60.503 v 25.041 c 4.044,-3.748 9.796,-5.785 15.412,-5.035 v -3.015 c 0,-2.397 2.047,-4.29 4.419,-4.11 3.679,0.264 7.366,0.279 11.042,0.111 z"
   id="path56"
   inkscape:connector-curvature="0" />
	</g>
	<path
   style="fill:#ffbeab"
   d="m 109.384,309.879 c 2.44,-0.946 4.049,-3.294 4.049,-5.912 v -8.561 c -8.33,-0.561 -15.712,-3.11 -21.885,-7.054 v 18.897 c 0,1.69 -0.678,3.262 -1.811,4.423 z"
   id="path60"
   inkscape:connector-curvature="0" />
	<path
   style="fill:#ffbeab"
   d="m 83.35,324.258 c 19.285,20.491 46.547,20.49 65.831,0 l 6.847,-7.276 -10.071,-3.9 c -2.319,-0.898 -3.847,-3.129 -3.847,-5.616 v -19.783 c -7.162,4.94 -15.834,7.842 -25.173,7.842 -9.775,0 -18.365,-2.684 -25.39,-7.173 v 18.897 c 0,2.617 -1.608,4.966 -4.049,5.912 l -10.691,4.145 z"
   id="path62"
   inkscape:connector-curvature="0" />
	<path
   style="fill:#f7af9f"
   d="m 113.432,295.406 c -8.33,-0.561 -15.712,-3.11 -21.885,-7.054 v 18.897 c 0,2.617 -1.608,4.966 -4.049,5.912 l -10.691,4.145 6.543,6.952 c 8.859,9.413 19.402,14.489 30.082,15.254 z"
   id="path64"
   inkscape:connector-curvature="0" />
	<path
   style="fill:#ffbeab"
   d="m 160.487,220.634 v 33.143 c 0,0.359 -0.019,0.714 -0.027,1.072 11.729,1.776 21.815,-6.699 21.815,-17.106 -0.001,-10.429 -10.095,-18.862 -21.788,-17.109 z"
   id="path66"
   inkscape:connector-curvature="0" />
	<path
   style="fill:#ffbeab"
   d="m 72.103,253.777 v -33.131 c -10.211,-1.364 -21.788,6.473 -21.788,17.096 0,10.394 10.066,18.884 21.814,17.106 -0.009,-0.357 -0.026,-0.713 -0.026,-1.071 z"
   id="path68"
   inkscape:connector-curvature="0" />
	<path
   style="fill:#f7af9f"
   d="m 174.529,223.73 c -3.842,-2.596 -8.775,-3.886 -14.043,-3.096 v 33.143 c 0,0.359 -0.019,0.714 -0.027,1.072 5.284,0.8 10.225,-0.493 14.07,-3.094 z"
   id="path70"
   inkscape:connector-curvature="0" />
	<path
   style="fill:#f7af9f"
   d="m 72.103,251.758 c -4.692,-3.173 -7.746,-8.3 -7.746,-14.015 0,-5.595 3.214,-10.415 7.746,-13.527 v -3.569 c -10.211,-1.364 -21.788,6.473 -21.788,17.096 0,10.394 10.066,18.884 21.814,17.106 -0.009,-0.357 -0.026,-0.714 -0.026,-1.072 z"
   id="path72"
   inkscape:connector-curvature="0" />
	<path
   style="fill:#ffcdbf"
   d="m 146.091,196.653 c -1.366,-1.468 -3.591,-1.741 -5.271,-0.643 -18,11.759 -41.806,19.192 -65.199,17.511 -2.373,-0.18 -4.419,1.713 -4.419,4.11 v 36.145 c 0,23.231 18.202,44.448 45.736,44.448 24.509,0 44.449,-19.94 44.449,-44.448 v -39.063 c 0,-2.159 0.093,-1.519 -15.296,-18.06 z"
   id="path74"
   inkscape:connector-curvature="0" />
	<path
   style="fill:#ffbeab"
   d="m 102.075,253.777 v -42.02 c -8.652,1.723 -17.582,2.402 -26.454,1.765 -2.373,-0.18 -4.419,1.713 -4.419,4.11 v 36.145 c 0,23.231 18.202,44.449 45.736,44.449 5.186,0 10.162,-0.901 14.793,-2.541 -17.257,-6.11 -29.656,-22.585 -29.656,-41.908 z"
   id="path76"
   inkscape:connector-curvature="0" />
	<path
   style="fill:#feca57"
   d="m 208.992,337.493 -54.292,-21.026 -6.996,7.434 c -18.403,19.553 -44.417,19.554 -62.82,0 l -6.707,-7.126 -53.44,20.718 c 0,0 -24.736,10.17 -24.736,38.369 v 62.584 c 0,3.178 2.576,5.754 5.754,5.754 h 222.27 c 3.15,0 5.704,-2.554 5.704,-5.704 v -62.634 c -0.001,-28.199 -24.737,-38.369 -24.737,-38.369 z"
   id="path78"
   inkscape:connector-curvature="0" />
	<g
   id="g82">
		<path
   style="fill:#f4b537"
   d="m 30.873,362.484 c 0,-18.252 10.359,-28.943 17.67,-34.22 l -23.806,9.229 c 0,0 -24.736,10.17 -24.736,38.369 v 62.584 c 0,3.178 2.577,5.755 5.754,5.755 h 25.119 v -81.717 z"
   id="path80"
   inkscape:connector-curvature="0" />
	</g>
	<g
   id="g88">
		<path
   style="fill:#f4b537"
   d="m 49.819,444.201 v -58.646 c 0,-4.263 -3.456,-7.718 -7.718,-7.718 -4.262,0 -7.718,3.456 -7.718,7.718 v 58.646 z"
   id="path84"
   inkscape:connector-curvature="0" />
		<path
   style="fill:#f4b537"
   d="m 199.346,444.201 v -58.646 c 0,-4.263 -3.456,-7.718 -7.718,-7.718 -4.263,0 -7.718,3.456 -7.718,7.718 v 58.646 z"
   id="path86"
   inkscape:connector-curvature="0" />
	</g>
</g><g
   id="Page-1"
   transform="matrix(1.2963856,0,0,1.2963856,160.96118,24.397925)"
   style="fill:none;fill-rule:evenodd"><g
     id="039---Tickets"
     style="fill-rule:nonzero"><g
       id="g1550"
       transform="translate(5.0228505)" /></g></g></svg>