<svg height="511pt" viewBox="1 1 511 511.99998" width="511pt" xmlns="http://www.w3.org/2000/svg"><path d="m512.5 256c0 141.386719-114.617188 256-256 256-141.386719 0-256-114.613281-256-256 0-141.382812 114.613281-256 256-256 141.382812 0 256 114.617188 256 256zm0 0" fill="#31474c"/><path d="m504.300781 191.5h-495.605469c2.382813-9.164062 5.257813-18.132812 8.601563-26.867188 6.144531-16.101562 13.875-31.429687 22.996094-45.777343 45.421875-71.449219 125.285156-118.855469 216.210937-118.855469 93.726563 0 175.6875 50.363281 220.296875 125.523438 4.261719 7.167968 8.179688 14.578124 11.742188 22.183593 6.519531 13.960938 11.816406 28.597657 15.757812 43.792969zm0 0" fill="#85d5e8"/><path d="m88.960938 33.375v167.308594c0 9.59375 7.773437 17.367187 17.367187 17.367187h68.660156l-.230469-.5625-27.625-67.355469 17-24.554687 1.105469-1.597656v-41.691407c0-3.480468 1.410157-6.617187 3.691407-8.894531 2.265624-2.277343 5.410156-3.675781 8.878906-3.675781v-36.34375c0-9.777344-7.929688-17.699219-17.699219-17.699219h-53.4375c-9.351563 0-17.011719 7.242188-17.65625 16.425781-.042969.417969-.054687.847657-.054687 1.273438zm0 0" fill="#f4ca19"/><path d="m255.128906 46.730469c7.503906 0 13.585938 6.082031 13.585938 13.582031v71.054688h-27.167969v-71.054688c0-7.5 6.082031-13.582031 13.582031-13.582031zm0 0" fill="#18282d"/><path d="m505.179688 194.976562-96.78125 22.769532-1.273438.304687h-199.011719l-47.257812-13.710937-41.546875-12.046875s-2.445313-30.367188 12.527344-61.972657c5.351562-11.273437 12.90625-22.707031 23.574218-32.96875 0 0 .011719 0 .011719-.007812 17.40625-16.75 43.109375-30.417969 81.019531-35.257812 7.660156-.980469 14.449219 4.996093 14.449219 12.730468v25.535156c0 16.082032 14.140625 28.464844 30.085937 26.40625.0625-.011718.132813-.023437.195313-.03125 21.609375-2.730468 45.414063-3.984374 69.726563-3.785156h.15625c.355468 0 .898437-6.101562 1.347656-12.152344.335937-4.492187 3.042968-8.265624 6.816406-10.132812 1.847656-.929688 3.9375-1.390625 6.140625-1.277344 38.996094 2.164063 78.429687 12.257813 111.441406 26.144532 4.261719 7.167968 8.179688 14.578124 11.742188 22.183593 7.023437 15.023438 12.621093 30.835938 16.636719 47.269531zm0 0" fill="#f4ca19"/><path d="m119.304688 192.292969 41.546874 12.050781c14.773438-16.710938 30.238282-37.765625 29.496094-52.078125-1.410156-27.125 28.210938-77.449219 60.539063-77.449219 0-7.730468-6.789063-13.707031-14.449219-12.726562-37.910156 4.835937-63.613281 18.503906-81.019531 35.253906 0 .011719-.011719.011719-.011719.011719-10.667969 10.261719-18.222656 21.691406-23.574219 32.964843-14.972656 31.609376-12.527343 61.972657-12.527343 61.972657zm0 0" fill="#e29b0e"/><path d="m88.960938 125.097656v75.585938c0 9.59375 7.773437 17.367187 17.367187 17.367187h68.492187l-.0625-.5625-10.625-91.910156-2.121093-18.347656c-14.503907 23.089843-73.050781 17.867187-73.050781 17.867187zm0 0" fill="#e29b0e"/><path d="m508.367188 209.929688c-7.359376 21.816406-27.984376 37.53125-52.289063 37.53125-30.46875 0-55.160156-24.699219-55.160156-55.160157 0-30.46875 24.691406-55.160156 55.160156-55.160156 12.140625 0 23.363281 3.921875 32.464844 10.566406 9.121093 19.527344 15.863281 40.394531 19.824219 62.222657zm0 0" fill="#18282d"/><path d="m229.628906 192.296875c0 30.464844-24.695312 55.160156-55.160156 55.160156s-55.160156-24.695312-55.160156-55.160156c0-30.460937 24.695312-55.160156 55.160156-55.160156s55.160156 24.699219 55.160156 55.160156zm0 0" fill="#18282d"/><path d="m477.648438 192.296875c0 11.914063-9.65625 21.574219-21.570313 21.574219s-21.570313-9.660156-21.570313-21.574219c0-11.910156 9.65625-21.570313 21.570313-21.570313s21.570313 9.660157 21.570313 21.570313zm0 0" fill="#9aa7b8"/><path d="m196.039062 192.296875c0 11.914063-9.65625 21.574219-21.570312 21.574219s-21.570312-9.660156-21.570312-21.574219c0-11.910156 9.65625-21.570313 21.570312-21.570313s21.570312 9.660157 21.570312 21.570313zm0 0" fill="#9aa7b8"/><path d="m239.457031 218.050781v-57.425781s153.601563-16.804688 153.601563 57.425781" fill="#18282d"/><path d="m88.960938 33.375v36.34375h88.847656v-36.34375c0-9.777344-7.929688-17.699219-17.699219-17.699219h-53.4375c-9.351563 0-17.011719 7.242188-17.65625 16.425781-.042969.417969-.054687.847657-.054687 1.273438zm0 0" fill="#18282d"/><path d="m29.34375 220.492188-17 24.558593 27.625 67.351563.230469.566406h-33.332031c-4.167969-18.320312-6.363282-37.386719-6.363282-56.96875 0-2.59375.042969-5.164062.113282-7.734375 1.402343-47.53125 15.769531-91.804687 39.675781-129.410156 1.726562 2.730469 2.726562 5.96875 2.726562 9.4375v36.339843c-3.46875 0-6.613281 1.402344-8.878906 3.679688-2.277344 2.277344-3.691406 5.410156-3.691406 8.890625v41.691406zm0 0" fill="#ff2751"/><path d="m120.339844 141.648438c7.5 0 13.582031 6.082031 13.582031 13.585937v71.050781h-27.167969v-71.050781c0-7.503906 6.082032-13.585937 13.585938-13.585937zm0 0" fill="#e6e6e6"/><path d="m420.417969 278.128906-38.695313 9.101563-108.113281 25.433593-1.277344.304688h-199.007812l-47.261719-13.710938-22.957031-6.65625c-1.714844-11.953124-2.601563-24.179687-2.601563-36.601562 0-2.59375.042969-5.164062.113282-7.734375.355468-12.234375 1.578124-24.238281 3.605468-35.984375 4.421875-6.90625 9.8125-13.679688 16.394532-20.011719 0 0 .011718 0 .011718-.007812 17.40625-16.75 43.113282-30.417969 81.019532-35.253907 7.660156-.984374 14.453124 4.992188 14.453124 12.726563v25.535156c0 16.082031 14.136719 28.464844 30.082032 26.40625.0625-.011719.136718-.023437.199218-.03125 21.609376-2.726562 45.410157-3.980469 69.726563-3.785156h.15625c.355469 0 .898437-6.101563 1.347656-12.152344.332031-4.492187 3.039063-8.261719 6.8125-10.132812 1.847657-.929688 3.9375-1.390625 6.144531-1.277344 84.59375 4.691406 171.246094 46.6875 189.847657 83.832031zm0 0" fill="#ff2751"/><path d="m398.453125 272.703125 46.730469 8.394531c6.101562 1.09375 10.539062 6.402344 10.539062 12.597656 0 7.074219-5.734375 12.804688-12.800781 12.804688h-47.480469c-9.484375 0-17.140625-7.746094-17.03125-17.230469.121094-10.527343 9.675782-18.429687 20.042969-16.566406zm0 0" fill="#e6e6e6"/><path d="m55.558594 247.179688c.742187 14.316406-14.722656 35.371093-29.496094 52.078124l-22.957031-6.65625c-1.714844-11.953124-2.601563-24.179687-2.601563-36.601562 0-2.59375.042969-5.164062.113282-7.734375.355468-12.234375 1.578124-24.238281 3.605468-35.984375 4.421875-6.90625 9.8125-13.679688 16.394532-20.011719 0 0 .011718 0 .011718-.007812 17.40625-16.75 43.113282-30.417969 81.019532-35.253907 7.660156-.984374 14.453124 4.992188 14.453124 12.726563-32.328124 0-61.953124 50.320313-60.542968 77.445313zm0 0" fill="#d10f46"/><path d="m376.445312 287.214844c0 30.464844-24.695312 55.160156-55.15625 55.160156-30.464843 0-55.160156-24.695312-55.160156-55.160156 0-30.460938 24.695313-55.15625 55.160156-55.15625 30.460938 0 55.15625 24.695312 55.15625 55.15625zm0 0" fill="#18282d"/><path d="m94.835938 287.222656c0 30.457032-24.691407 55.160156-55.160157 55.160156-9.621093 0-18.679687-2.46875-26.558593-6.816406-2.019532-6.152344-3.792969-12.402344-5.339844-18.753906-4.753906-19.488281-7.273438-39.863281-7.273438-60.8125 0-2.59375.042969-5.164062.113282-7.734375 9.992187-10.007813 23.804687-16.203125 39.058593-16.203125 30.46875 0 55.160157 24.6875 55.160157 55.160156zm0 0" fill="#18282d"/><path d="m342.859375 287.214844c0 11.914062-9.660156 21.574218-21.570313 21.574218-11.914062 0-21.574218-9.660156-21.574218-21.574218 0-11.910156 9.660156-21.570313 21.574218-21.570313 11.910157 0 21.570313 9.660157 21.570313 21.570313zm0 0" fill="#9aa7b8"/><path d="m61.25 287.214844c0 11.914062-9.660156 21.574218-21.574219 21.574218-11.910156 0-21.570312-9.660156-21.570312-21.574218 0-11.910156 9.660156-21.570313 21.570312-21.570313 11.914063 0 21.574219 9.660157 21.574219 21.570313zm0 0" fill="#9aa7b8"/><path d="m104.664062 312.96875v-57.425781s153.601563-16.800781 153.601563 57.425781" fill="#e6e6e6"/><path d="m43.019531 128.292969v36.339843h-25.722656c6.144531-16.101562 13.875-31.429687 22.996094-45.777343 1.726562 2.730469 2.726562 5.96875 2.726562 9.4375zm0 0" fill="#e6e6e6"/><path d="m285.625 373.046875-38.691406 9.101563-108.117188 25.433593-1.273437.304688h-87.132813c-13.261718-17.964844-24.234375-37.722657-32.476562-58.839844-4.066406-10.425781-7.472656-21.191406-10.15625-32.234375 1.191406.011719 2.390625-.0625 3.613281-.21875.0625-.011719.136719-.023438.199219-.03125 21.609375-2.726562 45.410156-3.980469 69.726562-3.785156h.15625c.355469 0 .898438-6.101563 1.347656-12.148438.335938-4.496094 3.042969-8.265625 6.8125-10.136718 1.851563-.929688 3.941407-1.390626 6.144532-1.277344 84.59375 4.695312 171.25 46.6875 189.847656 83.832031zm0 0" fill="#4c86cc"/><path d="m263.660156 367.621094 46.730469 8.394531c6.101563 1.097656 10.539063 6.402344 10.539063 12.601563 0 7.070312-5.730469 12.800781-12.800782 12.800781h-47.480468c-9.480469 0-17.140626-7.742188-17.03125-17.226563.121093-10.53125 9.675781-18.429687 20.042968-16.570312zm0 0" fill="#f4ca19"/><path d="m241.65625 382.136719c0 30.464843-24.695312 55.160156-55.160156 55.160156s-55.160156-24.695313-55.160156-55.160156c0-30.464844 24.695312-55.160157 55.160156-55.160157s55.160156 24.695313 55.160156 55.160157zm0 0" fill="#18282d"/><path d="m208.066406 382.136719c0 11.914062-9.65625 21.570312-21.570312 21.570312-11.914063 0-21.570313-9.65625-21.570313-21.570312 0-11.914063 9.65625-21.570313 21.570313-21.570313 11.914062 0 21.570312 9.65625 21.570312 21.570313zm0 0" fill="#9aa7b8"/><path d="m123.476562 407.886719h-73.066406c-13.261718-17.964844-24.234375-37.722657-32.476562-58.839844 45.054687 1.527344 105.542968 12.257813 105.542968 58.839844zm0 0" fill="#f4ca19"/><path d="m422.796875 450.632812c-44.730469 38.261719-102.804687 61.367188-166.292969 61.367188-63.488281 0-121.574218-23.113281-166.304687-61.367188zm0 0" fill="#ff2751"/></svg>