<?xml version="1.0" encoding="UTF-8" standalone="no"?>
<!-- Generator: Adobe Illustrator 21.0.0, SVG Export Plug-In . SVG Version: 6.00 Build 0)  -->

<svg
   xmlns:dc="http://purl.org/dc/elements/1.1/"
   xmlns:cc="http://creativecommons.org/ns#"
   xmlns:rdf="http://www.w3.org/1999/02/22-rdf-syntax-ns#"
   xmlns:svg="http://www.w3.org/2000/svg"
   xmlns="http://www.w3.org/2000/svg"
   xmlns:sodipodi="http://sodipodi.sourceforge.net/DTD/sodipodi-0.dtd"
   xmlns:inkscape="http://www.inkscape.org/namespaces/inkscape"
   version="1.1"
   id="Capa_1"
   x="0px"
   y="0px"
   viewBox="0 0 458.1129 173.45817"
   xml:space="preserve"
   width="458.2373"
   height="173.50528"
   sodipodi:docname="primerof1.svg"
   inkscape:version="0.92.3 (2405546, 2018-03-11)"><metadata
   id="metadata53"><rdf:RDF><cc:Work
       rdf:about=""><dc:format>image/svg+xml</dc:format><dc:type
         rdf:resource="http://purl.org/dc/dcmitype/StillImage" /><dc:title></dc:title></cc:Work></rdf:RDF></metadata><defs
   id="defs51" /><sodipodi:namedview
   pagecolor="#ffffff"
   bordercolor="#666666"
   borderopacity="1"
   objecttolerance="10"
   gridtolerance="10"
   guidetolerance="10"
   inkscape:pageopacity="0"
   inkscape:pageshadow="2"
   inkscape:window-width="1280"
   inkscape:window-height="1017"
   id="namedview49"
   showgrid="false"
   inkscape:zoom="0.921875"
   inkscape:cx="342.52024"
   inkscape:cy="50.547029"
   inkscape:window-x="1272"
   inkscape:window-y="-8"
   inkscape:window-maximized="0"
   inkscape:current-layer="Capa_1" />
















<rect
   style="opacity:0.68900003;fill:none;fill-opacity:1;fill-rule:evenodd;stroke:#ffdf65;stroke-width:19.99456978;stroke-linecap:round;stroke-linejoin:round;stroke-miterlimit:4;stroke-dasharray:none;stroke-opacity:1;paint-order:normal"
   id="rect4563"
   width="438.11832"
   height="125.79636"
   x="9.9972849"
   y="37.664532"
   ry="62.898174"
   rx="0" /><g
   id="g4637"
   transform="matrix(0.27976359,0,0,0.27976359,193.24676,-0.55952718)"><path
     id="path4579"
     d="m 87.937,252 -17.48,-43.047 -43.993,14.941 46.849,-102.465 61.473,28.106 z"
     inkscape:connector-curvature="0"
     style="fill:#ff4397" /><path
     id="path4581"
     d="m 128.157,146.504 -43.99,96.212 3.77,9.284 46.849,-102.465 z"
     inkscape:connector-curvature="0"
     style="fill:#e12579" /><path
     id="path4583"
     d="m 79.941,124.459 -43.989,96.212 -9.488,3.223 46.849,-102.465 z"
     inkscape:connector-curvature="0"
     style="fill:#ff61b5" /><path
     id="path4585"
     d="m 87.937,254 c -0.014,0 -0.029,0 -0.043,-0.001 -0.798,-0.017 -1.51,-0.507 -1.81,-1.247 l -16.77,-41.299 -42.207,14.333 c -0.755,0.258 -1.592,0.04 -2.127,-0.553 -0.535,-0.592 -0.667,-1.446 -0.335,-2.172 L 71.493,120.596 c 0.459,-1.003 1.646,-1.447 2.65,-0.987 l 61.474,28.106 c 0.482,0.221 0.857,0.624 1.042,1.121 0.186,0.497 0.165,1.047 -0.055,1.53 L 89.756,252.831 C 89.431,253.544 88.719,254 87.937,254 Z m -17.48,-47.047 c 0.793,0 1.539,0.475 1.853,1.248 l 15.736,38.751 44.089,-96.43 L 74.3,124.079 30.211,220.509 69.814,207.06 c 0.213,-0.073 0.43,-0.107 0.643,-0.107 z"
     inkscape:connector-curvature="0"
     style="fill:#690589" /><path
     id="path4587"
     d="m 168.063,252 17.48,-43.047 43.993,14.941 -46.849,-102.465 -61.473,28.106 z"
     inkscape:connector-curvature="0"
     style="fill:#ff4397" /><path
     id="path4589"
     d="m 127.843,146.504 43.99,96.212 -3.77,9.284 -46.849,-102.465 z"
     inkscape:connector-curvature="0"
     style="fill:#ff61b5" /><path
     id="path4591"
     d="m 176.059,124.459 43.989,96.212 9.488,3.223 -46.849,-102.465 z"
     inkscape:connector-curvature="0"
     style="fill:#e12579" /><path
     id="path4593"
     d="m 168.062,254 c -0.781,0 -1.493,-0.456 -1.819,-1.169 L 119.395,150.366 c -0.459,-1.004 -0.017,-2.191 0.987,-2.65 l 61.473,-28.106 c 1.005,-0.459 2.19,-0.018 2.651,0.987 l 46.849,102.465 c 0.331,0.726 0.2,1.58 -0.335,2.172 -0.535,0.594 -1.373,0.809 -2.128,0.553 l -42.206,-14.333 -16.77,41.299 c -0.301,0.74 -1.013,1.23 -1.811,1.247 -0.014,0 -0.028,0 -0.043,0 z m -44.197,-103.477 44.089,96.43 15.735,-38.751 c 0.399,-0.982 1.497,-1.48 2.497,-1.141 L 225.789,220.51 181.7,124.08 Z"
     inkscape:connector-curvature="0"
     style="fill:#690589" /><circle
     id="ellipse4595"
     transform="matrix(0.707,-0.707,0.707,0.707,-35.385,120.696)"
     cy="103.062"
     cx="128"
     r="99.061996"
     style="fill:#fcc24c" /><path
     id="path4597"
     d="m 128,4 c -1.661,0 -3.312,0.043 -4.953,0.123 52.409,2.581 94.109,45.889 94.109,98.938 0,53.049 -41.7,96.357 -94.109,98.938 1.641,0.081 3.292,0.124 4.953,0.124 54.71,0 99.062,-44.352 99.062,-99.062 C 227.062,48.351 182.71,4 128,4 Z"
     inkscape:connector-curvature="0"
     style="fill:#dea42e" /><path
     id="path4599"
     d="m 128,4 c 1.661,0 3.312,0.043 4.953,0.123 -52.409,2.581 -94.109,45.889 -94.109,98.938 0,53.049 41.7,96.357 94.109,98.938 -1.641,0.081 -3.292,0.124 -4.953,0.124 -54.71,0 -99.062,-44.352 -99.062,-99.062 C 28.938,48.351 73.29,4 128,4 Z"
     inkscape:connector-curvature="0"
     style="fill:#fce06a" /><g
     id="g4607"
     style="fill:#690589"><path
       id="path4601"
       d="M 128,204.124 C 72.274,204.124 26.938,158.788 26.938,103.062 26.938,47.336 72.274,2 128,2 c 55.726,0 101.061,45.336 101.061,101.062 0,55.726 -45.335,101.062 -101.061,101.062 z M 128,6 c -53.52,0 -97.062,43.542 -97.062,97.062 0,53.52 43.542,97.062 97.062,97.062 53.519,0 97.061,-43.542 97.061,-97.062 C 225.061,49.542 181.519,6 128,6 Z"
       inkscape:connector-curvature="0" /><path
       id="path4603"
       d="m 128,183.364 c -44.279,0 -80.303,-36.023 -80.303,-80.303 0,-44.279 36.023,-80.302 80.303,-80.302 44.28,0 80.303,36.023 80.303,80.302 0,44.28 -36.024,80.303 -80.303,80.303 z m 0,-156.605 c -42.073,0 -76.303,34.229 -76.303,76.302 0,42.073 34.229,76.303 76.303,76.303 42.074,0 76.303,-34.23 76.303,-76.303 0,-42.073 -34.23,-76.302 -76.303,-76.302 z"
       inkscape:connector-curvature="0" /><path
       id="path4605"
       d="m 42.246,76.338 c -0.218,0 -0.44,-0.036 -0.658,-0.112 -1.043,-0.364 -1.594,-1.504 -1.23,-2.547 1.445,-4.146 3.154,-8.256 5.08,-12.216 0.482,-0.993 1.679,-1.407 2.673,-0.924 0.993,0.483 1.407,1.68 0.924,2.673 -1.857,3.82 -3.506,7.785 -4.9,11.784 -0.288,0.825 -1.062,1.342 -1.889,1.342 z"
       inkscape:connector-curvature="0" /></g><path
     id="path4609"
     d="m 137.339,146.333 c 0,4.839 -4.319,8.515 -9.067,8.023 -4.158,-0.43 -7.216,-4.13 -7.216,-8.31 V 74.165 l -5.867,3.374 c -1.32,0.88 -2.787,1.173 -4.107,1.173 -2.787,0 -5.427,-1.467 -6.895,-4.107 -2.493,-3.667 -1.174,-8.801 2.641,-11.001 l 15.733,-9.338 c 1.511,-0.897 3.236,-1.37 4.993,-1.37 5.403,0 9.783,4.38 9.783,9.783 v 83.654 z"
     inkscape:connector-curvature="0"
     style="fill:#f4efed" /><path
     id="path4611"
     d="m 129.116,156.4 c -0.349,0 -0.7,-0.018 -1.05,-0.054 -5.052,-0.523 -9.009,-5.047 -9.009,-10.3 V 77.622 l -2.817,1.62 c -1.47,0.962 -3.251,1.47 -5.157,1.47 -3.595,0 -6.803,-1.889 -8.6,-5.058 -1.45,-2.176 -1.918,-4.81 -1.318,-7.427 0.615,-2.685 2.316,-5.001 4.664,-6.356 l 15.712,-9.325 c 1.819,-1.08 3.898,-1.65 6.014,-1.65 6.497,0 11.783,5.286 11.783,11.783 v 83.653 c 0,2.85 -1.178,5.481 -3.317,7.41 -1.903,1.717 -4.373,2.658 -6.905,2.658 z m -8.059,-84.235 c 0.346,0 0.692,0.09 1.002,0.269 0.618,0.357 0.998,1.017 0.998,1.731 v 71.881 c 0,3.23 2.381,6.006 5.421,6.321 1.764,0.18 3.538,-0.399 4.865,-1.595 1.287,-1.161 1.996,-2.738 1.996,-4.44 V 62.68 c 0,-4.292 -3.491,-7.783 -7.783,-7.783 -1.397,0 -2.771,0.377 -3.972,1.09 l -15.734,9.337 c -1.41,0.814 -2.418,2.193 -2.785,3.797 -0.355,1.551 -0.079,3.1 0.777,4.36 0.034,0.05 0.065,0.1 0.094,0.153 1.072,1.928 2.996,3.079 5.147,3.079 1.155,0 2.164,-0.282 2.997,-0.837 0.037,-0.024 0.074,-0.048 0.112,-0.07 l 5.867,-3.374 c 0.309,-0.178 0.653,-0.267 0.998,-0.267 z"
     inkscape:connector-curvature="0"
     style="fill:#690589" /></g></svg>