<svg id="Layer_35" enable-background="new 0 0 64 64" height="512" viewBox="0 0 64 64" width="512" xmlns="http://www.w3.org/2000/svg"><path d="m26.68 34h2.32c.67 0 1.29-.22 1.79-.6 2.88 2.85 6.84 4.6 11.21 4.6 8.84 0 16-7.16 16-16s-7.16-16-16-16c-4.41 0-8.41 1.79-11.31 4.69-1.39 1.38-2.52 3.01-3.33 4.83-1.05-.82-2.24-1.47-3.53-1.89 3.17-6.87 10.11-11.63 18.17-11.63 11.05 0 20 8.95 20 20s-8.95 20-20 20c-6.31 0-11.93-2.92-15.6-7.48.1-.17.19-.34.27-.52z" fill="#fcd770"/><path d="m42 6c8.84 0 16 7.16 16 16s-7.16 16-16 16c-4.37 0-8.33-1.75-11.21-4.6.74-.54 1.21-1.41 1.21-2.4v-6c0-3.32-1.34-6.32-3.51-8.49-.36-.36-.73-.69-1.13-.99.81-1.82 1.94-3.45 3.33-4.83 2.9-2.9 6.9-4.69 11.31-4.69z" fill="#69d6f4"/><path d="m8 62h-6v-6.63c0-3.89 2.25-7.42 5.77-9.06l5.61-2.62 1.62 7.31 3.57-3.57-1.57 14.57z" fill="#b4dd7f"/><path d="m32 62h-9l-1.57-14.57 3.57 3.57 1.62-7.31 5.61 2.62c3.52 1.64 5.77 5.17 5.77 9.06v6.63z" fill="#b4dd7f"/><path d="m26.62 43.69-1.62 7.31-3.57-3.57-1.43-1.43 3.84-3.84c.25.27.55.49.89.65z" fill="#e6e9ed"/><path d="m18.57 47.43 1.43-1.43 1.43 1.43 1.57 14.57h-6z" fill="#ff826e"/><path d="m20 46-1.43 1.43-3.57 3.57-1.62-7.31 1.89-.88c.34-.16.64-.38.89-.65z" fill="#e6e9ed"/><path d="m11 28c-1.66 0-3 1.34-3 3v-6c0-6.63 5.37-12 12-12 1.34 0 2.63.22 3.83.63 1.29.42 2.48 1.07 3.53 1.89.4.3.77.63 1.13.99 2.17 2.17 3.51 5.17 3.51 8.49v6c0-.83-.34-1.58-.88-2.12s-1.29-.88-2.12-.88h-1v-2h-3.17c-1.91 0-3.79-.26-5.62-.76-1.82-.51-3.57-1.26-5.21-2.24l-2 3v2z" fill="#656d78"/><g fill="#f0d0b4"><path d="m23.84 42.16-3.84 3.84-3.84-3.84c.53-.54.84-1.28.84-2.07v-1.72c.9.67 1.91 1.22 3 1.63 1.09-.41 2.1-.96 3-1.63v1.72c0 .79.31 1.53.84 2.07z"/><path d="m30.79 33.4c-.5.38-1.12.6-1.79.6h-2.32-.01c.86-1.68 1.33-3.57 1.33-5.54v-.46h1c.83 0 1.58.34 2.12.88s.88 1.29.88 2.12c0 .99-.47 1.86-1.21 2.4z"/><path d="m28 28v.46c0 1.97-.47 3.86-1.33 5.54-.08.18-.17.35-.27.52-.84 1.5-2 2.81-3.4 3.85-.9.67-1.91 1.22-3 1.63-1.09-.41-2.1-.96-3-1.63-1.09-.81-2.04-1.79-2.8-2.89-.33-.47-.62-.96-.87-1.48-.86-1.68-1.33-3.57-1.33-5.54v-.46-2l2-3c1.64.98 3.39 1.73 5.21 2.24 1.83.5 3.71.76 5.62.76h3.17z"/><path d="m12 28.46c0 1.97.47 3.86 1.33 5.54h-.01-2.32c-.83 0-1.58-.34-2.12-.88s-.88-1.29-.88-2.12c0-1.66 1.34-3 3-3h1z"/></g><path d="m42 1c-7.878 0-15.114 4.469-18.689 11.444-1.059-.28-2.165-.444-3.311-.444-7.168 0-13 5.832-13 13v6c0 2.206 1.794 4 4 4h1.739c.833 1.47 1.937 2.78 3.261 3.847v1.242c0 .773-.453 1.485-1.154 1.812l-7.498 3.499c-3.856 1.8-6.348 5.713-6.348 9.969v7.631h38v-7.631c0-4.256-2.492-8.168-6.348-9.968l-7.498-3.499c-.701-.327-1.154-1.039-1.154-1.813v-1.242c.959-.773 1.803-1.673 2.513-2.669 3.977 4.35 9.547 6.822 15.487 6.822 11.58 0 21-9.42 21-21s-9.42-21-21-21zm-22 13c6.065 0 11 4.935 11 11v2.556c-.591-.344-1.268-.556-2-.556v-2h-4.169c-3.633 0-7.201-.988-10.316-2.857l-.818-.491-2.697 4.045v1.303c-.732 0-1.409.212-2 .556v-2.556c0-6.065 4.935-11 11-11zm10.712-1.873 2.802 2.802 1.414-1.414-2.804-2.804c2.442-2.133 5.549-3.452 8.876-3.674v3.963h2v-3.949c3.383.225 6.457 1.569 8.861 3.674l-2.79 2.79 1.414 1.414 2.79-2.79c2.105 2.404 3.45 5.478 3.674 8.861h-3.949v2h3.949c-.225 3.383-1.569 6.457-3.674 8.861l-2.79-2.79-1.414 1.414 2.79 2.79c-2.404 2.105-5.478 3.45-8.861 3.674v-3.949h-2v3.951c-3.26-.214-6.313-1.463-8.782-3.597.486-.662.782-1.471.782-2.354v-6c0-3.871-1.709-7.341-4.402-9.725.577-1.149 1.288-2.205 2.114-3.148zm-1.733 16.873h.021c1.103 0 2 .897 2 2s-.897 2-2 2h-.817c.464-1.269.738-2.614.796-4zm-17.979 4c-1.103 0-2-.897-2-2s.897-2 2-2h.021c.057 1.386.331 2.731.796 4zm4.691 10.714c.136-.064.264-.141.391-.218l2.504 2.504-3.005 3.005-1.055-4.747zm4.781 4.172 1.414 13.114h-3.773l1.414-13.114.473-.472zm-17.472 7.483c0-3.482 2.039-6.683 5.194-8.156l4.476-2.089 1.749 7.871 2.854-2.854-1.171 10.859h-7.102v-6h-2v6h-4zm34 0v5.631h-4v-6h-2v6h-7.102l-1.171-10.859 2.854 2.854 1.749-7.871 4.476 2.089c3.155 1.473 5.194 4.674 5.194 8.156zm-11.526-11.111-1.055 4.747-3.005-3.005 2.504-2.504c.127.078.254.154.391.218zm-2.944-2.202-2.53 2.53-2.53-2.53c.322-.567.51-1.21.524-1.882.53.288 1.08.547 1.655.763l.351.131.351-.131c.575-.216 1.125-.475 1.655-.763.015.672.202 1.315.524 1.882zm-2.53-3.131c-4.203-1.74-7-5.899-7-10.469v-2.153l1.314-1.972c3.225 1.749 6.84 2.669 10.517 2.669h2.169v1.456c0 4.57-2.797 8.73-7 10.469zm22 2.075c-5.294 0-10.261-2.173-13.848-6h.848c.591 0 1.148-.137 1.653-.368 3.124 2.812 7.112 4.368 11.347 4.368 9.374 0 17-7.626 17-17s-7.626-17-17-17c-6.323 0-12.096 3.514-15.027 9.047-.558-.357-1.143-.675-1.755-.945 3.278-6.167 9.749-10.102 16.782-10.102 10.477 0 19 8.523 19 19s-8.523 19-19 19z"/><path d="m47 21h-4v-6h-2v8h6z"/></svg>