<?xml version="1.0" encoding="UTF-8" standalone="no"?>
<!-- Generator: Adobe Illustrator 21.0.0, SVG Export Plug-In . SVG Version: 6.00 Build 0)  -->

<svg
   xmlns:dc="http://purl.org/dc/elements/1.1/"
   xmlns:cc="http://creativecommons.org/ns#"
   xmlns:rdf="http://www.w3.org/1999/02/22-rdf-syntax-ns#"
   xmlns:svg="http://www.w3.org/2000/svg"
   xmlns="http://www.w3.org/2000/svg"
   xmlns:sodipodi="http://sodipodi.sourceforge.net/DTD/sodipodi-0.dtd"
   xmlns:inkscape="http://www.inkscape.org/namespaces/inkscape"
   version="1.1"
   id="Capa_1"
   x="0px"
   y="0px"
   viewBox="0 0 458.1129 173.45817"
   xml:space="preserve"
   width="458.2373"
   height="173.50528"
   sodipodi:docname="segundof1.svg"
   inkscape:version="0.92.3 (2405546, 2018-03-11)"><metadata
   id="metadata53"><rdf:RDF><cc:Work
       rdf:about=""><dc:format>image/svg+xml</dc:format><dc:type
         rdf:resource="http://purl.org/dc/dcmitype/StillImage" /><dc:title></dc:title></cc:Work></rdf:RDF></metadata><defs
   id="defs51" /><sodipodi:namedview
   pagecolor="#ffffff"
   bordercolor="#666666"
   borderopacity="1"
   objecttolerance="10"
   gridtolerance="10"
   guidetolerance="10"
   inkscape:pageopacity="0"
   inkscape:pageshadow="2"
   inkscape:window-width="1280"
   inkscape:window-height="1017"
   id="namedview49"
   showgrid="false"
   inkscape:zoom="0.921875"
   inkscape:cx="233.97889"
   inkscape:cy="143.75897"
   inkscape:window-x="1272"
   inkscape:window-y="-8"
   inkscape:window-maximized="0"
   inkscape:current-layer="g4757" />
















<rect
   style="opacity:0.68900003;fill:none;fill-opacity:1;fill-rule:evenodd;stroke:#bdbcb2;stroke-width:19.99456978;stroke-linecap:round;stroke-linejoin:round;stroke-miterlimit:4;stroke-dasharray:none;stroke-opacity:1;paint-order:normal"
   id="rect4563"
   width="438.11832"
   height="125.79636"
   x="9.9972849"
   y="37.664532"
   ry="62.898174"
   rx="0" /><g
   id="g4757"
   transform="matrix(0.27810581,0,0,0.27810581,194.62311,-0.602661)"><path
     id="path4699"
     d="m 87.937,252 -17.48,-43.047 -43.993,14.941 46.849,-102.465 61.473,28.106 z"
     inkscape:connector-curvature="0"
     style="fill:#7bac51" /><path
     id="path4701"
     d="m 128.157,146.504 -43.99,96.212 3.77,9.284 46.849,-102.465 z"
     inkscape:connector-curvature="0"
     style="fill:#5d8e33" /><path
     id="path4703"
     d="m 79.941,124.459 -43.989,96.212 -9.488,3.223 46.849,-102.465 z"
     inkscape:connector-curvature="0"
     style="fill:#99ca6f" /><path
     id="path4705"
     d="m 87.938,254 c -0.015,0 -0.028,0 -0.043,0 -0.798,-0.017 -1.51,-0.507 -1.811,-1.247 L 69.313,211.454 27.107,225.787 c -0.755,0.259 -1.593,0.04 -2.128,-0.553 -0.535,-0.592 -0.666,-1.446 -0.335,-2.172 L 71.493,120.597 c 0.461,-1.004 1.649,-1.447 2.651,-0.987 l 61.474,28.106 c 0.482,0.221 0.857,0.624 1.042,1.121 0.186,0.497 0.165,1.047 -0.055,1.53 L 89.757,252.832 C 89.431,253.544 88.719,254 87.938,254 Z M 70.457,206.953 c 0.793,0 1.539,0.475 1.854,1.248 l 15.735,38.751 44.09,-96.43 L 74.3,124.079 30.211,220.509 69.814,207.06 c 0.212,-0.073 0.429,-0.107 0.643,-0.107 z"
     inkscape:connector-curvature="0"
     style="fill:#690589" /><path
     id="path4707"
     d="m 168.063,252 17.48,-43.047 43.993,14.941 -46.849,-102.465 -61.473,28.106 z"
     inkscape:connector-curvature="0"
     style="fill:#7bac51" /><path
     id="path4709"
     d="m 127.843,146.504 43.99,96.212 -3.77,9.284 -46.849,-102.465 z"
     inkscape:connector-curvature="0"
     style="fill:#99ca6f" /><path
     id="path4711"
     d="m 176.059,124.459 43.989,96.212 9.488,3.223 -46.849,-102.465 z"
     inkscape:connector-curvature="0"
     style="fill:#5d8e33" /><path
     id="path4713"
     d="m 168.062,254 c -0.781,0 -1.493,-0.456 -1.819,-1.168 L 119.394,150.367 c -0.22,-0.482 -0.24,-1.033 -0.055,-1.53 0.185,-0.497 0.56,-0.9 1.042,-1.121 l 61.474,-28.106 c 1.005,-0.459 2.19,-0.017 2.651,0.987 l 46.849,102.465 c 0.331,0.726 0.2,1.58 -0.335,2.172 -0.535,0.594 -1.374,0.809 -2.128,0.553 l -42.206,-14.333 -16.771,41.299 c -0.301,0.74 -1.013,1.23 -1.811,1.247 -0.013,0 -0.027,0 -0.042,0 z m -44.198,-103.478 44.09,96.43 15.735,-38.751 c 0.399,-0.982 1.495,-1.48 2.497,-1.141 l 39.603,13.449 -44.089,-96.43 z"
     inkscape:connector-curvature="0"
     style="fill:#690589" /><circle
     id="ellipse4715"
     transform="matrix(0.707,-0.707,0.707,0.707,-35.385,120.696)"
     cy="103.062"
     cx="128"
     r="99.061996"
     style="fill:#dcd6d6;fill-opacity:1" /><path
     id="path4717"
     d="m 128,4 c -1.661,0 -3.312,0.043 -4.953,0.123 52.409,2.581 94.109,45.889 94.109,98.938 0,53.049 -41.7,96.357 -94.109,98.938 1.641,0.081 3.292,0.124 4.953,0.124 54.71,0 99.062,-44.352 99.062,-99.062 C 227.062,48.351 182.71,4 128,4 Z"
     inkscape:connector-curvature="0"
     style="fill:#c5bbbb;fill-opacity:1" /><path
     id="path4719"
     d="m 128,4 c 1.661,0 3.312,0.043 4.953,0.123 -52.409,2.581 -94.109,45.889 -94.109,98.938 0,53.049 41.7,96.357 94.109,98.938 -1.641,0.081 -3.292,0.124 -4.953,0.124 -54.71,0 -99.062,-44.352 -99.062,-99.062 C 28.938,48.351 73.29,4 128,4 Z"
     inkscape:connector-curvature="0"
     style="fill:#a99999;fill-opacity:1" /><g
     id="g4727"
     style="fill:#690589"><path
       id="path4721"
       d="M 128,204.124 C 72.274,204.124 26.938,158.788 26.938,103.062 26.938,47.336 72.274,2 128,2 c 55.726,0 101.062,45.336 101.062,101.062 0,55.726 -45.336,101.062 -101.062,101.062 z M 128,6 c -53.52,0 -97.062,43.542 -97.062,97.062 0,53.52 43.542,97.062 97.062,97.062 53.52,0 97.062,-43.542 97.062,-97.062 C 225.062,49.542 181.52,6 128,6 Z"
       inkscape:connector-curvature="0" /><path
       id="path4723"
       d="m 128,183.364 c -44.279,0 -80.303,-36.023 -80.303,-80.303 0,-44.279 36.023,-80.302 80.303,-80.302 44.28,0 80.303,36.023 80.303,80.302 0,44.28 -36.024,80.303 -80.303,80.303 z m 0,-156.605 c -42.073,0 -76.303,34.229 -76.303,76.302 0,42.073 34.23,76.303 76.303,76.303 42.073,0 76.303,-34.229 76.303,-76.303 0,-42.074 -34.23,-76.302 -76.303,-76.302 z"
       inkscape:connector-curvature="0" /><path
       id="path4725"
       d="m 42.246,76.338 c -0.219,0 -0.44,-0.036 -0.658,-0.112 -1.043,-0.363 -1.594,-1.504 -1.23,-2.547 1.444,-4.145 3.153,-8.255 5.079,-12.216 0.484,-0.995 1.68,-1.407 2.674,-0.924 0.993,0.483 1.406,1.68 0.924,2.673 -1.858,3.821 -3.507,7.786 -4.899,11.784 -0.288,0.825 -1.063,1.342 -1.89,1.342 z"
       inkscape:connector-curvature="0" /></g><path
     id="path4729"
     d="m 162.227,146.333 c 0,4.547 -3.52,8.068 -8.067,8.068 h -51.926 c 0,0 0,0 -0.146,0 h -0.147 c -2.2,0 -4.547,-0.88 -6.013,-2.64 -3.081,-3.374 -2.787,-8.361 0.44,-11.441 l 43.417,-39.311 c 4.255,-3.814 6.161,-8.801 6.161,-14.082 0,-4.694 -1.614,-9.094 -4.841,-12.761 -3.814,-4.254 -8.948,-6.16 -14.082,-6.16 -4.547,0 -9.095,1.614 -12.761,4.84 l -4.548,4.107 c -3.373,3.08 -8.36,2.787 -11.44,-0.587 -2.934,-3.374 -2.787,-8.361 0.586,-11.441 l 4.548,-4.108 c 6.601,-6.16 15.254,-9.094 23.615,-9.094 9.535,0 19.215,3.961 26.109,11.588 6.161,6.601 9.094,15.255 9.094,23.616 0,9.534 -3.961,19.215 -11.587,26.11 l -27.723,25.082 h 31.243 c 4.547,-0.001 8.068,3.667 8.068,8.214 z"
     inkscape:connector-curvature="0"
     style="fill:#f4efed" /><path
     id="path4731"
     d="M 154.159,156.4 H 101.94 c -2.974,0 -5.797,-1.256 -7.55,-3.359 -3.696,-4.044 -3.461,-10.298 0.596,-14.169 l 43.455,-39.346 c 3.604,-3.23 5.504,-7.584 5.504,-12.599 0,-4.256 -1.502,-8.212 -4.342,-11.44 -3.165,-3.53 -7.637,-5.481 -12.58,-5.481 -4.196,0 -8.259,1.542 -11.44,4.342 l -4.528,4.09 c -2.018,1.842 -4.601,2.783 -7.277,2.64 -2.652,-0.142 -5.131,-1.336 -6.98,-3.362 -3.715,-4.271 -3.387,-10.522 0.715,-14.267 l 4.556,-4.115 c 6.632,-6.189 15.503,-9.61 24.956,-9.61 10.501,0 20.558,4.464 27.592,12.248 6.19,6.63 9.611,15.501 9.611,24.957 0,10.5 -4.463,20.558 -12.246,27.593 l -23.873,21.599 h 26.052 c 5.646,0 10.067,4.486 10.067,10.214 -0.001,5.643 -4.423,10.065 -10.069,10.065 z M 127.023,66.005 c 6.095,0 11.624,2.424 15.57,6.825 3.505,3.983 5.352,8.853 5.352,14.097 0,6.184 -2.36,11.568 -6.826,15.571 L 97.71,141.801 c -2.472,2.36 -2.62,6.077 -0.307,8.61 1.047,1.253 2.763,1.989 4.537,1.989 h 52.219 c 3.459,0 6.067,-2.608 6.067,-6.068 0,-3.484 -2.665,-6.214 -6.067,-6.214 h -31.243 c -0.827,0 -1.569,-0.509 -1.866,-1.281 -0.298,-0.771 -0.089,-1.647 0.524,-2.202 l 27.724,-25.083 c 6.945,-6.279 10.929,-15.255 10.929,-24.626 0,-8.438 -3.039,-16.34 -8.557,-22.251 -6.3,-6.97 -15.274,-10.953 -24.646,-10.953 -8.437,0 -16.339,3.039 -22.251,8.556 l -4.571,4.13 c -2.519,2.299 -2.702,6.018 -0.418,8.644 1.104,1.21 2.61,1.943 4.207,2.029 1.606,0.085 3.147,-0.485 4.375,-1.607 l 4.556,-4.114 c 3.931,-3.459 8.932,-5.355 14.101,-5.355 z"
     inkscape:connector-curvature="0"
     style="fill:#690589" /></g></svg>