<?xml version="1.0" encoding="UTF-8" standalone="no"?>
<!-- Created with Inkscape (http://www.inkscape.org/) -->

<svg
   xmlns:dc="http://purl.org/dc/elements/1.1/"
   xmlns:cc="http://creativecommons.org/ns#"
   xmlns:rdf="http://www.w3.org/1999/02/22-rdf-syntax-ns#"
   xmlns:svg="http://www.w3.org/2000/svg"
   xmlns="http://www.w3.org/2000/svg"
   xmlns:sodipodi="http://sodipodi.sourceforge.net/DTD/sodipodi-0.dtd"
   xmlns:inkscape="http://www.inkscape.org/namespaces/inkscape"
   width="178.4256mm"
   height="198.22275mm"
   viewBox="0 0 178.4256 198.22275"
   version="1.1"
   id="svg8"
   inkscape:version="0.92.3 (2405546, 2018-03-11)"
   sodipodi:docname="slide1.svg">
  <defs
     id="defs2" />
  <sodipodi:namedview
     id="base"
     pagecolor="#ffffff"
     bordercolor="#666666"
     borderopacity="1.0"
     inkscape:pageopacity="0.0"
     inkscape:pageshadow="2"
     inkscape:zoom="0.49497475"
     inkscape:cx="266.69927"
     inkscape:cy="374.72396"
     inkscape:document-units="mm"
     inkscape:current-layer="g4660"
     showgrid="false"
     inkscape:window-width="1278"
     inkscape:window-height="1001"
     inkscape:window-x="1273"
     inkscape:window-y="0"
     inkscape:window-maximized="0"
     fit-margin-top="0"
     fit-margin-left="0"
     fit-margin-right="0"
     fit-margin-bottom="0" />
  <metadata
     id="metadata5">
    <rdf:RDF>
      <cc:Work
         rdf:about="">
        <dc:format>image/svg+xml</dc:format>
        <dc:type
           rdf:resource="http://purl.org/dc/dcmitype/StillImage" />
        <dc:title></dc:title>
      </cc:Work>
    </rdf:RDF>
  </metadata>
  <g
     inkscape:label="Capa 1"
     inkscape:groupmode="layer"
     id="layer1"
     transform="translate(-17.557611,-50.717684)">
    <g
       id="g4660"
       transform="matrix(0.16198979,0,0,0.16270693,85.719601,101.51072)">
      <ellipse
         id="circle4518"
         cy="366.86951"
         cx="129.95143"
         style="fill:#aee8fc;fill-opacity:0.96482412;stroke:#fdfdfd;stroke-width:2.21976924;stroke-opacity:1"
         rx="549.62109"
         ry="538.12653" />
      <path
         id="path4520"
         d="M 169.21008,575.07834 V 457.31648 c -4.63252,1.1114 -9.47143,1.71103 -14.45391,1.71103 h -49.60948 c -4.98248,0 -9.821388,-0.59963 -14.453908,-1.71103 v 117.76186 z"
         style="fill:#ffaf10;stroke-width:2.21976924"
         inkscape:connector-curvature="0" />
      <path
         id="path4522"
         d="M 125.46473,575.07834 V 459.02751 h -20.31804 c -4.98248,0 -9.821388,-0.59963 -14.453908,-1.71103 v 117.76186 z"
         style="fill:#ef9614;stroke-width:2.21976924"
         inkscape:connector-curvature="0" />
      <path
         id="path4524"
         d="m 129.95143,406.41191 c -30.067638,0 -58.863298,-5.4208 -85.440288,-15.28938 v 10.82842 c 0,32.78619 27.1468,59.36524 60.635548,59.36524 h 49.60948 c 33.48875,0 60.63554,-26.57905 60.63554,-59.36524 v -10.82842 c -26.57922,9.86858 -55.37264,15.28938 -85.44028,15.28938 z"
         style="fill:#ffd00d;stroke-width:2.21976924"
         inkscape:connector-curvature="0" />
      <path
         id="path4526"
         d="M 114.01017,405.88477 C 89.696732,404.3253 66.354662,399.23396 44.513392,391.12253 v 10.82842 c 0,32.78619 27.14679,59.36524 60.635538,59.36524 h 49.60948 c 3.36278,0 6.65827,-0.27894 9.87075,-0.79511 -27.50125,-4.41044 -48.76598,-26.92609 -50.61899,-54.63631 z"
         style="fill:#ffaf10;stroke-width:2.21976924"
         inkscape:connector-curvature="0" />
      <path
         id="path4528"
         d="m 217.44214,619.4595 v -37.33939 c 0,-6.0402 -5.04754,-10.98218 -11.21676,-10.98218 H 53.677482 c -6.16922,0 -11.21676,4.94198 -11.21676,10.98218 v 37.33939 z"
         style="fill:#ef8318;stroke-width:2.21976924"
         inkscape:connector-curvature="0" />
      <path
         id="path4530"
         d="m 109.76126,619.4595 v -37.33939 c 0,-6.0402 5.04755,-10.98218 11.21676,-10.98218 H 53.677482 c -6.16922,0 -11.21676,4.94198 -11.21676,10.98218 v 37.33939 z"
         style="fill:#db722c;stroke-width:2.21976924"
         inkscape:connector-curvature="0" />
      <path
         id="path4532"
         d="M 341.94815,806.15641 V 626.0488 c 0,-6.04019 -5.04755,-10.98217 -11.21676,-10.98217 H -70.828538 c -6.16922,0 -11.21676,4.94198 -11.21676,10.98217 v 180.10761 z"
         style="fill:#a05f33;stroke-width:2.21976924"
         inkscape:connector-curvature="0" />
      <path
         id="path4534"
         d="M -47.273348,806.15641 V 626.0488 c 0,-6.04019 5.04754,-10.98217 11.21676,-10.98217 h -34.77195 c -6.16922,0 -11.21676,4.94198 -11.21676,10.98217 v 180.10761 z"
         style="fill:#87502a;stroke-width:2.21976924"
         inkscape:connector-curvature="0" />
      <path
         id="path4536"
         d="m 280.30533,757.83489 c 0,6.04022 -5.04754,10.98222 -11.21675,10.98222 H -9.1857285 c -6.1692095,0 -11.2167595,-4.942 -11.2167595,-10.98222 v -92.25026 c 0,-6.0402 5.04755,-10.98218 11.2167595,-10.98218 H 269.08858 c 6.16921,0 11.21675,4.94198 11.21675,10.98218 z"
         style="fill:#293d7c;stroke-width:2.21976924"
         inkscape:connector-curvature="0" />
      <path
         id="path4538"
         d="m 24.412962,757.83489 v -92.25026 c 0,-6.0402 5.04754,-10.98218 11.21675,-10.98218 H -9.1857285 c -6.1692095,0 -11.2167595,4.94198 -11.2167595,10.98218 v 92.25026 c 0,6.04022 5.04755,10.98222 11.2167595,10.98222 H 35.629712 c -6.16921,0 -11.21675,-4.942 -11.21675,-10.98222 z"
         style="fill:#1a2b63;stroke-width:2.21976924"
         inkscape:connector-curvature="0" />
      <path
         id="path4540"
         d="m 389.05853,803.96001 h -518.21421 c -6.16922,0 -11.21676,4.942 -11.21676,10.9822 v 20.541 c 79.822942,44.234 172.053862,69.5128 270.32387,69.5128 98.27001,0 190.50092,-25.2788 270.32385,-69.515 v -20.5388 c 0,-6.0402 -5.04754,-10.9822 -11.21675,-10.9822 z"
         style="fill:#bf7e52;stroke-width:2.21976924"
         inkscape:connector-curvature="0" />
      <path
         id="path4542"
         d="m -71.950218,814.94221 c 0,-6.0402 5.04754,-10.9822 11.21676,-10.9822 h -68.422222 c -6.16922,0 -11.21676,4.942 -11.21676,10.9822 v 20.541 c 21.9153,12.1441 44.768332,22.8496 68.422222,32.0043 z"
         style="fill:#aa6b3f;stroke-width:2.21976924"
         inkscape:connector-curvature="0" />
      <path
         id="path4544"
         d="m 507.40654,-163.36963 h -86.94109 v 18.46982 c 0,4.84534 -4.02457,8.78575 -8.97341,8.78575 h -37.64568 c -1.24057,0 -2.24335,0.984 -2.24335,2.19643 v 25.45888 H 489.1995 c -4.80302,96.210427 -49.22811,182.394127 -117.59649,243.21561 v 35.05949 c 0,12.75689 -1.05213,25.27657 -3.04647,37.49095 107.05946,-73.71894 177.15971,-195.572753 177.15971,-333.16841 0,-20.68383 -17.18632,-37.50852 -38.30971,-37.50852 z"
         style="fill:#ffaf10;stroke-width:2.21976924"
         inkscape:connector-curvature="0" />
      <path
         id="path4546"
         d="M -111.69792,169.81635 V 134.75686 C -180.06406,73.935377 -224.49363,-12.248323 -229.2944,-108.45875 h 117.59648 v -25.45888 c 0,-1.21243 -1.00502,-2.19643 -2.24335,-2.19643 h -37.64792 c -4.94884,0 -8.97341,-3.94041 -8.97341,-8.78575 v -18.46982 h -86.94109 c -21.12339,0 -38.30971,16.82689 -38.30971,37.50852 0,137.597857 70.10249,259.45166 177.15971,333.1706 -1.99434,-12.21657 -3.04423,-24.73625 -3.04423,-37.49314 z"
         style="fill:#ffd00d;stroke-width:2.21976924"
         inkscape:connector-curvature="0" />
      <path
         id="path4548"
         d="m -113.94127,-136.11406 v 305.93041 c 0,131.88053 109.1951415,238.792 243.8927,238.792 134.69755,0 243.89493,-106.91147 243.89493,-238.792 v -305.93041 z"
         style="fill:#ef8318;stroke-width:2.21976924"
         inkscape:connector-curvature="0" />
      <g
         id="g4554"
         transform="matrix(2.2433515,0,0,2.1964348,-444.34657,-219.57859)">
	<path
   id="path4550"
   d="M 169,177.285 V 37.003 h -21.718 v 140.282 c 0,60.043 48.675,108.718 108.718,108.718 3.641,0 7.234,-0.193 10.782,-0.545 C 211.874,279.973 169,233.636 169,177.285 Z"
   style="fill:#db722c"
   inkscape:connector-curvature="0" />

	<circle
   id="circle4552"
   r="74"
   cy="155.5"
   cx="256"
   style="fill:#db722c" />

</g>
      <path
         id="path4556"
         d="m 6.5671015,121.96482 c 0,-82.691373 63.0852805,-150.908243 144.6961685,-161.156813 -6.98131,-0.87638 -14.08376,-1.37936 -21.31184,-1.37936 -91.683528,0 -166.008018,72.77008 -166.008018,162.536173 0,89.7661 74.32449,162.53618 166.008018,162.53618 7.22808,0 14.33053,-0.50299 21.31184,-1.37936 C 69.652382,272.87527 6.5671015,204.6562 6.5671015,121.96482 Z"
         style="fill:#c95e23;stroke-width:2.21976924"
         inkscape:connector-curvature="0" />
      <path
         id="path4558"
         d="m 187.73119,223.43791 c -2.74362,0.002 -5.55005,-0.72702 -8.33854,-2.16349 l -45.1968,-23.26244 c -0.68198,-0.35143 -2.20297,-0.76216 -4.24218,-0.76216 -2.04145,0 -3.56244,0.41073 -4.24891,0.76216 l -45.192308,23.26244 c -2.79073,1.43647 -5.59716,2.16349 -8.33854,2.16349 -4.16366,0 -7.88987,-1.6627 -10.48767,-4.6806 -2.8827,-3.34517 -3.97746,-7.98843 -3.08685,-13.07318 l 8.63242,-49.27042 c 0.37912,-2.16349 -1.01848,-6.37406 -2.62248,-7.90717 l -36.56214,-34.89476 c -4.7604,-4.54442 -6.48553,-10.17608 -4.73348,-15.451923 1.75206,-5.27583 6.52816,-8.83625 13.10566,-9.77194 l 50.52477,-7.18673 c 2.21643,-0.31629 5.87758,-2.91906 6.86914,-4.88707 l 22.595038,-44.82923 c 2.94327,-5.83593 7.87865,-9.1811 13.54535,-9.1811 5.66671,0 10.60432,3.34517 13.54311,9.1811 l 22.59728,44.82923 c 0.99157,1.96801 4.65047,4.57298 6.8669,4.88707 l 50.52701,7.18673 c 6.57526,0.93569 11.3536,4.49611 13.10342,9.77194 1.75205,5.275843 0.0292,10.907503 -4.72899,15.449723 l -36.56439,34.89696 c -1.60624,1.53092 -3.00384,5.74368 -2.62472,7.90717 l 8.63018,49.27042 c 0.89061,5.08475 -0.20415,9.72801 -3.08461,13.07318 -2.60005,3.0179 -6.32625,4.6806 -10.48767,4.6806 z"
         style="fill:#ffd00d;stroke-width:2.21976924"
         inkscape:connector-curvature="0" />
      <path
         id="path4560"
         d="m 95.628152,200.97497 9.352528,-53.38874 c 0.41054,-2.34359 -1.10373,-6.90998 -2.84232,-8.56829 L 62.518532,101.20632 c -4.86583,-4.645463 -6.76147,-10.334233 -5.37283,-15.763813 l -20.73081,2.94981 c -6.57751,0.93568 -11.3536,4.4961 -13.10566,9.77194 -1.75206,5.275833 -0.0269,10.907493 4.73347,15.451913 l 36.56214,34.89476 c 1.604,1.53092 3.00161,5.74368 2.62248,7.90717 l -8.63242,49.27042 c -0.88836,5.08475 0.20639,9.72801 3.08686,13.07318 2.60004,3.0179 6.324,4.68061 10.48766,4.68061 2.74362,0 5.54781,-0.72702 8.33854,-2.16349 l 16.76008,-8.6276 c -1.80365,-3.29904 -2.40039,-7.3317 -1.63989,-11.67625 z"
         style="fill:#ffaf10;stroke-width:2.21976924"
         inkscape:connector-curvature="0" />
      <path
         id="path4562"
         d="m 422.7088,-144.89981 c 0,6.0402 -5.04754,10.98218 -11.21676,10.98218 h -563.08123 c -6.16922,0 -11.21676,-4.94198 -11.21676,-10.98218 v -63.69661 c 0,-6.04019 5.04754,-10.98217 11.21676,-10.98217 h 563.08123 c 6.16922,0 11.21676,4.94198 11.21676,10.98217 z"
         style="fill:#ffd00d;stroke-width:2.21976924"
         inkscape:connector-curvature="0" />
      <path
         id="path4564"
         d="m -94.383728,-144.89981 v -63.69661 c 0,-6.04019 5.04754,-10.98217 11.21676,-10.98217 h -68.422222 c -6.16922,0 -11.21676,4.94198 -11.21676,10.98217 v 63.69661 c 0,6.0402 5.04754,10.98218 11.21676,10.98218 h 68.422222 c -6.16922,0 -11.21676,-4.94198 -11.21676,-10.98218 z"
         style="fill:#ffaf10;stroke-width:2.21976924"
         inkscape:connector-curvature="0" />
      <path
         id="path4566"
         d="m -159.44092,507.44132 c -2.8872,0 -5.45359,-1.80327 -6.37561,-4.48072 -12.91273,-37.458 -22.57709,-46.92024 -60.83296,-59.56073 -2.73689,-0.90493 -4.57868,-3.41765 -4.57868,-6.24446 0,-2.82681 1.84179,-5.33953 4.57644,-6.24227 38.25587,-12.64048 47.92023,-22.10492 60.83296,-59.56072 0.92426,-2.67745 3.48841,-4.48073 6.3756,-4.48073 2.8872,0 5.45359,1.80328 6.37561,4.48073 12.91273,37.4558 22.57709,46.92024 60.832962,59.56072 2.73465,0.90493 4.57868,3.41546 4.57868,6.24227 0,2.82681 -1.84179,5.33953 -4.57868,6.24446 -38.255872,12.64049 -47.920232,22.10273 -60.832962,59.56073 -0.91978,2.67745 -3.48617,4.48072 -6.37336,4.48072 z"
         style="fill:#ffd00d;stroke-width:2.21976924"
         inkscape:connector-curvature="0" />
      <g
         id="g4576"
         transform="matrix(2.2433515,0,0,2.1964348,-444.34657,-219.57859)">
	<path
   id="path4568"
   d="m 375.5,298 c -1.025,0 -1.938,-0.654 -2.266,-1.625 -4.586,-13.59 -8.02,-17.023 -21.609,-21.609 -0.97,-0.329 -1.625,-1.24 -1.625,-2.266 0,-1.025 0.655,-1.937 1.625,-2.265 13.59,-4.586 17.023,-8.02 21.609,-21.609 0.328,-0.972 1.24,-1.626 2.266,-1.626 1.026,0 1.936,0.654 2.266,1.626 4.586,13.589 8.02,17.022 21.609,21.609 0.97,0.328 1.625,1.24 1.625,2.265 0,1.026 -0.655,1.937 -1.625,2.266 -13.59,4.587 -17.023,8.019 -21.609,21.609 -0.33,0.971 -1.241,1.625 -2.266,1.625 z"
   style="fill:#ffffff"
   inkscape:connector-curvature="0" />

	<path
   id="path4570"
   d="m 283,419 h -54 c -2.761,0 -5,-2.239 -5,-5 0,-2.761 2.239,-5 5,-5 h 54 c 2.762,0 5,2.239 5,5 0,2.761 -2.238,5 -5,5 z"
   style="fill:#ffffff"
   inkscape:connector-curvature="0" />

	<path
   id="path4572"
   d="m 271,437 h -30 c -2.761,0 -5,-2.239 -5,-5 0,-2.761 2.239,-5 5,-5 h 30 c 2.762,0 5,2.239 5,5 0,2.761 -2.238,5 -5,5 z"
   style="fill:#ffffff"
   inkscape:connector-curvature="0" />

	<path
   id="path4574"
   d="m 195,80 c -0.965,0 -1.823,-0.616 -2.132,-1.53 C 188.551,65.68 185.32,62.449 172.53,58.132 171.616,57.823 171,56.965 171,56 c 0,-0.965 0.616,-1.823 1.53,-2.132 12.79,-4.316 16.021,-7.548 20.338,-20.338 0.309,-0.914 1.167,-1.53 2.132,-1.53 0.965,0 1.823,0.616 2.132,1.53 4.317,12.79 7.548,16.021 20.338,20.338 0.914,0.309 1.53,1.167 1.53,2.132 0,0.965 -0.616,1.823 -1.53,2.132 C 204.68,62.449 201.449,65.68 197.132,78.47 196.823,79.384 195.965,80 195,80 Z"
   style="fill:#ffffff"
   inkscape:connector-curvature="0" />

</g>
      <g
         id="g4578">
</g>
      <g
         id="g4580">
</g>
      <g
         id="g4582">
</g>
      <g
         id="g4584">
</g>
      <g
         id="g4586">
</g>
      <g
         id="g4588">
</g>
      <g
         id="g4590">
</g>
      <g
         id="g4592">
</g>
      <g
         id="g4594">
</g>
      <g
         id="g4596">
</g>
      <g
         id="g4598">
</g>
      <g
         id="g4600">
</g>
      <g
         id="g4602">
</g>
      <g
         id="g4604">
</g>
      <g
         id="g4606">
</g>
      <path
         id="path4566-4"
         d="m 453.87138,-265.41231 c -0.95195,0 -1.79812,-0.59989 -2.10212,-1.49059 -4.25747,-12.46098 -7.44391,-15.60875 -20.05731,-19.8138 -0.90239,-0.30104 -1.50964,-1.13694 -1.50964,-2.07732 0,-0.94038 0.60725,-1.77628 1.5089,-2.07659 12.6134,-4.20505 15.79984,-7.35354 20.05731,-19.8138 0.30474,-0.89069 1.15017,-1.49058 2.10211,-1.49058 0.95195,0 1.79812,0.59989 2.10211,1.49058 4.25748,12.46026 7.44392,15.60875 20.05732,19.8138 0.90162,0.30105 1.50964,1.13621 1.50964,2.07659 0,0.94038 -0.60728,1.77628 -1.50964,2.07732 -12.6134,4.20505 -15.79984,7.35282 -20.05732,19.8138 -0.30325,0.8907 -1.14942,1.49059 -2.10136,1.49059 z"
         style="fill:#ffd00d;stroke-width:0.73515445"
         inkscape:connector-curvature="0" />
    </g>
  </g>
</svg>
