<?xml version="1.0" encoding="UTF-8" standalone="no"?>
<!-- Created with Inkscape (http://www.inkscape.org/) -->

<svg
   xmlns:dc="http://purl.org/dc/elements/1.1/"
   xmlns:cc="http://creativecommons.org/ns#"
   xmlns:rdf="http://www.w3.org/1999/02/22-rdf-syntax-ns#"
   xmlns:svg="http://www.w3.org/2000/svg"
   xmlns="http://www.w3.org/2000/svg"
   xmlns:sodipodi="http://sodipodi.sourceforge.net/DTD/sodipodi-0.dtd"
   xmlns:inkscape="http://www.inkscape.org/namespaces/inkscape"
   width="135.4664mm"
   height="130.43958mm"
   viewBox="0 0 135.4664 130.43958"
   version="1.1"
   id="svg5467"
   inkscape:version="0.92.3 (2405546, 2018-03-11)"
   sodipodi:docname="slide3.svg">
  <defs
     id="defs5461" />
  <sodipodi:namedview
     id="base"
     pagecolor="#ffffff"
     bordercolor="#666666"
     borderopacity="1.0"
     inkscape:pageopacity="0.0"
     inkscape:pageshadow="2"
     inkscape:zoom="0.98994949"
     inkscape:cx="328.83425"
     inkscape:cy="142.62494"
     inkscape:document-units="mm"
     inkscape:current-layer="layer1"
     showgrid="false"
     inkscape:window-width="1280"
     inkscape:window-height="1017"
     inkscape:window-x="1272"
     inkscape:window-y="-8"
     inkscape:window-maximized="0" />
  <metadata
     id="metadata5464">
    <rdf:RDF>
      <cc:Work
         rdf:about="">
        <dc:format>image/svg+xml</dc:format>
        <dc:type
           rdf:resource="http://purl.org/dc/dcmitype/StillImage" />
        <dc:title></dc:title>
      </cc:Work>
    </rdf:RDF>
  </metadata>
  <g
     inkscape:label="Capa 1"
     inkscape:groupmode="layer"
     id="layer1"
     transform="translate(-47.927514,-54.1314)">
    <g
       id="g6052"
       transform="matrix(0.26458333,0,0,0.26458333,47.927514,51.617858)">
      <g
         id="g6014">
        <path
           id="path6012"
           d="m 389.672,478.173 c 14.659,-3.3 28.384,-9.083 40.708,-16.88 l 8.819,8.82 c 4.614,4.614 12.206,4.614 16.82,0 l 23.566,-23.568 c 4.614,-4.643 4.614,-12.207 0,-16.851 l -8.819,-8.791 c 7.797,-12.324 13.579,-26.05 16.879,-40.711 h 12.44 c 6.541,0 11.914,-5.344 11.914,-11.915 v -33.322 c 0,-6.542 -5.373,-11.886 -11.914,-11.886 h -12.44 c -3.3,-14.661 -9.082,-28.387 -16.879,-40.711 l 8.819,-8.82 c 4.614,-4.614 4.614,-12.178 0,-16.822 l -23.566,-23.568 c -4.614,-4.614 -12.206,-4.614 -16.82,0 l -8.819,8.82 c -12.323,-7.798 -26.048,-13.58 -40.708,-16.88 v -12.441 c 0,-6.542 -5.344,-11.915 -11.885,-11.915 h -33.32 c -6.57,0 -11.914,5.374 -11.914,11.915 v 12.441 c -14.659,3.3 -28.384,9.083 -40.708,16.88 l -8.79,-8.82 c -4.643,-4.614 -12.206,-4.614 -16.85,0 l -23.566,23.568 c -4.614,4.643 -4.614,12.207 0,16.822 l 8.819,8.82 c -7.797,12.324 -13.579,26.05 -16.879,40.711 h -12.44 c -6.541,0 -11.885,5.344 -11.885,11.886 v 33.322 c 0,6.571 5.344,11.915 11.885,11.915 h 12.44 c 3.3,14.661 9.082,28.387 16.879,40.711 l -8.819,8.791 c -4.614,4.644 -4.614,12.207 0,16.851 l 23.566,23.568 c 4.643,4.614 12.206,4.614 16.85,0 l 8.79,-8.82 c 12.323,7.798 26.048,13.58 40.708,16.88 v 12.441 c 0,6.542 5.344,11.886 11.914,11.886 h 33.32 c 6.541,0 11.885,-5.344 11.885,-11.886 z M 361.113,274.326 c 42.693,0 77.298,34.607 77.298,77.304 0,42.697 -34.604,77.304 -77.298,77.304 -42.694,0 -77.298,-34.607 -77.298,-77.304 0,-42.697 34.604,-77.304 77.298,-77.304 z"
           inkscape:connector-curvature="0"
           style="clip-rule:evenodd;fill:#eee1dc;fill-rule:evenodd" />
      </g>
      <g
         id="g6018">
        <path
           id="path6016"
           d="m 218.052,346.665 c 17.842,-4.001 34.517,-11.039 49.468,-20.531 l 10.717,10.718 c 5.607,5.607 14.835,5.607 20.441,0 l 28.647,-28.65 c 5.607,-5.607 5.607,-14.836 0,-20.443 l -10.717,-10.718 c 9.491,-14.953 16.528,-31.628 20.529,-49.472 h 15.097 c 7.972,0 14.484,-6.513 14.484,-14.456 v -40.507 c 0,-7.944 -6.512,-14.456 -14.484,-14.456 h -15.097 c -4.001,-17.815 -11.038,-34.49 -20.529,-49.472 L 327.325,97.96 c 5.607,-5.607 5.607,-14.807 0,-20.443 l -28.647,-28.65 c -5.607,-5.607 -14.835,-5.607 -20.441,0 L 267.52,59.586 C 252.569,50.095 235.894,43.086 218.052,39.055 V 23.956 C 218.052,16.012 211.54,9.5 203.597,9.5 h -40.503 c -7.943,0 -14.455,6.513 -14.455,14.456 v 15.099 c -17.813,4.03 -34.488,11.039 -49.468,20.531 L 88.453,48.868 c -5.607,-5.607 -14.805,-5.607 -20.441,0 l -28.647,28.65 c -5.607,5.636 -5.607,14.836 0,20.443 l 10.717,10.718 c -9.491,14.982 -16.499,31.658 -20.5,49.472 H 14.455 C 6.512,158.151 0,164.663 0,172.607 v 40.507 c 0,7.944 6.512,14.456 14.455,14.456 h 15.127 c 4.001,17.844 11.009,34.52 20.5,49.472 L 39.364,287.76 c -5.607,5.607 -5.607,14.836 0,20.443 l 28.647,28.65 c 5.636,5.607 14.835,5.607 20.441,0 l 10.717,-10.718 c 14.981,9.491 31.655,16.53 49.468,20.531 v 15.099 c 0,7.973 6.512,14.485 14.455,14.485 h 40.503 c 7.943,0 14.455,-6.513 14.455,-14.485 v -15.1 z"
           inkscape:connector-curvature="0"
           style="clip-rule:evenodd;fill:#6d80aa;fill-rule:evenodd" />
      </g>
      <g
         id="g6022">
        <path
           id="path6020"
           d="m 176.381,9.5 c 12.002,23.51 21.668,52.042 28.268,83.934 109.8,23.422 103.551,176.833 -0.058,198.853 -6.629,31.92 -16.324,60.453 -28.326,83.963 h 27.333 c 2.949,0 5.724,-0.905 8.001,-2.453 3.884,-2.599 6.454,-7.038 6.454,-12.032 v -15.099 c 17.842,-4.001 34.517,-11.039 49.468,-20.531 l 10.717,10.718 c 1.811,1.811 4.03,3.066 6.366,3.709 4.877,1.314 10.279,0.088 14.075,-3.709 l 28.647,-28.65 c 5.607,-5.607 5.607,-14.836 0,-20.443 l -3.738,-3.738 -6.979,-6.98 c 9.491,-14.953 16.528,-31.628 20.529,-49.472 h 15.097 c 7.972,0 14.484,-6.513 14.484,-14.456 v -12.383 -28.124 c 0,-7.944 -6.512,-14.456 -14.484,-14.456 h -15.097 c -4.001,-17.815 -11.038,-34.49 -20.529,-49.472 l 10.717,-10.718 c 5.607,-5.607 5.607,-14.807 0,-20.443 l -28.647,-28.65 c -5.607,-5.607 -14.835,-5.607 -20.441,0 L 267.52,59.586 C 252.569,50.095 235.894,43.086 218.052,39.055 V 23.956 C 218.052,16.012 211.54,9.5 203.597,9.5 Z"
           inkscape:connector-curvature="0"
           style="clip-rule:evenodd;fill:#49679b;fill-rule:evenodd" />
      </g>
      <g
         id="g6026">
        <path
           id="path6024"
           d="m 183.36,304.348 c 61.383,0 111.464,-50.086 111.464,-111.473 0,-61.417 -50.082,-111.503 -111.464,-111.503 -61.412,0 -111.494,50.086 -111.494,111.503 0,61.387 50.082,111.473 111.494,111.473 z"
           inkscape:connector-curvature="0"
           style="clip-rule:evenodd;fill:#22a6fe;fill-rule:evenodd" />
      </g>
      <g
         id="g6030">
        <path
           id="path6028"
           d="m 183.36,81.372 c 61.558,0 111.464,49.91 111.464,111.503 0,61.563 -49.906,111.473 -111.464,111.473 -12.44,0 -24.355,-2.044 -35.51,-5.783 43.511,-15.186 74.757,-56.569 74.757,-105.282 0,-49.151 -31.801,-90.884 -75.984,-105.72 11.506,-4.001 23.859,-6.191 36.737,-6.191 z"
           inkscape:connector-curvature="0"
           style="clip-rule:evenodd;fill:#0182fc;fill-rule:evenodd" />
      </g>
      <g
         id="g6034">
        <path
           id="path6032"
           d="m 153.866,212.529 c -24.968,11.302 -42.431,36.476 -42.431,65.535 19.419,16.413 44.504,26.284 71.925,26.284 27.392,0 52.476,-9.9 71.896,-26.284 0,-29.058 -17.463,-54.233 -42.401,-65.535 z"
           inkscape:connector-curvature="0"
           style="clip-rule:evenodd;fill:#fdb440;fill-rule:evenodd" />
      </g>
      <g
         id="g6038">
        <path
           id="path6036"
           d="m 136.315,175.878 c 0,14.807 6.833,28.036 17.55,36.652 8.06,6.513 18.31,10.397 29.494,10.397 11.155,0 21.405,-3.884 29.494,-10.397 10.688,-8.615 17.55,-21.845 17.55,-36.652 0,-25.992 -21.084,-47.048 -47.045,-47.048 -25.988,-0.001 -47.043,21.056 -47.043,47.048 z"
           inkscape:connector-curvature="0"
           style="clip-rule:evenodd;fill:#ffe5c1;fill-rule:evenodd" />
      </g>
      <g
         id="g6042">
        <path
           id="path6040"
           d="m 171.562,130.319 c 20.266,5.228 35.218,23.656 35.218,45.559 0,14.807 -6.833,28.007 -17.55,36.652 -5.14,4.118 -11.126,7.213 -17.696,8.907 3.767,0.964 7.739,1.489 11.827,1.489 11.155,0 21.405,-3.884 29.494,-10.397 10.688,-8.615 17.55,-21.845 17.55,-36.652 0,-25.992 -21.084,-47.048 -47.045,-47.048 -4.088,0 -8.031,0.497 -11.798,1.49 z"
           inkscape:connector-curvature="0"
           style="clip-rule:evenodd;fill:#fed1a3;fill-rule:evenodd" />
      </g>
      <g
         id="g6046">
        <path
           id="path6044"
           d="m 195.975,221.203 c 20.149,14.748 33.787,47.194 34.4,72.777 9.023,-4.205 17.375,-9.579 24.88,-15.916 0,-29.058 -17.463,-54.233 -42.401,-65.535 -4.906,3.943 -10.63,6.951 -16.879,8.674 z"
           inkscape:connector-curvature="0"
           style="clip-rule:evenodd;fill:#fe9900;fill-rule:evenodd" />
      </g>
      <g
         id="g6050">
        <path
           id="path6048"
           d="m 410.552,292.199 c 17.025,14.193 27.859,35.542 27.859,59.431 0,36.038 -24.676,66.352 -58.083,74.88 -9.286,28.27 -19.945,53.882 -31.451,75.99 h 28.91 c 6.541,0 11.885,-5.344 11.885,-11.886 v -12.441 c 14.659,-3.3 28.384,-9.083 40.708,-16.88 l 8.819,8.82 c 4.614,4.614 12.206,4.614 16.82,0 l 23.566,-23.568 c 4.614,-4.643 4.614,-12.207 0,-16.851 l -8.819,-8.791 c 7.797,-12.324 13.579,-26.05 16.879,-40.711 h 12.44 c 6.541,0 11.914,-5.344 11.914,-11.915 v -33.322 c 0,-6.542 -5.373,-11.886 -11.914,-11.886 h -12.44 c -3.3,-14.661 -9.082,-28.387 -16.879,-40.711 l 8.819,-8.82 c 4.614,-4.614 4.614,-12.178 0,-16.822 l -23.566,-23.568 c -4.614,-4.614 -12.206,-4.614 -16.82,0 l -8.819,8.82 c -4.585,-2.92 -9.345,-5.549 -14.309,-7.856 -1.051,18.836 -2.891,38.286 -5.519,58.087 z"
           inkscape:connector-curvature="0"
           style="clip-rule:evenodd;fill:#cdbeb9;fill-rule:evenodd" />
      </g>
    </g>
  </g>
</svg>
