<?xml version="1.0" encoding="UTF-8" standalone="no"?>
<!-- Created with Inkscape (http://www.inkscape.org/) -->

<svg
   xmlns:dc="http://purl.org/dc/elements/1.1/"
   xmlns:cc="http://creativecommons.org/ns#"
   xmlns:rdf="http://www.w3.org/1999/02/22-rdf-syntax-ns#"
   xmlns:svg="http://www.w3.org/2000/svg"
   xmlns="http://www.w3.org/2000/svg"
   xmlns:sodipodi="http://sodipodi.sourceforge.net/DTD/sodipodi-0.dtd"
   xmlns:inkscape="http://www.inkscape.org/namespaces/inkscape"
   width="135.46666mm"
   height="135.46666mm"
   viewBox="0 0 135.46666 135.46666"
   version="1.1"
   id="svg4720"
   inkscape:version="0.92.3 (2405546, 2018-03-11)"
   sodipodi:docname="slide2.svg">
  <defs
     id="defs4714" />
  <sodipodi:namedview
     id="base"
     pagecolor="#ffffff"
     bordercolor="#666666"
     borderopacity="1.0"
     inkscape:pageopacity="0.0"
     inkscape:pageshadow="2"
     inkscape:zoom="0.98994949"
     inkscape:cx="292.53444"
     inkscape:cy="220.15099"
     inkscape:document-units="mm"
     inkscape:current-layer="layer1"
     showgrid="false"
     inkscape:window-width="1280"
     inkscape:window-height="1017"
     inkscape:window-x="1272"
     inkscape:window-y="-8"
     inkscape:window-maximized="0" />
  <metadata
     id="metadata4717">
    <rdf:RDF>
      <cc:Work
         rdf:about="">
        <dc:format>image/svg+xml</dc:format>
        <dc:type
           rdf:resource="http://purl.org/dc/dcmitype/StillImage" />
        <dc:title></dc:title>
      </cc:Work>
    </rdf:RDF>
  </metadata>
  <g
     inkscape:label="Capa 1"
     inkscape:groupmode="layer"
     id="layer1"
     transform="translate(-7.8619056,-88.659525)">
    <g
       id="g5389"
       transform="matrix(0.26458333,0,0,0.26458333,7.8619056,88.659525)">
      <g
         id="g5267">
        <path
           id="path5265"
           d="m 278.595,496.014 c -3.935,0 -7.298,-2.991 -7.682,-6.987 -0.408,-4.247 2.704,-8.022 6.952,-8.43 107.163,-10.307 192.425,-95.568 202.731,-202.732 0.408,-4.247 4.187,-7.371 8.431,-6.951 4.247,0.408 7.36,4.183 6.952,8.431 -11.014,114.513 -102.123,205.62 -216.635,216.634 -0.251,0.022 -0.502,0.035 -0.749,0.035 z m -45.19,0 c -0.247,0 -0.497,-0.012 -0.748,-0.036 C 118.115,484.964 27.006,393.855 16.022,279.342 c -0.407,-4.248 2.706,-8.022 6.954,-8.429 4.243,-0.412 8.021,2.706 8.429,6.953 10.279,107.163 95.54,192.423 202.731,202.73 4.247,0.408 7.36,4.183 6.952,8.431 -0.385,3.995 -3.749,6.987 -7.683,6.987 z M 488.278,241.123 c -3.935,0 -7.298,-2.991 -7.682,-6.987 C 470.289,126.944 385.028,41.683 277.866,31.404 c -4.247,-0.407 -7.361,-4.181 -6.954,-8.429 0.406,-4.246 4.169,-7.367 8.429,-6.953 114.513,10.984 205.623,102.092 216.637,216.635 0.408,4.247 -2.704,8.022 -6.952,8.43 -0.251,0.024 -0.501,0.036 -0.748,0.036 z m -464.556,0 c -0.246,0 -0.496,-0.012 -0.746,-0.036 -4.247,-0.407 -7.361,-4.181 -6.954,-8.429 10.982,-114.513 102.09,-205.622 216.635,-216.635 4.246,-0.412 8.022,2.703 8.431,6.951 0.408,4.247 -2.704,8.022 -6.952,8.431 -107.194,10.306 -192.455,95.566 -202.732,202.729 -0.383,3.997 -3.747,6.989 -7.682,6.989 z"
           inkscape:connector-curvature="0"
           style="fill:#54c8d0;fill-opacity:1" />
      </g>
      <g
         id="g5271">
        <path
           id="path5269"
           d="m 88.312,351.146 h 94.825 37.468 c 30.956,0 33.351,-64.161 -11.623,-65.825 l -85.333,0.701 c -20.443,5.724 -40.418,13.959 -40.418,43.368 v 16.675 c 0,2.803 2.278,5.081 5.081,5.081 z"
           inkscape:connector-curvature="0"
           style="clip-rule:evenodd;fill:#22a6fe;fill-rule:evenodd" />
      </g>
      <g
         id="g5275">
        <path
           id="path5273"
           d="m 338.676,351.146 h 94.795 c 2.804,0 5.111,-2.278 5.111,-5.081 V 329.39 c 0,-29.379 -19.946,-37.614 -40.389,-43.368 l -85.392,6.045 c -21.436,4.702 -61.912,59.079 -14.952,59.079 z"
           inkscape:connector-curvature="0"
           style="clip-rule:evenodd;fill:#22a6fe;fill-rule:evenodd" />
      </g>
      <g
         id="g5279">
        <path
           id="path5277"
           d="m 123.649,286.021 39.279,23.013 c 6.658,4.322 10.455,4.322 17.143,0 l 28.912,-16.967 c -5.841,-8.527 -9.783,-17.756 -10.922,-26.459 l -51.34,1.022 c -1.694,3.475 -3.884,14.164 -12.207,16.442 -3.564,0.964 -7.215,1.927 -10.865,2.949 z"
           inkscape:connector-curvature="0"
           style="clip-rule:evenodd;fill:#f5a96c;fill-rule:evenodd" />
      </g>
      <g
         id="g5283">
        <path
           id="path5281"
           d="m 341.742,309.034 c 6.658,4.322 10.484,4.322 17.143,0 l 39.308,-23.013 c -3.65,-1.022 -7.33,-1.986 -10.922,-2.95 -8.294,-2.278 -10.513,-12.966 -12.207,-16.442 -18.252,-9.141 -33.76,-7.914 -51.311,-1.022 -5.14,6.746 -8.557,16.237 -10.951,26.459 z"
           inkscape:connector-curvature="0"
           style="clip-rule:evenodd;fill:#f5a96c;fill-rule:evenodd" />
      </g>
      <g
         id="g5287">
        <path
           id="path5285"
           d="m 108.287,209.975 c 0,20.005 16.617,44.536 38.432,56.655 2.891,1.606 5.899,3.008 8.936,4.147 11.448,4.235 20.209,4.235 31.657,0 3.709,-1.373 7.301,-3.125 10.747,-5.169 14.602,-11.185 43.803,-73.554 27.128,-85.498 -9.842,-6.074 -9.506,-19.812 -22.414,-16.483 -13.638,3.504 -24.45,-8.614 -29.532,-8.614 -5.081,0 -8.653,9.028 -22.321,5.523 -17.668,-4.556 -17.052,28.324 -42.634,30.105 v 19.334 z"
           inkscape:connector-curvature="0"
           style="clip-rule:evenodd;fill:#ffbc85;fill-rule:evenodd" />
      </g>
      <g
         id="g5291">
        <path
           id="path5289"
           d="m 147.713,173.879 c 13.667,3.504 18.69,5.257 23.772,5.257 5.082,0 10.134,-1.752 23.772,-5.257 12.908,-3.329 14.339,6.191 24.152,12.266 4.351,-3.972 9.141,-7.213 14.251,-9.754 -5.724,-37.498 -33.935,-56.538 -62.175,-57.006 -31.598,0.526 -63.197,24.298 -63.197,71.257 25.582,-1.781 21.756,-21.319 39.425,-16.763 z"
           inkscape:connector-curvature="0"
           style="clip-rule:evenodd;fill:#6d80aa;fill-rule:evenodd" />
      </g>
      <g
         id="g5295">
        <path
           id="path5293"
           d="m 323.753,265.608 c 3.446,2.044 7.038,3.797 10.718,5.169 11.448,4.235 20.209,4.235 31.657,0 3.066,-1.139 6.045,-2.541 8.936,-4.147 21.844,-12.12 38.461,-36.651 38.461,-56.655 v -19.333 c -12.956,-24.611 -60.424,-44.167 -65.495,-43.841 -37.43,2.404 -51.785,49.121 -45.654,39.344 -12.105,19.304 -7.915,34.142 0,54.932 0,0 21.61,22.779 21.377,24.531 z"
           inkscape:connector-curvature="0"
           style="clip-rule:evenodd;fill:#ffbc85;fill-rule:evenodd" />
      </g>
      <g
         id="g5299">
        <path
           id="path5297"
           d="m 350.299,179.136 c 5.081,0 10.134,-1.752 23.801,-5.257 17.639,-4.556 13.843,14.982 39.425,16.763 0,-46.96 -31.628,-70.731 -63.226,-71.257 -28.211,0.467 -56.451,19.508 -62.146,57.006 5.081,2.541 9.9,5.782 14.222,9.754 9.812,-6.074 11.243,-15.595 24.151,-12.266 13.668,3.505 18.721,5.257 23.773,5.257 z"
           inkscape:connector-curvature="0"
           style="clip-rule:evenodd;fill:#6d80aa;fill-rule:evenodd" />
      </g>
      <g
         id="g5303">
        <path
           id="path5301"
           d="m 252.32,369.778 c 6.658,4.322 10.484,4.322 17.143,0 l 39.279,-33.321 c -3.65,-1.022 -7.33,-1.986 -10.893,-2.95 -8.294,-2.278 -10.484,-12.966 -12.178,-16.442 -15.39,-15.04 -30.051,-18.194 -49.53,0 -1.694,3.475 -3.913,14.164 -12.207,16.442 -3.563,0.964 -7.213,1.927 -10.864,2.95 z"
           inkscape:connector-curvature="0"
           style="clip-rule:evenodd;fill:#fed1a3;fill-rule:evenodd" />
      </g>
      <g
         id="g5307">
        <path
           id="path5305"
           d="m 152.502,127.562 c 27.568,0.467 55.166,18.661 61.737,54.523 1.489,1.402 3.154,2.804 5.169,4.059 4.351,-3.972 9.141,-7.213 14.251,-9.754 -5.724,-37.498 -33.935,-56.538 -62.175,-57.006 -11.623,0.204 -23.275,3.534 -33.321,10.046 4.702,-1.167 9.52,-1.78 14.339,-1.868 z"
           inkscape:connector-curvature="0"
           style="clip-rule:evenodd;fill:#49679b;fill-rule:evenodd" />
      </g>
      <g
         id="g5311">
        <path
           id="path5309"
           d="m 323.753,265.608 c -0.642,4.789 -2.132,9.783 -4.322,14.689 14.66,7.593 21.728,13.638 39.279,7.155 1.781,-0.672 2.219,-0.818 3.943,-1.635 5.227,-2.482 5.607,1.285 5.607,1.285 1.665,4.176 4.322,9.199 9.404,10.951 l 20.53,-12.032 c -3.65,-1.022 -7.33,-1.986 -10.922,-2.95 -8.294,-2.278 -10.513,-12.966 -12.207,-16.442 -2.891,1.606 -5.87,3.008 -8.936,4.147 -11.448,4.235 -20.209,4.235 -31.657,0 -3.681,-1.371 -7.273,-3.124 -10.719,-5.168 z"
           inkscape:connector-curvature="0"
           style="clip-rule:evenodd;fill:#ea9a58;fill-rule:evenodd" />
      </g>
      <g
         id="g5315">
        <path
           id="path5313"
           d="m 397.609,185.736 v 22.37 c 0,20.034 -16.617,44.565 -38.432,56.684 -2.891,1.606 -5.899,2.979 -8.936,4.118 -4.41,1.635 -8.44,2.628 -12.353,3.008 9.842,3.037 17.96,2.658 28.24,-1.139 3.066,-1.139 6.045,-2.541 8.936,-4.147 21.844,-12.12 38.461,-36.651 38.461,-56.655 v -19.333 c -7.33,-0.526 -12.236,-2.482 -15.916,-4.906 z"
           inkscape:connector-curvature="0"
           style="clip-rule:evenodd;fill:#f5a96c;fill-rule:evenodd" />
      </g>
      <g
         id="g5319">
        <path
           id="path5317"
           d="m 335.785,121.283 c 29.613,1.081 58.846,22.574 61.708,64.394 0.029,0.029 0.088,0.029 0.117,0.058 3.68,2.424 8.586,4.381 15.916,4.906 0,-46.96 -31.628,-70.731 -63.226,-71.257 -4.878,0.089 -9.755,0.702 -14.515,1.899 z"
           inkscape:connector-curvature="0"
           style="clip-rule:evenodd;fill:#49679b;fill-rule:evenodd" />
      </g>
      <g
         id="g5323">
        <path
           id="path5321"
           d="m 236.141,317.065 c 2.891,1.606 5.87,3.008 8.936,4.147 11.448,4.235 20.209,4.235 31.657,0 3.037,-1.139 6.045,-2.541 8.936,-4.147 10.776,-5.987 20.267,-14.982 27.13,-24.998 5.87,-8.527 9.783,-17.756 10.951,-26.459 0.234,-1.752 0.35,-3.504 0.35,-5.198 v -22.364 c -25.582,-1.781 -21.786,-29.56 -39.425,-25.004 -13.667,3.504 -18.72,5.286 -23.772,5.286 -5.081,0 -10.134,-1.781 -23.772,-5.286 -17.668,-4.556 -21.173,13.784 -39.425,28.036 v 19.333 c 0,1.694 0.117,3.446 0.35,5.198 1.139,8.703 5.081,17.931 10.922,26.459 6.866,10.015 16.386,19.01 27.162,24.997 z"
           inkscape:connector-curvature="0"
           style="clip-rule:evenodd;fill:#ffe5c1;fill-rule:evenodd" />
      </g>
      <g
         id="g5327">
        <path
           id="path5325"
           d="m 260.906,229.571 c 5.052,0 10.104,-1.752 23.772,-5.257 17.639,-4.556 13.843,14.981 39.425,16.763 0,-24.765 -8.79,-43.075 -21.728,-54.932 -4.322,-3.972 -9.141,-7.213 -14.222,-9.754 -8.527,-4.235 -17.902,-6.425 -27.247,-6.571 -9.374,0.146 -18.72,2.336 -27.247,6.571 -5.111,2.541 -9.9,5.782 -14.251,9.754 -12.937,11.857 -21.698,30.167 -21.698,54.932 25.582,-1.781 21.757,-21.319 39.425,-16.763 13.638,3.504 18.69,5.257 23.771,5.257 z"
           inkscape:connector-curvature="0"
           style="clip-rule:evenodd;fill:#6d80aa;fill-rule:evenodd" />
      </g>
      <g
         id="g5331">
        <path
           id="path5329"
           d="m 282.751,184.305 c 9.374,8.586 16.559,20.559 19.8,35.891 1.227,5.782 1.927,7.564 1.927,13.083 4.059,3.65 9.579,7.097 19.625,7.797 0,-3.943 -0.234,-7.71 -0.643,-11.331 -2.249,-19.07 -10.192,-33.613 -21.085,-43.601 -4.322,-3.972 -9.141,-7.213 -14.222,-9.754 -8.527,-4.235 -17.902,-6.425 -27.247,-6.571 -1.489,0.029 -2.979,0.088 -4.468,0.234 4.147,1.081 8.206,2.57 12.09,4.497 5.082,2.541 9.871,5.783 14.223,9.755 z"
           inkscape:connector-curvature="0"
           style="clip-rule:evenodd;fill:#49679b;fill-rule:evenodd" />
      </g>
      <g
         id="g5335">
        <path
           id="path5333"
           d="m 304.478,239.237 v 19.333 c 0,1.694 -0.117,3.446 -0.35,5.198 -1.168,8.703 -5.081,17.931 -10.951,26.459 -6.863,10.017 -16.354,19.012 -27.13,24.998 -2.92,1.606 -5.899,3.008 -8.936,4.147 -3.417,1.256 -6.6,2.132 -9.666,2.658 10.309,3.388 18.632,3.125 29.291,-0.818 3.037,-1.139 6.045,-2.541 8.936,-4.147 10.776,-5.987 20.267,-14.982 27.13,-24.998 5.87,-8.527 9.783,-17.756 10.951,-26.459 0.234,-1.752 0.35,-3.504 0.35,-5.198 v -19.333 c -10.046,-0.701 -15.566,-4.147 -19.625,-7.797 z"
           inkscape:connector-curvature="0"
           style="clip-rule:evenodd;fill:#fed1a3;fill-rule:evenodd" />
      </g>
      <g
         id="g5339">
        <path
           id="path5337"
           d="m 177.909,289.117 c 5.607,-2.073 12.12,-7.593 14.777,-0.175 l 3.096,10.893 13.2,-7.768 c -1.489,-2.19 -2.891,-4.439 -4.118,-6.717 -3.563,-6.542 -5.958,-13.288 -6.804,-19.742 -3.446,2.044 -7.038,3.797 -10.747,5.169 -11.448,4.235 -20.209,4.235 -31.657,0 -3.037,-1.139 -6.045,-2.541 -8.936,-4.147 -1.11,2.307 -2.453,7.739 -5.636,11.828 8.264,5.811 26.779,14.397 36.825,10.659 z"
           inkscape:connector-curvature="0"
           style="clip-rule:evenodd;fill:#ea9a58;fill-rule:evenodd" />
      </g>
      <g
         id="g5343">
        <path
           id="path5341"
           d="M 22.633,233.367 C 10.134,233.367 0,243.501 0,256 c 0,12.499 10.134,22.633 22.633,22.633 0.35,0 0.701,-0.029 1.081,-0.029 C 35.687,278.02 45.237,268.12 45.237,256 c 0,-12.149 -9.55,-22.049 -21.523,-22.604 -0.38,-0.029 -0.731,-0.029 -1.081,-0.029 z"
           inkscape:connector-curvature="0"
           style="clip-rule:evenodd;fill:#80d261;fill-rule:evenodd" />
      </g>
      <g
         id="g5347">
        <path
           id="path5345"
           d="m 256,0 c -12.499,0 -22.633,10.134 -22.633,22.633 0,0.35 0,0.701 0.029,1.081 0.555,11.974 10.455,21.523 22.604,21.523 12.12,0 22.02,-9.55 22.604,-21.523 0,-0.38 0.029,-0.73 0.029,-1.081 C 278.633,10.134 268.499,0 256,0 Z"
           inkscape:connector-curvature="0"
           style="clip-rule:evenodd;fill:#80d261;fill-rule:evenodd" />
      </g>
      <g
         id="g5351">
        <path
           id="path5349"
           d="m 488.287,233.396 c -12.003,0.555 -21.552,10.455 -21.552,22.604 0,12.12 9.55,22.02 21.552,22.604 0.35,0 0.73,0.029 1.081,0.029 12.498,0 22.632,-10.134 22.632,-22.633 0,-12.499 -10.134,-22.633 -22.633,-22.633 -0.35,0 -0.73,0 -1.08,0.029 z"
           inkscape:connector-curvature="0"
           style="clip-rule:evenodd;fill:#80d261;fill-rule:evenodd" />
      </g>
      <g
         id="g5355">
        <path
           id="path5353"
           d="m 256,466.734 c -12.149,0 -22.049,9.55 -22.604,21.552 -0.029,0.35 -0.029,0.73 -0.029,1.081 0,12.499 10.134,22.633 22.633,22.633 12.499,0 22.633,-10.134 22.633,-22.633 0,-0.35 -0.029,-0.73 -0.029,-1.081 C 278.02,476.284 268.12,466.734 256,466.734 Z"
           inkscape:connector-curvature="0"
           style="clip-rule:evenodd;fill:#80d261;fill-rule:evenodd" />
      </g>
      <g
         id="g5359">
        <path
           id="path5357"
           d="m 377.663,298.053 c 20.413,5.753 40.36,13.989 40.36,43.338 v 9.754 h 15.449 c 2.804,0 5.111,-2.278 5.111,-5.081 v -16.675 c 0,-29.379 -19.946,-37.614 -40.389,-43.368 z"
           inkscape:connector-curvature="0"
           style="clip-rule:evenodd;fill:#0182fc;fill-rule:evenodd" />
      </g>
      <g
         id="g5363">
        <path
           id="path5361"
           d="m 177.734,401.581 h 166.345 c 2.804,0 5.081,-2.278 5.081,-5.081 v -16.675 c 0,-13.317 -4.118,-22.312 -10.484,-28.678 -7.71,-7.681 -18.749,-11.565 -29.934,-14.689 l -39.279,23.013 c -6.658,4.322 -10.484,4.322 -17.143,0 l -39.25,-23.013 c -11.185,3.125 -22.224,7.009 -29.934,14.689 -6.396,6.366 -10.513,15.361 -10.513,28.678 V 396.5 c 0,2.803 2.307,5.081 5.111,5.081 z"
           inkscape:connector-curvature="0"
           style="clip-rule:evenodd;fill:#fd4755;fill-rule:evenodd" />
      </g>
      <g
         id="g5367">
        <path
           id="path5365"
           d="m 274.836,335.931 c 0.789,2.073 6.133,10.981 14.251,12.032 l 19.654,-11.506 c -3.65,-1.022 -7.33,-1.986 -10.893,-2.95 -8.294,-2.278 -10.484,-12.966 -12.178,-16.442 -1.168,0.642 -2.366,1.256 -3.563,1.84 -1.752,0.847 -3.563,1.606 -5.374,2.307 -10.659,3.943 -18.982,4.205 -29.291,0.818 -0.789,-0.263 -1.577,-0.526 -2.366,-0.818 -0.584,-0.234 -1.168,-0.438 -1.723,-0.672 -2.453,-0.993 -4.877,-2.161 -7.213,-3.475 -1.051,2.161 -2.307,7.067 -5.052,11.01 -0.642,0.935 28.386,11.915 39.775,7.038 3.243,-1.373 2.776,-2.424 3.973,0.818 z"
           inkscape:connector-curvature="0"
           style="clip-rule:evenodd;fill:#ffbc85;fill-rule:evenodd" />
      </g>
      <g
         id="g5371">
        <path
           id="path5369"
           d="m 299.28,351.146 c 7.476,2.716 14.397,6.191 19.742,11.535 6.396,6.366 10.513,15.332 10.513,28.649 v 10.25 h 14.543 c 2.804,0 5.081,-2.278 5.081,-5.081 v -16.675 c 0,-13.317 -4.118,-22.312 -10.484,-28.678 -7.71,-7.681 -18.749,-11.565 -29.934,-14.689 l -19.654,11.506 c 1.519,0.438 3.037,0.876 4.527,1.314 1.899,0.584 3.797,1.197 5.666,1.869 z"
           inkscape:connector-curvature="0"
           style="clip-rule:evenodd;fill:#e41e2b;fill-rule:evenodd" />
      </g>
      <g
         id="g5375">
        <path
           id="path5373"
           d="m 245.603,469.275 c 7.272,3.738 12.236,11.331 12.236,20.092 0,8.761 -4.965,16.354 -12.236,20.092 3.096,1.636 6.63,2.541 10.397,2.541 12.499,0 22.633,-10.134 22.633,-22.633 0,-0.35 -0.029,-0.73 -0.029,-1.081 C 278.02,476.283 268.12,466.734 256,466.734 c -3.738,0 -7.272,0.906 -10.397,2.541 z"
           inkscape:connector-curvature="0"
           style="clip-rule:evenodd;fill:#4fc122;fill-rule:evenodd" />
      </g>
      <g
         id="g5379">
        <path
           id="path5377"
           d="m 12.236,235.879 c 4.731,2.453 8.498,6.542 10.543,11.535 1.081,2.628 1.694,5.549 1.694,8.586 0,3.037 -0.613,5.928 -1.694,8.586 -2.044,4.965 -5.812,9.053 -10.572,11.506 3.125,1.606 6.658,2.541 10.426,2.541 0.35,0 0.701,-0.029 1.081,-0.029 C 35.687,278.02 45.237,268.12 45.237,256 c 0,-12.149 -9.55,-22.049 -21.523,-22.604 -0.38,-0.029 -0.73,-0.029 -1.081,-0.029 -3.767,0 -7.301,0.905 -10.397,2.512 z"
           inkscape:connector-curvature="0"
           style="clip-rule:evenodd;fill:#4fc122;fill-rule:evenodd" />
      </g>
      <g
         id="g5383">
        <path
           id="path5381"
           d="m 245.603,2.512 c 7.272,3.767 12.236,11.36 12.236,20.092 v 0.029 c 0,8.732 -4.965,16.325 -12.236,20.092 3.096,1.606 6.629,2.512 10.397,2.512 12.12,0 22.02,-9.55 22.604,-21.523 0,-0.38 0.029,-0.73 0.029,-1.081 C 278.633,10.163 268.558,0.059 256.117,0 H 256 255.883 c -3.709,0 -7.184,0.905 -10.28,2.512 z"
           inkscape:connector-curvature="0"
           style="clip-rule:evenodd;fill:#4fc122;fill-rule:evenodd" />
      </g>
      <g
         id="g5387">
        <path
           id="path5385"
           d="m 489.192,246.626 c 1.285,2.833 2.015,6.016 2.015,9.374 0,3.329 -0.73,6.512 -2.015,9.345 -2.103,4.643 -5.724,8.411 -10.221,10.747 2.804,1.46 5.958,2.336 9.316,2.512 0.35,0 0.73,0.029 1.081,0.029 12.498,0 22.632,-10.134 22.632,-22.633 0,-12.499 -10.134,-22.633 -22.633,-22.633 -0.35,0 -0.73,0 -1.081,0.029 -3.329,0.146 -6.483,1.022 -9.316,2.482 4.498,2.337 8.119,6.133 10.222,10.748 z"
           inkscape:connector-curvature="0"
           style="clip-rule:evenodd;fill:#4fc122;fill-rule:evenodd" />
      </g>
    </g>
  </g>
</svg>
