<?xml version="1.0" encoding="UTF-8" standalone="no"?>
<!-- Generator: Adobe Illustrator 21.0.0, SVG Export Plug-In . SVG Version: 6.00 Build 0)  -->

<svg
   xmlns:dc="http://purl.org/dc/elements/1.1/"
   xmlns:cc="http://creativecommons.org/ns#"
   xmlns:rdf="http://www.w3.org/1999/02/22-rdf-syntax-ns#"
   xmlns:svg="http://www.w3.org/2000/svg"
   xmlns="http://www.w3.org/2000/svg"
   xmlns:sodipodi="http://sodipodi.sourceforge.net/DTD/sodipodi-0.dtd"
   xmlns:inkscape="http://www.inkscape.org/namespaces/inkscape"
   version="1.1"
   id="Capa_1"
   x="0px"
   y="0px"
   viewBox="0 0 458.1129 173.45817"
   xml:space="preserve"
   width="458.2373"
   height="173.50528"
   sodipodi:docname="tercerof1.svg"
   inkscape:version="0.92.3 (2405546, 2018-03-11)"><metadata
   id="metadata53"><rdf:RDF><cc:Work
       rdf:about=""><dc:format>image/svg+xml</dc:format><dc:type
         rdf:resource="http://purl.org/dc/dcmitype/StillImage" /><dc:title></dc:title></cc:Work></rdf:RDF></metadata><defs
   id="defs51" /><sodipodi:namedview
   pagecolor="#ffffff"
   bordercolor="#666666"
   borderopacity="1"
   objecttolerance="10"
   gridtolerance="10"
   guidetolerance="10"
   inkscape:pageopacity="0"
   inkscape:pageshadow="2"
   inkscape:window-width="1280"
   inkscape:window-height="1017"
   id="namedview49"
   showgrid="false"
   inkscape:zoom="0.921875"
   inkscape:cx="222.88028"
   inkscape:cy="152.12283"
   inkscape:window-x="1272"
   inkscape:window-y="-8"
   inkscape:window-maximized="0"
   inkscape:current-layer="Capa_1" />
















<rect
   style="opacity:0.68900003;fill:none;fill-opacity:1;fill-rule:evenodd;stroke:#cd8532;stroke-width:19.99456978;stroke-linecap:round;stroke-linejoin:round;stroke-miterlimit:4;stroke-dasharray:none;stroke-opacity:1;paint-order:normal"
   id="rect4563"
   width="438.11832"
   height="125.79636"
   x="9.9972849"
   y="37.664532"
   ry="62.898174"
   rx="0" /><g
   id="g4757"
   transform="matrix(0.27810581,0,0,0.27810581,194.62311,-0.602661)"><g
     id="g4817"
     transform="matrix(1.0336267,0,0,1.0336267,-8.0024875,0.12895593)"><path
       id="path4759"
       d="m 87.937,252 -17.48,-43.047 -43.993,14.941 46.849,-102.465 61.473,28.106 z"
       inkscape:connector-curvature="0"
       style="fill:#f4efed" /><path
       id="path4761"
       d="m 128.157,146.504 -43.99,96.212 3.77,9.284 46.849,-102.465 z"
       inkscape:connector-curvature="0"
       style="fill:#d6d1cf" /><path
       id="path4763"
       d="m 79.941,124.459 -43.989,96.212 -9.488,3.223 46.849,-102.465 z"
       inkscape:connector-curvature="0"
       style="fill:#ffffff" /><path
       id="path4765"
       d="m 87.938,254 c -0.015,0 -0.028,0 -0.043,0 -0.798,-0.017 -1.51,-0.507 -1.811,-1.247 L 69.313,211.454 27.107,225.787 c -0.756,0.259 -1.593,0.04 -2.128,-0.553 -0.535,-0.592 -0.666,-1.446 -0.335,-2.172 L 71.493,120.597 c 0.461,-1.004 1.648,-1.447 2.651,-0.987 l 61.474,28.106 c 0.482,0.221 0.857,0.624 1.042,1.121 0.186,0.497 0.165,1.047 -0.055,1.53 L 89.757,252.832 C 89.431,253.544 88.719,254 87.938,254 Z M 70.457,206.953 c 0.793,0 1.539,0.475 1.854,1.248 l 15.735,38.751 44.09,-96.43 L 74.3,124.079 30.211,220.509 69.814,207.06 c 0.212,-0.073 0.429,-0.107 0.643,-0.107 z"
       inkscape:connector-curvature="0"
       style="fill:#690589" /><path
       id="path4767"
       d="m 168.063,252 17.48,-43.047 43.993,14.941 -46.849,-102.465 -61.473,28.106 z"
       inkscape:connector-curvature="0"
       style="fill:#f4efed" /><path
       id="path4769"
       d="m 127.843,146.504 43.99,96.212 -3.77,9.284 -46.849,-102.465 z"
       inkscape:connector-curvature="0"
       style="fill:#ffffff" /><path
       id="path4771"
       d="m 176.059,124.459 43.989,96.212 9.488,3.223 -46.849,-102.465 z"
       inkscape:connector-curvature="0"
       style="fill:#d6d1cf" /><path
       id="path4773"
       d="m 168.062,254 c -0.781,0 -1.493,-0.456 -1.819,-1.168 L 119.394,150.367 c -0.22,-0.482 -0.24,-1.033 -0.055,-1.53 0.185,-0.497 0.56,-0.9 1.042,-1.121 l 61.474,-28.106 c 1.005,-0.459 2.19,-0.017 2.651,0.987 l 46.849,102.465 c 0.331,0.726 0.2,1.58 -0.335,2.172 -0.535,0.594 -1.374,0.809 -2.128,0.553 l -42.206,-14.333 -16.771,41.299 c -0.301,0.74 -1.013,1.23 -1.811,1.247 -0.013,0 -0.027,0 -0.042,0 z m -44.198,-103.478 44.09,96.43 15.735,-38.751 c 0.399,-0.982 1.495,-1.48 2.497,-1.141 l 39.603,13.449 -44.089,-96.43 z"
       inkscape:connector-curvature="0"
       style="fill:#690589" /><circle
       id="ellipse4775"
       transform="matrix(0.707,-0.707,0.707,0.707,-35.385,120.696)"
       cy="103.062"
       cx="128"
       r="99.061996"
       style="fill:#cd8532;fill-opacity:1" /><path
       id="path4777"
       d="m 128,4 c -1.661,0 -3.312,0.043 -4.953,0.123 52.409,2.581 94.109,45.889 94.109,98.938 0,53.049 -41.7,96.357 -94.109,98.938 1.641,0.081 3.292,0.124 4.953,0.124 54.71,0 99.062,-44.352 99.062,-99.062 C 227.062,48.351 182.71,4 128,4 Z"
       inkscape:connector-curvature="0"
       style="fill:#cd6b32;fill-opacity:1" /><path
       id="path4779"
       d="m 128,4 c 1.661,0 3.312,0.043 4.953,0.123 -52.409,2.581 -94.109,45.889 -94.109,98.938 0,53.049 41.7,96.357 94.109,98.938 -1.641,0.081 -3.292,0.124 -4.953,0.124 -54.71,0 -99.062,-44.352 -99.062,-99.062 C 28.938,48.351 73.29,4 128,4 Z"
       inkscape:connector-curvature="0"
       style="fill:#cd5b32;fill-opacity:1" /><g
       id="g4787"
       style="fill:#690589"><path
         id="path4781"
         d="M 128,204.124 C 72.274,204.124 26.938,158.788 26.938,103.062 26.938,47.336 72.274,2 128,2 c 55.726,0 101.062,45.336 101.062,101.062 0,55.726 -45.336,101.062 -101.062,101.062 z M 128,6 c -53.52,0 -97.062,43.542 -97.062,97.062 0,53.52 43.542,97.062 97.062,97.062 53.52,0 97.062,-43.542 97.062,-97.062 C 225.062,49.542 181.52,6 128,6 Z"
         inkscape:connector-curvature="0" /><path
         id="path4783"
         d="m 128,183.364 c -44.279,0 -80.303,-36.023 -80.303,-80.303 0,-44.279 36.023,-80.302 80.303,-80.302 44.28,0 80.303,36.023 80.303,80.302 0,44.28 -36.024,80.303 -80.303,80.303 z m 0,-156.605 c -42.073,0 -76.303,34.229 -76.303,76.302 0,42.073 34.23,76.303 76.303,76.303 42.073,0 76.303,-34.229 76.303,-76.303 0,-42.074 -34.23,-76.302 -76.303,-76.302 z"
         inkscape:connector-curvature="0" /><path
         id="path4785"
         d="m 42.246,76.338 c -0.219,0 -0.44,-0.036 -0.658,-0.112 -1.043,-0.363 -1.594,-1.504 -1.23,-2.547 1.444,-4.145 3.153,-8.255 5.079,-12.216 0.484,-0.995 1.679,-1.407 2.674,-0.924 0.993,0.483 1.406,1.68 0.924,2.673 -1.858,3.821 -3.507,7.786 -4.899,11.784 -0.288,0.825 -1.063,1.342 -1.89,1.342 z"
         inkscape:connector-curvature="0" /></g><path
       id="path4789"
       d="m 149.6,92.207 c 7.187,7.041 10.707,16.428 10.707,25.669 0,9.241 -3.52,18.628 -10.707,25.816 -7.041,7.041 -16.428,10.708 -25.816,10.708 -9.242,0 -18.629,-3.667 -25.67,-10.708 -3.227,-3.227 -3.227,-8.508 0,-11.735 3.227,-3.227 8.507,-3.227 11.735,0 3.813,3.814 8.801,5.72 13.935,5.72 5.133,0 10.121,-1.907 14.081,-5.72 3.96,-3.961 5.866,-8.948 5.866,-14.081 0,-5.134 -1.907,-10.121 -5.866,-13.935 -3.814,-3.961 -8.801,-5.721 -13.935,-5.867 -2.347,0.146 -4.547,-0.88 -6.014,-2.641 -0.146,0 -0.146,0 -0.146,-0.146 -3.373,-3.227 -3.373,-8.361 -0.293,-11.735 l 14.961,-15.255 h -23.762 c -4.547,0 -8.214,-3.667 -8.214,-8.361 0,-4.547 3.667,-8.214 8.214,-8.214 h 43.272 c 4.694,0 8.36,3.667 8.36,8.214 0,1.467 -0.44,2.787 -1.026,3.961 -0.44,0.733 -0.88,1.466 -1.468,2.053 l -18.482,19.07 c 3.813,1.76 7.333,4.107 10.268,7.187 z"
       inkscape:connector-curvature="0"
       style="fill:#f4efed" /><path
       id="path4791"
       d="m 123.783,156.4 c -10.035,0 -19.906,-4.116 -27.084,-11.293 -4.015,-4.015 -4.015,-10.548 0,-14.563 4.016,-4.014 10.548,-4.015 14.563,0 3.312,3.312 7.758,5.135 12.521,5.135 4.798,0 9.188,-1.785 12.695,-5.161 3.427,-3.429 5.253,-7.81 5.253,-12.641 0,-4.793 -1.866,-9.231 -5.254,-12.494 -4.029,-4.182 -9.012,-5.192 -12.521,-5.306 -2.689,0.133 -5.362,-0.962 -7.235,-2.974 -0.28,-0.177 -0.51,-0.419 -0.674,-0.71 C 112.294,92.462 112.24,86.322 116,82.205 l 11.675,-11.906 h -19 c -5.728,0 -10.214,-4.551 -10.214,-10.361 0,-5.632 4.582,-10.214 10.214,-10.214 h 43.271 c 5.81,0 10.36,4.487 10.36,10.214 0,1.599 -0.404,3.187 -1.237,4.854 -0.022,0.046 -0.048,0.092 -0.074,0.136 -0.477,0.792 -1.01,1.681 -1.77,2.439 l -16.564,17.092 c 3.213,1.761 6.018,3.888 8.363,6.344 7.275,7.142 11.282,16.755 11.282,27.074 0,10.276 -4.011,19.947 -11.293,27.23 -7.177,7.177 -17.102,11.293 -27.23,11.293 z m -19.802,-24.869 c -1.613,0 -3.226,0.614 -4.454,1.842 -2.455,2.455 -2.455,6.451 0,8.906 6.433,6.432 15.274,10.122 24.256,10.122 9.075,0 17.97,-3.689 24.402,-10.122 6.526,-6.528 10.121,-15.194 10.121,-24.402 0,-9.247 -3.589,-17.855 -10.106,-24.241 -0.017,-0.016 -0.033,-0.033 -0.049,-0.049 -2.587,-2.716 -5.837,-4.987 -9.657,-6.75 -0.589,-0.271 -1.01,-0.812 -1.128,-1.449 -0.119,-0.638 0.078,-1.293 0.529,-1.759 l 18.48,-19.069 c 0.421,-0.42 0.775,-1.002 1.148,-1.622 0.526,-1.073 0.782,-2.055 0.782,-3 0,-3.485 -2.794,-6.214 -6.36,-6.214 h -43.271 c -3.427,0 -6.214,2.788 -6.214,6.214 0,3.567 2.729,6.361 6.214,6.361 h 23.762 c 0.806,0 1.532,0.483 1.844,1.226 0.312,0.743 0.148,1.6 -0.416,2.175 l -14.96,15.255 c -2.343,2.568 -2.256,6.495 0.248,8.889 0.04,0.039 0.078,0.079 0.115,0.12 0.065,0.06 0.127,0.123 0.184,0.191 1.106,1.327 2.695,2.031 4.354,1.925 0.061,-0.003 0.121,-0.005 0.182,-0.003 6.108,0.174 11.405,2.415 15.319,6.479 4.125,3.971 6.426,9.431 6.426,15.322 0,5.831 -2.291,11.333 -6.452,15.496 -4.232,4.076 -9.727,6.306 -15.496,6.306 -5.831,0 -11.282,-2.24 -15.349,-6.306 -1.228,-1.229 -2.841,-1.843 -4.454,-1.843 z"
       inkscape:connector-curvature="0"
       style="fill:#690589" /></g></g></svg>