<svg height="512" viewBox="0 0 128 128" width="512" xmlns="http://www.w3.org/2000/svg"><g><circle cx="64" cy="72.372" fill="#3ea2e5" r="49.321"/><circle cx="64" cy="72.372" fill="#dfeef4" r="37.912"/><g fill="#f45858"><circle cx="64" cy="72.372" r="6.243"/><path d="m54.576 6.306h18.847v8.249h-18.847z"/><path d="m91.966 31.752.1.055 5.833-10.154-7.152-4.109-5.83 10.147.088.051a49.189 49.189 0 0 1 6.961 4.01z"/><path d="m36.035 31.751a49.213 49.213 0 0 1 6.965-4.009l.088-.051-5.83-10.147-7.152 4.109 5.833 10.154z"/><path d="m59.876 14.555v8.666h.194c1.3-.1 2.606-.17 3.93-.17s2.632.068 3.93.17h.194v-8.666z"/></g><g><path d="m17.659 83.168a47.58 47.58 0 0 1 85.486-37.835 1.75 1.75 0 0 0 2.878-1.992 51.126 51.126 0 0 0 -11.671-12.01l5.06-8.807a1.75 1.75 0 0 0 -.645-2.389l-7.153-4.109a1.75 1.75 0 0 0 -2.389.646l-5.058 8.8a50.994 50.994 0 0 0 -14.293-3.822v-5.345h3.55a1.75 1.75 0 0 0 1.75-1.75v-8.248a1.749 1.749 0 0 0 -1.75-1.75h-18.848a1.749 1.749 0 0 0 -1.75 1.75v8.248a1.75 1.75 0 0 0 1.75 1.75h3.55v5.344a50.663 50.663 0 0 0 -14.3 3.814l-5.051-8.791a1.749 1.749 0 0 0 -2.389-.646l-7.153 4.109a1.75 1.75 0 0 0 -.645 2.389l5.059 8.805a51.105 51.105 0 0 0 -19.4 52.63 1.75 1.75 0 0 0 1.7 1.355 1.813 1.813 0 0 0 .4-.045 1.751 1.751 0 0 0 1.312-2.101zm73.729-63.235 4.117 2.367-4.047 7.044c-1.336-.853-2.7-1.651-4.111-2.376zm-35.062-11.876h15.348v4.748h-15.348zm5.3 8.248h4.748v5.069c-.789-.037-1.574-.074-2.374-.074s-1.587.024-2.374.061zm-29.131 5.995 4.117-2.365 4.044 7.039q-2.115 1.092-4.113 2.372z"/><path d="m110.222 50.623a1.75 1.75 0 0 0 -3.166 1.492 47.579 47.579 0 0 1 -80.226 49.949 1.749 1.749 0 0 0 -2.73 2.186 51.081 51.081 0 0 0 86.124-53.627z"/><path d="m20.135 90.813a1.751 1.751 0 0 0 -3.227 1.358c.609 1.445 1.293 2.88 2.035 4.267a1.75 1.75 0 1 0 3.086-1.651c-.691-1.287-1.329-2.629-1.894-3.974z"/><path d="m98.219 52.319a1.672 1.672 0 0 0 -.1-.135 39.942 39.942 0 0 0 -14.105-14.032 1.515 1.515 0 0 0 -.15-.109 1.608 1.608 0 0 0 -.175-.078 39.516 39.516 0 0 0 -39.565.107 1.781 1.781 0 0 0 -.178.082 1.617 1.617 0 0 0 -.133.1 39.951 39.951 0 0 0 -14.035 14.106.946.946 0 0 0 -.186.324 39.518 39.518 0 0 0 .108 39.566 1.732 1.732 0 0 0 .08.176c.022.038.055.066.079.1a39.941 39.941 0 0 0 14.123 14.064 1.707 1.707 0 0 0 .153.111c.044.025.092.035.137.057a39.526 39.526 0 0 0 39.65-.113c.043-.021.089-.03.131-.055s.088-.065.133-.1a39.95 39.95 0 0 0 14.058-14.144c.027-.039.061-.068.085-.11a1.443 1.443 0 0 0 .079-.175 39.52 39.52 0 0 0 -.108-39.567 1.622 1.622 0 0 0 -.081-.175zm-14.456 50.314-2.249-3.833a1.75 1.75 0 1 0 -3.02 1.77l2.252 3.842a35.9 35.9 0 0 1 -15 4.082v-4.465a1.75 1.75 0 0 0 -3.5 0v4.465a35.891 35.891 0 0 1 -14.814-3.994l2.23-3.853a1.75 1.75 0 0 0 -3.029-1.753l-2.227 3.849a36.443 36.443 0 0 1 -10.667-10.608l3.837-2.248a1.75 1.75 0 0 0 -1.769-3.02l-3.842 2.252a35.9 35.9 0 0 1 -4.083-15h4.465a1.75 1.75 0 0 0 0-3.5h-4.465a35.9 35.9 0 0 1 3.991-14.818l3.854 2.229a1.75 1.75 0 0 0 1.752-3.029l-3.848-2.227a36.44 36.44 0 0 1 10.606-10.663l2.249 3.837a1.75 1.75 0 0 0 3.02-1.769l-2.252-3.842a35.882 35.882 0 0 1 15-4.082v4.464a1.75 1.75 0 0 0 3.5 0v-4.464a35.9 35.9 0 0 1 14.818 3.99l-2.234 3.855a1.75 1.75 0 1 0 3.029 1.753l2.227-3.853a36.443 36.443 0 0 1 10.667 10.61l-3.837 2.248a1.75 1.75 0 1 0 1.769 3.02l3.843-2.252a35.916 35.916 0 0 1 4.082 15h-4.465a1.75 1.75 0 0 0 0 3.5h4.465a35.9 35.9 0 0 1 -3.991 14.814l-3.853-2.23a1.75 1.75 0 0 0 -1.753 3.03l3.848 2.227a36.437 36.437 0 0 1 -10.606 10.666z"/><path d="m90.394 72.373a1.75 1.75 0 0 0 -1.75-1.75h-16.85a8.013 8.013 0 0 0 -6.044-6.045v-16.849a1.75 1.75 0 0 0 -3.5 0v16.849a7.991 7.991 0 1 0 9.544 9.545h16.85a1.751 1.751 0 0 0 1.75-1.75zm-26.394 4.493a4.494 4.494 0 1 1 4.493-4.493 4.5 4.5 0 0 1 -4.493 4.493z"/></g></g></svg>