<svg height="512" viewBox="0 0 128 128" width="512" xmlns="http://www.w3.org/2000/svg"><g><g><path d="m74.095 74.095h35.388v35.388h-35.388z" fill="#f1f3f8"/><path d="m84.442 84.986h29.388v14.694h-29.388z" fill="#c1d3ed" transform="matrix(0 1 -1 0 191.469 -6.802)"/><circle cx="91.789" cy="92.333" fill="#01ebcd" r="6.187"/><path d="m76.641 109.482h30.3a15.947 15.947 0 0 0 -30.295 0z" fill="#00c5ca"/><path d="m18.518 18.518h35.388v35.388h-35.388z" fill="#f1f3f8"/><path d="m28.865 28.865h29.388v14.694h-29.388z" fill="#c1d3ed" transform="matrix(0 1 -1 0 79.77 -7.347)"/><circle cx="36.211" cy="36.756" fill="#b373f0" r="6.187"/><path d="m21.064 53.905h30.3a15.947 15.947 0 0 0 -30.295 0z" fill="#544ec7"/><circle cx="64" cy="64" fill="#ff8393" r="23.75"/><path d="m64 43.25v41.5a20.75 20.75 0 0 0 0-41.5z" fill="#ea1c81"/><g fill="#f1f3f8"><path d="m55.107 72.22-5.881-16.451h3.6l4.164 12.176 4.029-12.176h3.523l-5.889 16.451z"/><path d="m65.4 66.867 3.232-.314a3.941 3.941 0 0 0 1.184 2.39 3.578 3.578 0 0 0 2.407.763 3.7 3.7 0 0 0 2.418-.679 2.016 2.016 0 0 0 .814-1.587 1.5 1.5 0 0 0 -.342-.994 2.738 2.738 0 0 0 -1.195-.712q-.584-.2-2.66-.718a9.017 9.017 0 0 1 -3.748-1.628 4.279 4.279 0 0 1 -1.515-3.31 4.221 4.221 0 0 1 .713-2.351 4.46 4.46 0 0 1 2.053-1.667 8.241 8.241 0 0 1 3.239-.572 6.942 6.942 0 0 1 4.662 1.358 4.789 4.789 0 0 1 1.638 3.625l-3.321.146a2.817 2.817 0 0 0 -.915-1.824 3.349 3.349 0 0 0 -2.1-.556 3.8 3.8 0 0 0 -2.267.595 1.2 1.2 0 0 0 -.527 1.021 1.262 1.262 0 0 0 .494 1 8.721 8.721 0 0 0 3.052 1.1 16.106 16.106 0 0 1 3.584 1.183 4.614 4.614 0 0 1 1.818 1.672 5.176 5.176 0 0 1 -.129 5.269 4.707 4.707 0 0 1 -2.222 1.835 9.322 9.322 0 0 1 -3.58.6 7.127 7.127 0 0 1 -4.787-1.442 6.271 6.271 0 0 1 -2-4.203z"/></g></g><g><path d="m109.482 97.5a1.75 1.75 0 0 0 -1.75 1.75v7.568a17.648 17.648 0 0 0 -10.156-9.07 7.937 7.937 0 1 0 -11.576 0 17.652 17.652 0 0 0 -10.155 9.07v-14.485a1.75 1.75 0 0 0 -3.5 0v17.149a1.749 1.749 0 0 0 1.75 1.75h35.387a1.749 1.749 0 0 0 1.75-1.75v-10.232a1.749 1.749 0 0 0 -1.75-1.75zm-22.131-5.167a4.438 4.438 0 1 1 4.437 4.438 4.441 4.441 0 0 1 -4.437-4.438zm4.437 7.938a14.167 14.167 0 0 1 12.491 7.461h-24.979a14.163 14.163 0 0 1 12.488-7.461z"/><path d="m109.482 90.583a1.75 1.75 0 0 0 -1.75 1.75v.667a1.75 1.75 0 0 0 3.5 0v-.667a1.749 1.749 0 0 0 -1.75-1.75z"/><path d="m109.482 72.345h-21.392a25.486 25.486 0 0 0 -32.435-32.435v-21.392a1.749 1.749 0 0 0 -1.75-1.75h-13.467a1.75 1.75 0 0 0 0 3.5h11.717v21.16a25.587 25.587 0 0 0 -5.066 3.509 17.584 17.584 0 0 0 -5.1-2.757 7.937 7.937 0 1 0 -11.566-.009 17.65 17.65 0 0 0 -10.155 9.069v-30.972h6.107a1.75 1.75 0 0 0 0-3.5h-7.857a1.749 1.749 0 0 0 -1.75 1.75v35.387a1.749 1.749 0 0 0 1.75 1.75h17.693a1.75 1.75 0 0 0 0-3.5h-12.49a14.161 14.161 0 0 1 20.891-4.691 25.466 25.466 0 0 0 -2.076 30.309 1.75 1.75 0 1 0 2.944-1.892 22.009 22.009 0 1 1 4.832 5.344 1.75 1.75 0 0 0 -2.179 2.738 25.233 25.233 0 0 0 15.867 5.537 25.521 25.521 0 0 0 22.572-13.655h21.16v10.28a1.75 1.75 0 0 0 3.5 0v-12.025a1.749 1.749 0 0 0 -1.75-1.755zm-77.708-35.589a4.438 4.438 0 1 1 4.437 4.437 4.443 4.443 0 0 1 -4.437-4.437z"/><path d="m33.1 20.268h.713a1.75 1.75 0 0 0 0-3.5h-.713a1.75 1.75 0 0 0 0 3.5z"/><path d="m58.653 72.22 5.891-16.451h-3.523l-4.029 12.176-4.164-12.176h-3.602l5.881 16.451z"/><path d="m74.638 69.027a3.7 3.7 0 0 1 -2.418.679 3.578 3.578 0 0 1 -2.407-.763 3.941 3.941 0 0 1 -1.184-2.39l-3.232.314a6.271 6.271 0 0 0 2 4.2 7.127 7.127 0 0 0 4.791 1.442 9.3 9.3 0 0 0 3.58-.6 4.7 4.7 0 0 0 2.222-1.834 5.176 5.176 0 0 0 .129-5.269 4.614 4.614 0 0 0 -1.819-1.67 16.053 16.053 0 0 0 -3.585-1.184 8.738 8.738 0 0 1 -3.053-1.1 1.264 1.264 0 0 1 -.493-1 1.2 1.2 0 0 1 .527-1.022 3.8 3.8 0 0 1 2.267-.594 3.35 3.35 0 0 1 2.1.555 2.817 2.817 0 0 1 .915 1.823l3.321-.145a4.789 4.789 0 0 0 -1.644-3.625 6.942 6.942 0 0 0 -4.655-1.356 8.241 8.241 0 0 0 -3.238.572 4.46 4.46 0 0 0 -2.053 1.667 4.221 4.221 0 0 0 -.713 2.351 4.279 4.279 0 0 0 1.515 3.31 9.017 9.017 0 0 0 3.748 1.628q2.076.516 2.66.718a2.738 2.738 0 0 1 1.195.712 1.5 1.5 0 0 1 .342.993 2.016 2.016 0 0 1 -.818 1.588z"/></g></g></svg>