<?xml version="1.0" encoding="UTF-8" standalone="no"?>
<svg
   xmlns:dc="http://purl.org/dc/elements/1.1/"
   xmlns:cc="http://creativecommons.org/ns#"
   xmlns:rdf="http://www.w3.org/1999/02/22-rdf-syntax-ns#"
   xmlns:svg="http://www.w3.org/2000/svg"
   xmlns="http://www.w3.org/2000/svg"
   xmlns:sodipodi="http://sodipodi.sourceforge.net/DTD/sodipodi-0.dtd"
   xmlns:inkscape="http://www.inkscape.org/namespaces/inkscape"
   height="512"
   viewBox="0 0 64 64"
   width="512"
   version="1.1"
   id="svg66"
   sodipodi:docname="versus.svg"
   inkscape:version="0.92.3 (2405546, 2018-03-11)">
  <metadata
     id="metadata72">
    <rdf:RDF>
      <cc:Work
         rdf:about="">
        <dc:format>image/svg+xml</dc:format>
        <dc:type
           rdf:resource="http://purl.org/dc/dcmitype/StillImage" />
        <dc:title></dc:title>
      </cc:Work>
    </rdf:RDF>
  </metadata>
  <defs
     id="defs70" />
  <sodipodi:namedview
     pagecolor="#ffffff"
     bordercolor="#666666"
     borderopacity="1"
     objecttolerance="10"
     gridtolerance="10"
     guidetolerance="10"
     inkscape:pageopacity="0"
     inkscape:pageshadow="2"
     inkscape:window-width="2560"
     inkscape:window-height="1017"
     id="namedview68"
     showgrid="false"
     inkscape:zoom="0.4609375"
     inkscape:cx="-14.101695"
     inkscape:cy="256"
     inkscape:window-x="-8"
     inkscape:window-y="-8"
     inkscape:window-maximized="1"
     inkscape:current-layer="svg66" />
  <g
     id="Flat">
    <g
       id="Color_copy"
       data-name="Color copy">
      <g
         id="g62">
        <g
           id="g8">
          <path
             d="m31 3 6.254 9.392 9.246-5.507-.146 10.761 10.761-.146-5.507 9.246 9.392 5.254-9.392 5.254 5.507 10.246-10.761-.146.146 9.761-9.246-5.507-4.254 8.392-6.254-8.392-9.246 5.507.146-10.761-10.761.146 5.507-9.246-9.392-5.254 10.392-5.254-5.507-11.246 10.761 3.146-1.146-11.761 9.246 5.507z"
             fill="#fcbc04"
             id="path2" />
          <path
             d="m31.328 12 4.205 6.426 6.217-3.768-.098 7.363 7.235-.1-3.702 6.326 6.315 3.595-6.315 3.595 3.702 7.01-7.235-.099.098 6.678-6.217-3.768-2.861 5.742-4.205-5.742-6.217 3.768.098-7.363-7.235.1 3.702-6.326-6.315-3.595 6.988-3.595-3.703-7.694 7.235 2.152-.77-8.047 6.217 3.768z"
             fill="#f9e109"
             id="path4" />
          <path
             d="m20 53v-10l-9 1 5-8-8-4 8-5-7.78-10.817 5.172 10.563-10.392 5.254 9.392 5.254-5.507 9.246 10.761-.146-.146 10.761 9.246-5.507 6.254 8.392-5-12z"
             fill="#e59730"
             id="path6" />
        </g>
        <path
           d="m25.873 41.702h-3.746l-6-16 3.746-1.404 4.127 11.006 4.127-11.006 3.746 1.404z"
           fill="#aae1f9"
           id="path10" />
        <path
           d="m27.232 31.612 2.448-6.732-1.553-.58-4.127 11-4.127-11-3.746 1.4 6 16h3.746l2.114-5.638a4.585 4.585 0 0 1 -.755-4.45z"
           fill="#57b7eb"
           id="path12" />
        <path
           d="m42 43a6.006 6.006 0 0 1 -6-6h4a2 2 0 1 0 2-2 6 6 0 1 1 6-6h-4a2 2 0 1 0 -2 2 6 6 0 0 1 0 12z"
           fill="#aae1f9"
           id="path14" />
        <path
           d="m21.812 36.2-4.151-11.073-1.534.575 6 16h3.746l.757-2.019a5.4 5.4 0 0 1 -4.818-3.483z"
           fill="#4891d3"
           id="path16" />
        <path
           d="m46 34a10 10 0 0 1 -9.587-7.17 5.985 5.985 0 0 0 5.587 8.17 2 2 0 1 1 -2 2h-4a6 6 0 1 0 11.145-3.07 10.056 10.056 0 0 1 -1.145.07z"
           fill="#57b7eb"
           id="path18" />
        <path
           d="m43 41a6 6 0 0 1 -5.65-4h-1.35a6 6 0 0 0 11.771 1.624 5.987 5.987 0 0 1 -4.771 2.376z"
           fill="#4891d3"
           id="path20" />
        <g
           id="g40">
          <path
             d="m54 47h-18a7 7 0 1 0 6.317 10h5.366a7 7 0 1 0 6.317-10z"
             fill="#f89c8d"
             id="path22" />
          <path
             d="m57 59a8.947 8.947 0 0 1 -6.43-2.714 7.22 7.22 0 0 0 -5.142-2.286h-2.428a7 7 0 0 1 -7-7 7 7 0 1 0 6.317 10h5.366a6.983 6.983 0 0 0 11.477 1.719 8.947 8.947 0 0 1 -2.16.281z"
             fill="#f8664f"
             id="path24" />
          <g
             fill="#57b7eb"
             id="g34">
            <path
               d="m36 57.5a1 1 0 0 1 -1-1v-5a1 1 0 0 1 2 0v5a1 1 0 0 1 -1 1z"
               id="path26" />
            <path
               d="m38.5 55h-5a1 1 0 0 1 0-2h5a1 1 0 0 1 0 2z"
               id="path28" />
            <circle
               cx="54"
               cy="51"
               r="1"
               id="circle30" />
            <circle
               cx="54"
               cy="56"
               r="1"
               id="circle32" />
          </g>
          <circle
             cx="51.5"
             cy="53.5"
             fill="#f9e109"
             r="1"
             id="circle36" />
          <circle
             cx="56.5"
             cy="53.5"
             fill="#f9e109"
             r="1"
             id="circle38" />
        </g>
        <g
           id="g60">
          <path
             d="m28 3h-18a7 7 0 1 0 6.317 10h5.366a7 7 0 1 0 6.317-10z"
             fill="#f89c8d"
             id="path42" />
          <path
             d="m31 15a8.947 8.947 0 0 1 -6.43-2.714 7.22 7.22 0 0 0 -5.142-2.286h-2.428a7 7 0 0 1 -7-7 7 7 0 1 0 6.317 10h5.366a6.983 6.983 0 0 0 11.477 1.719 8.947 8.947 0 0 1 -2.16.281z"
             fill="#f8664f"
             id="path44" />
          <g
             fill="#57b7eb"
             id="g54">
            <path
               d="m10 13.5a1 1 0 0 1 -1-1v-5a1 1 0 0 1 2 0v5a1 1 0 0 1 -1 1z"
               id="path46" />
            <path
               d="m12.5 11h-5a1 1 0 0 1 0-2h5a1 1 0 0 1 0 2z"
               id="path48" />
            <circle
               cx="28"
               cy="7"
               r="1"
               id="circle50" />
            <circle
               cx="28"
               cy="12"
               r="1"
               id="circle52" />
          </g>
          <circle
             cx="25.5"
             cy="9.5"
             fill="#f9e109"
             r="1"
             id="circle56" />
          <circle
             cx="30.5"
             cy="9.5"
             fill="#f9e109"
             r="1"
             id="circle58" />
        </g>
      </g>
    </g>
  </g>
</svg>
