<?xml version="1.0" encoding="UTF-8" standalone="no"?>
<!-- Generator: Adobe Illustrator 19.0.0, SVG Export Plug-In . SVG Version: 6.00 Build 0)  -->

<svg
   xmlns:dc="http://purl.org/dc/elements/1.1/"
   xmlns:cc="http://creativecommons.org/ns#"
   xmlns:rdf="http://www.w3.org/1999/02/22-rdf-syntax-ns#"
   xmlns:svg="http://www.w3.org/2000/svg"
   xmlns="http://www.w3.org/2000/svg"
   xmlns:sodipodi="http://sodipodi.sourceforge.net/DTD/sodipodi-0.dtd"
   xmlns:inkscape="http://www.inkscape.org/namespaces/inkscape"
   version="1.1"
   id="Capa_1"
   x="0px"
   y="0px"
   viewBox="0 0 512.001 512.001"
   style="enable-background:new 0 0 512.001 512.001;"
   xml:space="preserve"
   sodipodi:docname="iconopuntosdef.svg"
   inkscape:version="0.92.3 (2405546, 2018-03-11)"><metadata
   id="metadata55"><rdf:RDF><cc:Work
       rdf:about=""><dc:format>image/svg+xml</dc:format><dc:type
         rdf:resource="http://purl.org/dc/dcmitype/StillImage" /><dc:title></dc:title></cc:Work></rdf:RDF></metadata><defs
   id="defs53" /><sodipodi:namedview
   pagecolor="#ffffff"
   bordercolor="#666666"
   borderopacity="1"
   objecttolerance="10"
   gridtolerance="10"
   guidetolerance="10"
   inkscape:pageopacity="0"
   inkscape:pageshadow="2"
   inkscape:window-width="2560"
   inkscape:window-height="1017"
   id="namedview51"
   showgrid="false"
   inkscape:zoom="0.32593141"
   inkscape:cx="344.73224"
   inkscape:cy="179.53303"
   inkscape:window-x="-8"
   inkscape:window-y="-8"
   inkscape:window-maximized="1"
   inkscape:current-layer="Capa_1" />


<path
   style="fill:#F2D98C;"
   d="M419.241,271.048l-22.79,51.931c-10.909,24.857-36.488,41.048-64.85,41.048l0,0  c20.14,0,36.467-15.502,36.467-34.624l0,0c0-19.122-16.327-34.624-36.467-34.624h-67.23l0,0  c-26.944-18.839-59.529-29.002-92.991-29.002H98.455v29.002v69.246v118.146h228.133l0,0c56.514,0,107.486-32.264,129.222-81.793  l42.952-97.872c11.821-26.938-9.024-56.626-39.761-56.626l0,0C441.612,245.88,425.929,255.807,419.241,271.048z"
   id="path6" />
<rect
   x="9.845"
   y="245.881"
   style="fill:#BC9C80;"
   width="88.609"
   height="255.983"
   id="rect8" />
<path
   d="M503.863,259.857c-9.743-14.916-26.514-23.821-44.861-23.821c-21.352,0-40.497,12.19-48.777,31.056l-22.789,51.931  c-2.457,5.601-5.78,10.685-9.784,15.134c0.173-1.562,0.263-3.148,0.263-4.753c0-24.52-20.776-44.469-46.312-44.469h-64.181  c-28.243-18.983-61.38-29.002-96.041-29.002H108.3V245.88c0-5.438-4.409-9.845-9.845-9.845H9.845c-5.437,0-9.845,4.408-9.845,9.845  v255.983c0,5.438,4.409,9.845,9.845,9.845h88.609c5.437,0,9.845-4.408,9.845-9.845v-9.845h218.288  c60.6,0,114.861-34.418,138.238-87.682l42.951-97.873C514.552,291.025,513.125,274.038,503.863,259.857z M88.609,492.018H19.691  V255.726h68.918v10.052v216.394V492.018z M489.746,298.551l-42.951,97.873c-20.236,46.109-67.42,75.904-120.207,75.904H108.3  v-19.691h49.227c5.437,0,9.845-4.408,9.845-9.845c0-5.438-4.409-9.845-9.845-9.845H108.3V275.624h63.078  c31.219,0,62.24,9.668,87.349,27.225c1.655,1.157,3.624,1.777,5.641,1.777h67.23c14.679,0,26.621,11.116,26.621,24.778  s-11.942,24.778-26.62,24.778h-60.849c-5.437,0-9.845,4.408-9.845,9.845c0,5.438,4.409,9.845,9.845,9.845h63.832  c0.531,0,1.047-0.054,1.555-0.135c30.508-1.633,57.403-19.63,69.328-46.803l22.789-51.931c5.139-11.711,17.208-19.278,30.745-19.278  c11.674,0,22.282,5.57,28.376,14.898C492.936,279.135,493.8,289.315,489.746,298.551z"
   id="path10" />
<path
   d="M250.301,360.265c-0.246-0.601-0.551-1.172-0.906-1.703c-0.353-0.541-0.767-1.044-1.221-1.496  c-0.453-0.453-0.955-0.866-1.497-1.221c-0.532-0.354-1.103-0.66-1.703-0.906c-0.591-0.246-1.21-0.443-1.84-0.571  c-3.2-0.64-6.596,0.404-8.882,2.698c-0.453,0.453-0.866,0.955-1.221,1.496c-0.364,0.532-0.66,1.103-0.906,1.703  c-0.246,0.591-0.443,1.211-0.571,1.841s-0.186,1.28-0.186,1.92s0.059,1.29,0.186,1.92c0.128,0.63,0.325,1.25,0.571,1.841  c0.246,0.601,0.542,1.172,0.906,1.703c0.354,0.542,0.768,1.044,1.221,1.497c1.831,1.831,4.371,2.885,6.961,2.885  c0.639,0,1.29-0.069,1.92-0.197c0.63-0.118,1.25-0.315,1.84-0.561c0.601-0.246,1.172-0.551,1.703-0.906  c0.542-0.354,1.044-0.768,1.497-1.221c0.454-0.453,0.867-0.955,1.221-1.497c0.354-0.532,0.66-1.103,0.906-1.703  c0.246-0.591,0.433-1.211,0.561-1.841c0.128-0.63,0.197-1.28,0.197-1.92s-0.069-1.29-0.197-1.92S250.547,360.856,250.301,360.265z"
   id="path12" />
<path
   d="M196.151,439.029c-0.246-0.601-0.551-1.172-0.906-1.703c-0.353-0.542-0.767-1.044-1.221-1.497  c-1.83-1.831-4.37-2.885-6.96-2.885s-5.13,1.053-6.961,2.885c-0.453,0.453-0.866,0.955-1.221,1.497  c-0.364,0.532-0.66,1.103-0.906,1.703c-0.246,0.591-0.443,1.211-0.56,1.841c-0.129,0.63-0.197,1.28-0.197,1.92  s0.068,1.29,0.197,1.92c0.117,0.63,0.314,1.25,0.56,1.841c0.246,0.601,0.542,1.172,0.906,1.703c0.354,0.542,0.768,1.044,1.221,1.496  c1.831,1.831,4.362,2.885,6.961,2.885c0.639,0,1.29-0.069,1.92-0.197c0.63-0.118,1.25-0.315,1.84-0.561  c0.601-0.246,1.172-0.551,1.703-0.906c0.542-0.354,1.044-0.768,1.497-1.221c1.831-1.831,2.886-4.371,2.886-6.961  c0-0.64-0.069-1.29-0.197-1.92C196.595,440.24,196.397,439.62,196.151,439.029z"
   id="path14" />


<g
   id="g20">
</g>
<g
   id="g22">
</g>
<g
   id="g24">
</g>
<g
   id="g26">
</g>
<g
   id="g28">
</g>
<g
   id="g30">
</g>
<g
   id="g32">
</g>
<g
   id="g34">
</g>
<g
   id="g36">
</g>
<g
   id="g38">
</g>
<g
   id="g40">
</g>
<g
   id="g42">
</g>
<g
   id="g44">
</g>
<g
   id="g46">
</g>
<g
   id="g48">
</g>
<path
   id="path862"
   d="m 266.01987,217.39355 c -1.53865,-1.51669 -2.50192,-3.62465 -2.52239,-5.95424 l -0.23682,-32.54394 -32.54086,0.23367 c -4.66925,0.0298 -8.48565,-3.73222 -8.51979,-8.39832 l -0.0514,-7.23804 c -0.0341,-4.66607 3.7316,-8.48626 8.3983,-8.51978 l 32.53961,-0.23366 -0.23304,-32.54023 c -0.0305,-4.66986 3.73532,-8.49006 8.39829,-8.51979 l 7.23742,-0.0519 c 4.65922,-0.0335 8.48313,3.72849 8.51666,8.39521 l 0.23743,32.54331 32.5396,-0.23366 c 4.67364,-0.0267 8.49006,3.73531 8.51979,8.3983 l 0.0526,7.23803 c 0.0329,4.6661 -3.73284,8.48629 -8.3983,8.51979 l -32.54086,0.23366 0.23429,32.54023 c 0.0329,4.66609 -3.73283,8.48629 -8.39831,8.51979 l -7.23865,0.052 c -2.32901,0.0136 -4.45059,-0.9193 -5.99362,-2.44035 z"
   inkscape:connector-curvature="0"
   style="fill:#000000;fill-opacity:1;stroke-width:0.22612089"
   sodipodi:nodetypes="ccccccccccccccccscccccc" /><text
   xml:space="preserve"
   style="font-style:normal;font-variant:normal;font-weight:bold;font-stretch:normal;font-size:168.63645935px;line-height:1.25;font-family:sans-serif;-inkscape-font-specification:'sans-serif, Bold';font-variant-ligatures:normal;font-variant-caps:normal;font-variant-numeric:normal;font-feature-settings:normal;text-align:start;letter-spacing:0px;word-spacing:0px;writing-mode:lr-tb;text-anchor:start;fill:#000000;fill-opacity:1;stroke:none;stroke-width:7.90483379"
   x="310.44128"
   y="228.19893"
   id="text875"><tspan
     sodipodi:role="line"
     id="tspan873"
     x="310.44128"
     y="228.19893"
     style="stroke-width:7.90483379">1</tspan></text>
</svg>