<?xml version="1.0" encoding="UTF-8" standalone="no"?>
<!-- Created with Inkscape (http://www.inkscape.org/) -->

<svg
   xmlns:dc="http://purl.org/dc/elements/1.1/"
   xmlns:cc="http://creativecommons.org/ns#"
   xmlns:rdf="http://www.w3.org/1999/02/22-rdf-syntax-ns#"
   xmlns:svg="http://www.w3.org/2000/svg"
   xmlns="http://www.w3.org/2000/svg"
   xmlns:xlink="http://www.w3.org/1999/xlink"
   xmlns:sodipodi="http://sodipodi.sourceforge.net/DTD/sodipodi-0.dtd"
   xmlns:inkscape="http://www.inkscape.org/namespaces/inkscape"
   width="95.666862mm"
   height="23.450642mm"
   viewBox="0 0 95.666861 23.450641"
   version="1.1"
   id="svg2396"
   inkscape:version="0.92.3 (2405546, 2018-03-11)"
   sodipodi:docname="inactive-games-banner.svg">
  <defs
     id="defs2390">
    <linearGradient
       id="linearGradient3029"
       inkscape:collect="always">
      <stop
         id="stop3025"
         offset="0"
         style="stop-color:#003c80;stop-opacity:0.71859294" />
      <stop
         id="stop3027"
         offset="1"
         style="stop-color:#ff9868;stop-opacity:1" />
    </linearGradient>
    <linearGradient
       inkscape:collect="always"
       xlink:href="#linearGradient3029"
       id="linearGradient2996"
       x1="-51.219826"
       y1="128.81633"
       x2="234.16394"
       y2="-32.232231"
       gradientUnits="userSpaceOnUse"
       gradientTransform="matrix(1,0,0,1.2062781,0,6.6488045)" />
  </defs>
  <sodipodi:namedview
     id="base"
     pagecolor="#ffffff"
     bordercolor="#666666"
     borderopacity="1.0"
     inkscape:pageopacity="0.0"
     inkscape:pageshadow="2"
     inkscape:zoom="2"
     inkscape:cx="125.59661"
     inkscape:cy="-29.65498"
     inkscape:document-units="mm"
     inkscape:current-layer="layer1"
     showgrid="false"
     inkscape:window-width="2560"
     inkscape:window-height="1017"
     inkscape:window-x="-8"
     inkscape:window-y="-8"
     inkscape:window-maximized="1" />
  <metadata
     id="metadata2393">
    <rdf:RDF>
      <cc:Work
         rdf:about="">
        <dc:format>image/svg+xml</dc:format>
        <dc:type
           rdf:resource="http://purl.org/dc/dcmitype/StillImage" />
        <dc:title />
      </cc:Work>
    </rdf:RDF>
  </metadata>
  <g
     inkscape:label="Capa 1"
     inkscape:groupmode="layer"
     id="layer1"
     transform="translate(-41.785363,-22.573819)">
    <rect
       style="opacity:1;fill:#fdfdfd;fill-opacity:0.98823529;fill-rule:evenodd;stroke:#8b8b8b;stroke-width:0.94768423;stroke-linecap:round;stroke-linejoin:round;stroke-miterlimit:4;stroke-dasharray:none;stroke-opacity:1;paint-order:normal"
       id="rect1677"
       width="94.719177"
       height="22.502958"
       x="42.259205"
       y="23.047661"
       ry="9.9919844" />
    <text
       xml:space="preserve"
       style="font-style:normal;font-variant:normal;font-weight:bold;font-stretch:normal;font-size:7.57326603px;line-height:1.25;font-family:sans-serif;-inkscape-font-specification:'sans-serif, Bold';font-variant-ligatures:normal;font-variant-caps:normal;font-variant-numeric:normal;font-feature-settings:normal;text-align:start;letter-spacing:0px;word-spacing:0px;writing-mode:lr-tb;text-anchor:start;fill:#736b84;fill-opacity:1;stroke:none;stroke-width:0.3549968;stroke-opacity:1"
       x="56.361012"
       y="37.052216"
       id="text1681"><tspan
         sodipodi:role="line"
         id="tspan1679"
         x="56.361012"
         y="37.052216"
         style="fill:#736b84;fill-opacity:1;stroke:none;stroke-width:0.3549968;stroke-opacity:1">INACTIVOS</tspan></text>
    <path
       id="path1902"
       d="m 119.30171,41.514764 c -0.34144,0 -0.68373,-0.130383 -0.94449,-0.39031 l -3.63734,-3.636627 -3.63662,3.636627 c -0.52223,0.521391 -1.36916,0.521391 -1.8907,0 l -0.80881,-0.808962 c -0.52153,-0.521393 -0.52153,-1.369161 0,-1.890693 l 3.63648,-3.636486 -3.63648,-3.636626 c -0.52153,-0.52223 -0.52153,-1.369999 0,-1.890693 l 0.80881,-0.808823 c 0.5207,-0.520694 1.36847,-0.521531 1.89001,0 l 3.63731,3.636487 3.6365,-3.636487 c 0.52306,-0.521531 1.36999,-0.521531 1.89068,0 l 0.80897,0.808823 c 0.52139,0.521531 0.52139,1.3693 0,1.890693 l -3.63663,3.636626 3.63663,3.636486 c 0.52139,0.521532 0.52139,1.3693 0,1.890693 l -0.80897,0.808962 c -0.26062,0.259927 -0.60291,0.39031 -0.94535,0.39031 z m -4.58183,-5.407544 c 0.15174,0 0.29735,0.06016 0.404,0.167655 l 4.04062,4.040617 c 0.0748,0.07399 0.19976,0.07399 0.27375,0 l 0.80881,-0.808822 c 0.0748,-0.07399 0.074,-0.199762 0,-0.274446 l -4.04061,-4.039919 c -0.22336,-0.223355 -0.22336,-0.585469 0,-0.808823 l 4.04061,-4.040617 c 0.074,-0.07399 0.0748,-0.199762 0,-0.273748 l -0.80881,-0.808123 c -0.0747,-0.07399 -0.19893,-0.07399 -0.27445,0 l -4.03992,4.040617 c -0.21415,0.21428 -0.59384,0.21428 -0.80883,0 l -4.04061,-4.040617 c -0.0747,-0.07399 -0.19976,-0.07399 -0.27374,0 l -0.80814,0.80896 c -0.0747,0.07384 -0.074,0.199623 0,0.274447 l 4.04062,4.039779 c 0.22335,0.223355 0.22335,0.585608 0,0.808962 l -4.04062,4.040617 c -0.074,0.07399 -0.0747,0.199763 0,0.273609 l 0.80897,0.808961 c 0.0747,0.07399 0.19892,0.07399 0.27444,0 l 4.03978,-4.040617 c 0.10684,-0.10833 0.2524,-0.168492 0.40413,-0.168492 z m 0,0"
       inkscape:connector-curvature="0"
       style="fill:#ff1414;fill-opacity:1;stroke-width:0.03573668" />
  </g>
</svg>
